<svg width="20" height="20" viewBox="0 0 20 20" fill="none" xmlns="http://www.w3.org/2000/svg">
    <path fill-rule="evenodd" clip-rule="evenodd" d="M10 1.66675C8.89495 1.66675 7.83514 2.10573 7.05374 2.88714C6.27233 3.66854 5.83335 4.72835 5.83335 5.83342C5.83335 6.93848 6.27233 7.99829 7.05374 8.77969C7.83514 9.56109 8.89495 10.0001 10 10.0001C11.1051 10.0001 12.1649 9.56109 12.9463 8.77969C13.7277 7.99829 14.1667 6.93848 14.1667 5.83342C14.1667 4.72835 13.7277 3.66854 12.9463 2.88714C12.1649 2.10573 11.1051 1.66675 10 1.66675ZM7.50001 5.83342C7.50001 5.17037 7.76341 4.53449 8.23225 4.06565C8.70109 3.59681 9.33697 3.33341 10 3.33341C10.6631 3.33341 11.2989 3.59681 11.7678 4.06565C12.2366 4.53449 12.5 5.17037 12.5 5.83342C12.5 6.49646 12.2366 7.13234 11.7678 7.60118C11.2989 8.07002 10.6631 8.33342 10 8.33342C9.33697 8.33342 8.70109 8.07002 8.23225 7.60118C7.76341 7.13234 7.50001 6.49646 7.50001 5.83342ZM6.99085 11.6667C6.00453 11.6667 5.05019 12.0166 4.2976 12.6542C3.54502 13.2917 3.043 14.1755 2.88085 15.1484L2.83501 15.4226C2.77536 15.7806 2.7944 16.1474 2.89079 16.4973C2.98718 16.8473 3.15863 17.172 3.3932 17.449C3.62778 17.726 3.91986 17.9486 4.24915 18.1014C4.57844 18.2541 4.93703 18.3333 5.30001 18.3334H14.6983C15.0615 18.3335 15.4203 18.2545 15.7497 18.1019C16.0792 17.9493 16.3715 17.7267 16.6063 17.4497C16.841 17.1726 17.0126 16.8478 17.1091 16.4977C17.2056 16.1477 17.2247 15.7808 17.165 15.4226L17.1183 15.1484C16.9562 14.1757 16.4543 13.2919 15.7019 12.6544C14.9495 12.0169 13.9954 11.6669 13.0092 11.6667H6.99085ZM4.52418 15.4226C4.62148 14.8386 4.92289 14.308 5.37476 13.9254C5.82662 13.5429 6.39961 13.3331 6.99168 13.3334H13.0108C13.6026 13.3335 14.1752 13.5434 14.6267 13.926C15.0783 14.3085 15.3794 14.8388 15.4767 15.4226L15.5217 15.6967C15.5415 15.8161 15.5351 15.9383 15.503 16.0549C15.4708 16.1715 15.4137 16.2797 15.3355 16.372C15.2573 16.4643 15.16 16.5385 15.0502 16.5894C14.9405 16.6403 14.821 16.6667 14.7 16.6667H5.30085C5.17988 16.6667 5.06038 16.6403 4.95064 16.5894C4.8409 16.5385 4.74355 16.4643 4.66537 16.372C4.58718 16.2797 4.53002 16.1715 4.49787 16.0549C4.46572 15.9383 4.45934 15.8161 4.47918 15.6967L4.52418 15.4226Z" fill="#333333"/>
</svg>
