<svg width="20" height="20" viewBox="0 0 20 20" fill="none" xmlns="http://www.w3.org/2000/svg">
<path d="M17.7781 13.9369C15.3693 12.4134 12.5899 11.5898 9.7281 11.5898H9.62516C6.76339 11.5898 3.98398 12.3928 1.57516 13.9369C1.12222 14.2251 0.833984 14.7398 0.833984 15.2957V17.5398C0.833984 18.4251 1.55457 19.1663 2.43987 19.1663H16.934C17.8193 19.1663 18.5399 18.4457 18.5399 17.5398V15.2957C18.5399 14.7398 18.2516 14.2251 17.7781 13.9369ZM17.3046 17.5398C17.3046 17.7457 17.1399 17.931 16.934 17.931H2.43987C2.23398 17.931 2.06928 17.7663 2.06928 17.5398V15.2957C2.06928 15.1722 2.13104 15.0281 2.25457 14.9663C4.45751 13.5663 7.01045 12.8251 9.62516 12.8251H9.7281C12.3428 12.8251 14.8957 13.5663 17.1193 14.9663C17.2222 15.0281 17.3046 15.1516 17.3046 15.2957V17.5398Z" fill="#333333"/>
<path d="M10.0581 10.7248C11.7875 10.7248 13.1875 9.32483 13.1875 7.61601V4.77484C13.1875 3.06601 11.7875 1.66602 10.0581 1.66602H9.29632C7.5875 1.66602 6.1875 3.06601 6.1875 4.77484V7.59542C6.1875 9.32483 7.5875 10.7248 9.31691 10.7248H10.0581ZM7.42279 7.61601V4.77484C7.42279 3.74543 8.26691 2.90131 9.31691 2.90131H10.0787C11.1081 2.90131 11.9728 3.74543 11.9728 4.77484V7.59542C11.9728 8.62483 11.1287 9.46895 10.0787 9.46895H9.31691C8.26691 9.48954 7.42279 8.64542 7.42279 7.61601Z" fill="#333333"/>
</svg>
