<svg width="20" height="20" viewBox="0 0 20 20" fill="none" xmlns="http://www.w3.org/2000/svg">
    <path d="M17.293 2.70637C17.0182 2.43121 16.5723 2.43121 16.2975 2.70637L2.71105 16.2929C2.43602 16.5678 2.43602 17.0133 2.71105 17.2882C2.84852 17.4258 3.02875 17.4946 3.20887 17.4946C3.38898 17.4946 3.56922 17.4258 3.70656 17.2882L17.293 3.70176C17.5681 3.42684 17.5681 2.98129 17.293 2.70637ZM5.84406 2.5048C4.00023 2.5048 2.5 4.00516 2.5 5.84898C2.5 7.69281 4.00023 9.19305 5.84406 9.19305C7.68801 9.19305 9.18812 7.6927 9.18812 5.84887C9.18812 4.00504 7.68789 2.5048 5.84406 2.5048ZM5.84406 7.78492C4.77648 7.78492 3.90801 6.91633 3.90801 5.84887C3.90801 4.78141 4.7766 3.91281 5.84406 3.91281C6.91164 3.91281 7.78012 4.78141 7.78012 5.84887C7.78012 6.91633 6.91164 7.78492 5.84406 7.78492ZM14.1559 10.8058C12.3121 10.8058 10.8119 12.306 10.8119 14.1498C10.8119 15.9937 12.3121 17.4939 14.1559 17.4939C15.9998 17.4939 17.5 15.9938 17.5 14.1498C17.5 12.3059 15.9998 10.8058 14.1559 10.8058ZM14.1559 16.0858C13.0884 16.0858 12.2199 15.2172 12.2199 14.1497C12.2199 13.0823 13.0885 12.2137 14.1559 12.2137C15.2234 12.2137 16.092 13.0823 16.092 14.1497C16.092 15.2172 15.2235 16.0858 14.1559 16.0858Z" fill="#333333"/>
</svg>
