<svg width="20" height="20" viewBox="0 0 20 20" fill="none" xmlns="http://www.w3.org/2000/svg">
<path d="M9.32663 2.5V4.04062C9.04855 4.14379 8.8016 4.3166 8.60941 4.5425C8.41722 4.76841 8.28622 5.03986 8.22894 5.33088L4.45443 5.8701L4.35814 5.90861H4.33889L4.26186 5.94713C4.25675 5.94713 4.25185 5.94916 4.24824 5.95277C4.24463 5.95638 4.2426 5.96128 4.2426 5.96639L4.16557 6.02416H4.14631L4.08854 6.10119C4.08601 6.10119 4.0835 6.10169 4.08117 6.10266C4.07883 6.10362 4.07671 6.10504 4.07492 6.10683C4.07313 6.10862 4.07171 6.11074 4.07074 6.11308C4.06978 6.11542 4.06928 6.11792 4.06928 6.12045L4.03076 6.17822C4.03076 6.19748 4.03076 6.19748 4.01151 6.19748L0.8725 13.2651C0.850303 13.3402 0.837369 13.4178 0.833984 13.4962C0.833984 14.4819 1.22557 15.4273 1.92259 16.1243C2.61961 16.8213 3.56498 17.2129 4.55072 17.2129C5.53646 17.2129 6.48183 16.8213 7.17885 16.1243C7.87587 15.4273 8.26746 14.4819 8.26746 13.4962C8.26634 13.4157 8.24657 13.3366 8.20969 13.2651L5.3788 6.91001L7.78602 6.56338L8.40226 6.46709C8.54719 6.73841 8.76402 6.96459 9.02898 7.12085C9.29393 7.2771 9.59679 7.3574 9.90436 7.35294C10.2955 7.35317 10.675 7.21958 10.9798 6.97437C11.2846 6.72915 11.4963 6.38706 11.5798 6.0049L14.507 5.58123L11.7916 11.6667C11.7525 11.7442 11.7326 11.8301 11.7338 11.917C11.7338 12.9028 12.1254 13.8481 12.8225 14.5451C13.5195 15.2422 14.4648 15.6338 15.4506 15.6338C16.4363 15.6338 17.3817 15.2422 18.0787 14.5451C18.7757 13.8481 19.1673 12.9028 19.1673 11.917C19.1653 11.8323 19.1524 11.7481 19.1288 11.6667L15.9898 4.61835C15.9442 4.52328 15.8734 4.44251 15.7851 4.3848C15.6969 4.32709 15.5945 4.29464 15.4891 4.29097H15.3736L11.4257 4.8687C11.22 4.48894 10.8853 4.19524 10.4821 4.04062V2.5H9.32663ZM4.55072 7.8729L6.78462 12.9184H2.29757L4.55072 7.8729ZM4.55072 16.0574C3.97133 16.0558 3.40934 15.8593 2.95521 15.4995C2.50108 15.1397 2.18126 14.6376 2.04722 14.0739H7.03496C6.90482 14.636 6.5887 15.1377 6.13782 15.4977C5.68693 15.8577 5.1277 16.0549 4.55072 16.0574ZM9.90436 6.19748C9.83195 6.20007 9.75976 6.18803 9.69209 6.1621C9.62444 6.13616 9.5627 6.09685 9.51057 6.04652C9.45844 5.99619 9.41699 5.93587 9.3887 5.86916C9.3604 5.80245 9.34584 5.73072 9.34589 5.65826C9.34589 5.51015 9.40473 5.3681 9.50946 5.26336C9.6142 5.15863 9.75625 5.09979 9.90436 5.09979C10.0525 5.09979 10.1945 5.15863 10.2993 5.26336C10.404 5.3681 10.4628 5.51015 10.4628 5.65826C10.4629 5.73072 10.4483 5.80245 10.42 5.86916C10.3917 5.93587 10.3503 5.99619 10.2982 6.04652C10.246 6.09685 10.1843 6.13616 10.1166 6.1621C10.049 6.18803 9.97678 6.20007 9.90436 6.19748ZM17.7037 11.3393H13.2167L15.4506 6.27451L17.7037 11.3393ZM15.4506 14.4783C14.8736 14.4758 14.3144 14.2786 13.8635 13.9186C13.4126 13.5586 13.0965 13.0569 12.9663 12.4947H17.9541C17.82 13.0584 17.5002 13.5606 17.0461 13.9204C16.592 14.2802 16.03 14.4767 15.4506 14.4783Z" fill="#333333"/>
</svg>
