<svg width="20" height="20" viewBox="0 0 20 20" fill="none" xmlns="http://www.w3.org/2000/svg">
<rect x="0.5" y="0.5" width="19" height="19" rx="5.5" fill="#FBC100"/>
<path d="M14.424 6.27985L8.65449 12.0493C8.6554 12.0484 6.55349 9.94651 6.55349 9.94651C6.3806 9.77954 6.14905 9.68714 5.9087 9.68923C5.66835 9.69132 5.43844 9.78772 5.26849 9.95768C5.09853 10.1276 5.00212 10.3575 5.00003 10.5979C4.99795 10.8382 5.09034 11.0698 5.25732 11.2427L7.36015 13.3455C8.07515 14.0605 9.23932 14.0578 9.95065 13.3455L15.7202 7.57601C15.8077 7.49145 15.8775 7.39031 15.9256 7.27847C15.9736 7.16663 15.9989 7.04635 16 6.92463C16.001 6.80292 15.9778 6.68221 15.9317 6.56956C15.8856 6.4569 15.8176 6.35455 15.7315 6.26849C15.6454 6.18242 15.5431 6.11435 15.4304 6.06826C15.3178 6.02217 15.1971 5.99898 15.0754 6.00003C14.9537 6.00109 14.8334 6.02638 14.7215 6.07442C14.6097 6.12246 14.5085 6.1923 14.424 6.27985Z" fill="#333333"/>
<rect x="0.5" y="0.5" width="19" height="19" rx="5.5" stroke="#FBC100"/>
</svg>
