<svg width="14" height="14" viewBox="0 0 14 14" fill="none" xmlns="http://www.w3.org/2000/svg">
<path fill-rule="evenodd" clip-rule="evenodd" d="M1.21384 6.99991L7.00395 12.7709L12.7859 6.99991L7.00395 1.22103L1.21384 6.99991ZM6.39688 8.69542H7.61862V9.92428H6.39688V8.69542ZM6.38898 7.8632V4.06771H7.60312V7.8632H6.38898ZM6.32666 0.279966C6.50328 0.0932713 6.72884 0 7.00395 0C7.26842 0 7.49155 0.0932713 7.67304 0.279966L13.7197 6.32323C13.9067 6.49436 14 6.71986 14 6.99991C13.9948 7.27471 13.9015 7.50287 13.7197 7.68433L7.68854 13.6965C7.50189 13.9039 7.27359 14.005 7.00395 13.9998C6.72367 13.9998 6.49294 13.8986 6.31116 13.6965L0.279976 7.68433C0.0933252 7.50287 0 7.27471 0 6.99991C0 6.71986 0.0933252 6.49436 0.279976 6.32323L6.32666 0.279966Z" fill="#FB5252" fill-opacity="0.8"/>
</svg>
