<svg width="24" height="25" viewBox="0 0 24 25" fill="none" xmlns="http://www.w3.org/2000/svg">
<path d="M23.4184 6.66406C23.3902 6.42031 23.2402 6.2 23.0105 6.09219L12.2996 1.1C12.1074 1.01094 11.8871 1.01094 11.6949 1.1L0.988672 6.09688C0.758984 6.20469 0.608984 6.42031 0.580859 6.66875C0.580859 6.67344 0.576172 6.74375 0.576172 6.74375V18.8797C0.576172 19.1703 0.754297 19.4328 1.02617 19.5406L11.7371 23.825C11.8215 23.8578 11.9105 23.8766 12.0043 23.8766C12.098 23.8766 12.1824 23.8578 12.2715 23.825L22.9824 19.5406C23.2543 19.4328 23.4324 19.1703 23.4324 18.8797V6.74375C23.423 6.73906 23.4184 6.66875 23.4184 6.66406ZM11.9996 2.40313C15.0652 3.83281 18.1309 5.2625 21.1965 6.69219C19.9871 7.18906 18.7824 7.68594 17.573 8.18281C14.4371 6.85156 11.3059 5.52031 8.16992 4.18906C9.44492 3.59375 10.7246 2.99844 11.9996 2.40313ZM6.58555 4.925C9.66523 6.23281 12.7449 7.53594 15.8246 8.84375C14.5496 9.35938 13.2746 9.875 11.9996 10.3906C8.92461 9.1625 5.84961 7.93438 2.77461 6.70625C4.04492 6.11562 5.31523 5.52031 6.58555 4.925ZM1.86992 7.7375L11.2777 11.5016V22.2406L1.86992 18.4766V7.7375ZM12.7215 22.2406V11.4969L22.1293 7.73281V18.4719L12.7215 22.2406Z" fill="#333333"/>
</svg>
