<svg width="21" height="20" viewBox="0 0 21 20" fill="none" xmlns="http://www.w3.org/2000/svg">
<path d="M17.7407 16.6369L17.7339 16.7521L17.6938 16.7737L17.6804 16.7726L17.6365 16.7765C17.6165 16.7784 17.5965 16.7784 17.5765 16.7765L17.5541 16.7745H17.5315H17.3898C15.1258 16.7745 11.433 15.5274 8.44291 12.5455C5.45402 9.56469 4.1757 5.73376 4.21476 3.49156L4.21544 3.45278L4.21013 3.41436C4.20876 3.40451 4.20876 3.39452 4.21013 3.38468L4.22024 3.31154L4.21991 3.30945L4.23216 3.29319L4.24715 3.2674C4.2487 3.26473 4.25029 3.26208 4.25191 3.25946C4.26976 3.2467 4.28822 3.23479 4.30723 3.22378L4.30723 3.22378L4.30844 3.22307L4.37524 3.18411C4.40794 3.17291 4.44223 3.16685 4.47688 3.16619H7.99817V3.16629L8.00825 3.16608C8.08624 3.16451 8.1623 3.19033 8.22321 3.23906C8.28376 3.2875 8.32552 3.35554 8.34131 3.43143L8.92423 6.39599L8.92457 6.39769C8.93529 6.45124 8.93269 6.50661 8.917 6.55892C8.9014 6.61094 8.87332 6.65835 8.83522 6.69703C8.835 6.69725 8.83479 6.69747 8.83457 6.69769L6.76962 8.76263L6.49225 9.04L6.69562 9.37542C7.2987 10.3701 8.01649 11.2905 8.83426 12.1177L8.83423 12.1177L8.83833 12.1218C9.66556 12.9395 10.586 13.6573 11.5806 14.2604L11.9202 14.4663L12.1977 14.1821L14.2274 12.1025C14.2657 12.0652 14.3125 12.0377 14.3638 12.0224C14.4161 12.0067 14.4715 12.0041 14.525 12.0148L14.5262 12.015L17.4733 12.5978C17.4736 12.5978 17.474 12.5979 17.4744 12.598C17.5504 12.6138 17.6185 12.6555 17.667 12.7162C17.7157 12.7771 17.7415 12.8531 17.7399 12.9311L17.7398 12.9311V12.9412V16.5079V16.5225L17.7407 16.5372C17.7427 16.5704 17.7427 16.6037 17.7407 16.6369ZM8.05067 6.54579L8.24093 6.35666L8.18855 6.09355L7.82188 4.25189L7.74177 3.84952H7.33151H5.34817H4.77741L4.85252 4.41532C5.00799 5.58641 5.34298 6.72656 5.8457 7.79562L6.14757 8.43756L6.65067 7.93746L8.05067 6.54579ZM14.8625 12.7675L14.6003 12.7153L14.4113 12.9043L13.0196 14.296L12.5169 14.7986L13.16 15.1018C14.2287 15.6056 15.3681 15.9433 16.5388 16.1033L17.1065 16.1808V15.6079V13.6245V13.2143L16.7041 13.1341L14.8625 12.7675Z" stroke="#BABAC0"/>
</svg>
