<svg width="42" height="42" viewBox="0 0 42 42" fill="none" xmlns="http://www.w3.org/2000/svg">
<rect x="4" y="4" width="34" height="34" rx="17" fill="#FF1616" fill-opacity="0.05"/>
<path fill-rule="evenodd" clip-rule="evenodd" d="M16.5427 14.0711L21.2379 19.1385L25.9044 14.0711C26.3911 13.5558 27.1927 13.5271 27.7081 14.0138C28.2234 14.4719 28.252 15.3021 27.7653 15.8175L22.9556 20.9993L27.7653 26.1812C28.252 26.6966 28.2234 27.4982 27.7081 27.9849C27.1927 28.4716 26.3911 28.4429 25.9044 27.9276L21.2379 22.8602L16.5427 27.9276C16.056 28.4429 15.2544 28.4716 14.7391 27.9849C14.2237 27.4982 14.1951 26.6966 14.6818 26.1812L19.4915 20.9993L14.6818 15.8175C14.1951 15.3021 14.2237 14.4719 14.7391 14.0138C15.2544 13.5271 16.056 13.5558 16.5427 14.0711Z" fill="#FF1616"/>
<rect x="5" y="5" width="32" height="32" rx="16" stroke="#FF1616" stroke-opacity="0.5" stroke-width="2"/>
</svg>
