<svg width="12" height="12" viewBox="0 0 12 12" fill="none" xmlns="http://www.w3.org/2000/svg">
<g clip-path="url(#clip0_8376_30024)">
<path d="M0.797404 11.2213C0.983267 11.4072 1.22473 11.5 1.4478 11.5C1.67074 11.5 1.93088 11.4071 2.09807 11.2213L6.00008 7.31933L9.90209 11.2213C10.088 11.4072 10.3294 11.5 10.5525 11.5C10.7754 11.5 11.0356 11.4071 11.2028 11.2213C11.5743 10.8498 11.5743 10.2737 11.2028 9.90202L7.30075 6.00001L11.2028 2.09801C11.5743 1.72642 11.5743 1.15041 11.2028 0.77869C10.8312 0.407103 10.2552 0.407103 9.88344 0.77869L5.98143 4.6807L2.09801 0.815852C1.72642 0.444265 1.15041 0.444265 0.77869 0.815852C0.407103 1.18744 0.407103 1.76345 0.77869 2.13517L4.6807 6.03718L0.797271 9.9206C0.425684 10.2735 0.425684 10.8682 0.797271 11.2212L0.797404 11.2213Z" fill="#FF1616"/>
</g>
<defs>
<clipPath id="clip0_8376_30024">
<rect width="12" height="12" fill="white"/>
</clipPath>
</defs>
</svg>
