<svg width="25" height="24" viewBox="0 0 25 24" fill="none" xmlns="http://www.w3.org/2000/svg">
<path fill-rule="evenodd" clip-rule="evenodd" d="M1.5 2.10002C1.5 1.4925 1.9925 1 2.60002 1H5.55601C6.07688 1 6.52635 1.36532 6.6328 1.8752L7.36874 5.40007H21.3003C22.5154 5.40007 23.5004 6.38506 23.5004 7.60011V12.3577C23.5004 13.3992 22.7702 14.2979 21.7507 14.5112L9.79709 17.0113C8.6077 17.26 7.44187 16.4975 7.19321 15.308L4.66193 3.20004H2.60002C1.9925 3.20004 1.5 2.70754 1.5 2.10002ZM9.11866 13.7815C9.24285 14.3763 9.8258 14.7578 10.4206 14.6335L20.4255 12.5416C20.9351 12.435 21.3003 11.9855 21.3003 11.4648V8.70012C21.3003 8.09261 20.8078 7.60011 20.2003 7.60011H7.82807L9.11866 13.7815Z" fill="#BABAC0"/>
<path d="M8.50003 23.0001C9.60462 23.0001 10.5001 22.1046 10.5001 21C10.5001 19.8954 9.60462 19 8.50003 19C7.39544 19 6.5 19.8954 6.5 21C6.5 22.1046 7.39544 23.0001 8.50003 23.0001Z" fill="#BABAC0"/>
<path d="M18.5 23.0001C19.6046 23.0001 20.5001 22.1046 20.5001 21C20.5001 19.8954 19.6046 19 18.5 19C17.3954 19 16.5 19.8954 16.5 21C16.5 22.1046 17.3954 23.0001 18.5 23.0001Z" fill="#BABAC0"/>
</svg>
