<svg width="25" height="24" viewBox="0 0 25 24" fill="none" xmlns="http://www.w3.org/2000/svg">
<path d="M14.7686 13.299C16.8229 13.299 18.4882 11.6337 18.4882 9.57939C18.4882 7.52512 16.8229 5.8598 14.7686 5.8598C12.7143 5.8598 11.049 7.52512 11.049 9.57939C11.049 11.6337 12.7143 13.299 14.7686 13.299ZM19.116 13.0767L23.4781 17.4388C23.8401 17.8008 23.8418 18.3862 23.4761 18.7519C23.113 19.115 22.5245 19.1153 22.163 18.7538L17.7226 14.3135C16.866 14.8492 15.8534 15.1588 14.7686 15.1588C11.6872 15.1588 9.18919 12.6608 9.18919 9.57939C9.18919 6.49798 11.6872 4 14.7686 4C17.85 4 20.348 6.49798 20.348 9.57939C20.348 10.9036 19.8867 12.12 19.116 13.0767ZM1.75 7.25465C1.75 6.74108 2.06596 6.32475 2.44535 6.32475H6.63404C7.01807 6.32475 7.32939 6.7375 7.32939 7.25465C7.32939 7.76821 7.01343 8.18454 6.63404 8.18454H2.44535C2.06132 8.18454 1.75 7.7718 1.75 7.25465ZM1.75 12.834C1.75 12.3205 2.06596 11.9041 2.44535 11.9041H6.63404C7.01807 11.9041 7.32939 12.3169 7.32939 12.834C7.32939 13.3476 7.01343 13.7639 6.63404 13.7639H2.44535C2.06132 13.7639 1.75 13.3512 1.75 12.834ZM1.75 18.4134C1.75 17.8999 2.0559 17.4835 2.44655 17.4835H15.6994C16.084 17.4835 16.3959 17.8963 16.3959 18.4134C16.3959 18.927 16.09 19.3433 15.6994 19.3433H2.44655C2.06186 19.3433 1.75 18.9306 1.75 18.4134Z" fill="#333333"/>
</svg>
