<svg width="14" height="14" viewBox="0 0 14 14" fill="none" xmlns="http://www.w3.org/2000/svg">
<rect x="0.5" y="0.5" width="13" height="13" rx="6.5" fill="white"/>
<path d="M7.46933 6.99974L9.236 5.2364C9.29876 5.17364 9.33403 5.0885 9.33403 4.99974C9.33403 4.91097 9.29876 4.82584 9.236 4.76307C9.17323 4.7003 9.0881 4.66504 8.99933 4.66504C8.91056 4.66504 8.82543 4.7003 8.76266 4.76307L6.99933 6.52974L5.236 4.76307C5.17323 4.7003 5.0881 4.66504 4.99933 4.66504C4.91056 4.66504 4.82543 4.7003 4.76266 4.76307C4.69989 4.82584 4.66463 4.91097 4.66463 4.99974C4.66463 5.0885 4.69989 5.17364 4.76266 5.2364L6.52933 6.99974L4.76266 8.76307C4.73142 8.79406 4.70662 8.83092 4.6897 8.87154C4.67278 8.91216 4.66406 8.95573 4.66406 8.99974C4.66406 9.04374 4.67278 9.08731 4.6897 9.12793C4.70662 9.16855 4.73142 9.20541 4.76266 9.2364C4.79365 9.26764 4.83052 9.29244 4.87114 9.30937C4.91176 9.32629 4.95532 9.335 4.99933 9.335C5.04333 9.335 5.0869 9.32629 5.12752 9.30937C5.16814 9.29244 5.20501 9.26764 5.236 9.2364L6.99933 7.46974L8.76266 9.2364C8.79365 9.26764 8.83052 9.29244 8.87114 9.30937C8.91176 9.32629 8.95532 9.335 8.99933 9.335C9.04333 9.335 9.0869 9.32629 9.12752 9.30937C9.16814 9.29244 9.20501 9.26764 9.236 9.2364C9.26724 9.20541 9.29204 9.16855 9.30896 9.12793C9.32588 9.08731 9.33459 9.04374 9.33459 8.99974C9.33459 8.95573 9.32588 8.91216 9.30896 8.87154C9.29204 8.83092 9.26724 8.79406 9.236 8.76307L7.46933 6.99974Z" fill="#BABAC0"/>
<rect x="0.5" y="0.5" width="13" height="13" rx="6.5" stroke="#ECECEC"/>
</svg>
