<svg width="21" height="22" viewBox="0 0 21 22" fill="none" xmlns="http://www.w3.org/2000/svg">
<path d="M3.4013 5.67101C3.4013 5.25523 3.56224 4.85647 3.8487 4.56247C4.13517 4.26846 4.5237 4.10329 4.92882 4.10329H7.73946C7.8797 3.3945 8.25438 2.75726 8.80002 2.29955C9.34566 1.84184 10.0287 1.5918 10.7334 1.5918C11.4381 1.5918 12.1212 1.84184 12.6668 2.29955C13.2124 2.75726 13.5871 3.3945 13.7274 4.10329H16.538C16.9167 4.10654 17.2807 4.25404 17.5594 4.51715C17.8381 4.78027 18.0116 5.14025 18.0463 5.52726C18.081 5.91427 17.9744 6.30072 17.7472 6.61163C17.52 6.92254 17.1883 7.13575 16.8166 7.20989L16.3248 17.8001C16.2933 18.5032 15.9987 19.1667 15.5025 19.6524C15.0062 20.1381 14.3465 20.4086 13.6608 20.4076H7.80606C7.12031 20.4086 6.4606 20.1381 5.96434 19.6524C5.46808 19.1667 5.17354 18.5032 5.14207 17.8001L4.65326 7.20989C4.30231 7.14383 3.98497 6.95376 3.75628 6.67267C3.5276 6.39158 3.40201 6.0372 3.4013 5.67101ZM10.7334 2.84912C10.3556 2.85072 9.98759 2.97208 9.6796 3.19658C9.37161 3.42108 9.13873 3.73776 9.01281 4.10329H12.454C12.3281 3.73776 12.0952 3.42108 11.7872 3.19658C11.4792 2.97208 11.1112 2.85072 10.7334 2.84912ZM6.36286 17.7412C6.37986 18.1221 6.53942 18.4815 6.80829 18.7446C7.07715 19.0077 7.43458 19.1541 7.80606 19.1534H13.6608C14.0322 19.1541 14.3897 19.0077 14.6585 18.7446C14.9274 18.4815 15.087 18.1221 15.104 17.7412L15.5915 7.23873H5.8765L6.36286 17.7412ZM4.92882 5.98456H16.538C16.619 5.98456 16.6967 5.95152 16.754 5.89272C16.8113 5.83392 16.8435 5.75417 16.8435 5.67101C16.8435 5.58786 16.8113 5.5081 16.754 5.4493C16.6967 5.3905 16.619 5.35747 16.538 5.35747H4.92882C4.8478 5.35747 4.77009 5.3905 4.7128 5.4493C4.65551 5.5081 4.62332 5.58786 4.62332 5.67101C4.62332 5.75417 4.65551 5.83392 4.7128 5.89272C4.77009 5.95152 4.8478 5.98456 4.92882 5.98456Z" fill="#767676"/>
<path d="M12.5667 16.6442C12.4047 16.6442 12.2493 16.5781 12.1347 16.4605C12.0201 16.3429 11.9557 16.1834 11.9557 16.0171V9.74623C11.9557 9.57991 12.0201 9.42041 12.1347 9.30281C12.2493 9.18521 12.4047 9.11914 12.5667 9.11914C12.7288 9.11914 12.8842 9.18521 12.9988 9.30281C13.1134 9.42041 13.1777 9.57991 13.1777 9.74623V16.0171C13.1777 16.1834 13.1134 16.3429 12.9988 16.4605C12.8842 16.5781 12.7288 16.6442 12.5667 16.6442Z" fill="#767676"/>
<path d="M8.90071 16.6442C8.73866 16.6442 8.58325 16.5781 8.46866 16.4605C8.35407 16.3429 8.2897 16.1834 8.2897 16.0171V9.74623C8.2897 9.57991 8.35407 9.42041 8.46866 9.30281C8.58325 9.18521 8.73866 9.11914 8.90071 9.11914C9.06276 9.11914 9.21817 9.18521 9.33276 9.30281C9.44735 9.42041 9.51172 9.57991 9.51172 9.74623V16.0171C9.51172 16.1834 9.44735 16.3429 9.33276 16.4605C9.21817 16.5781 9.06276 16.6442 8.90071 16.6442Z" fill="#767676"/>
</svg>
