<svg width="20" height="20" viewBox="0 0 20 20" fill="none" xmlns="http://www.w3.org/2000/svg">
<path d="M10.3155 1.79572C10.1396 1.62278 9.85727 1.62278 9.68138 1.79572L5.90935 5.46148V4.42366C5.90935 4.17177 5.70593 3.96856 5.45425 3.96856C5.20236 3.96856 4.99916 4.17198 4.99916 4.42366V6.34459L0.972065 10.253C0.8385 10.3833 0.799126 10.5777 0.865806 10.7506C0.93566 10.9235 1.10246 11.0359 1.28768 11.0359H3.53017V17.169C3.53017 17.4209 3.73359 17.6241 3.98527 17.6241H16.0146C16.2665 17.6241 16.4697 17.4207 16.4697 17.169V11.0359H18.7122C18.8972 11.0359 19.0642 10.9238 19.1341 10.7506C19.2039 10.5777 19.1614 10.3834 19.0278 10.253L10.3155 1.79572ZM7.76954 16.7139V11.036H12.2304V16.7139H7.76954ZM16.0144 10.1256C15.7625 10.1256 15.5593 10.329 15.5593 10.5807V16.7138H13.1407V10.5807C13.1407 10.3288 12.9372 10.1256 12.6856 10.1256H7.31431C7.06242 10.1256 6.85922 10.329 6.85922 10.5807V16.7138H4.44061L4.4404 10.5807C4.4404 10.3288 4.23698 10.1256 3.9853 10.1256H2.41047L9.9996 2.75757L17.5887 10.1283H16.0139L16.0144 10.1256Z" fill="black"/>
<path d="M11.2356 13.4976C11.2112 13.4824 11.1839 13.4674 11.1566 13.4551C11.1293 13.443 11.099 13.4369 11.0717 13.4308C10.9231 13.4005 10.7652 13.449 10.659 13.5552C10.6378 13.5764 10.6196 13.5978 10.6043 13.6219C10.5861 13.6492 10.5741 13.6736 10.5618 13.7009C10.5497 13.7282 10.5406 13.7584 10.5345 13.7889C10.5284 13.8162 10.5254 13.8465 10.5254 13.877C10.5254 13.9377 10.5375 13.9953 10.5618 14.0499C10.583 14.1045 10.6164 14.1562 10.659 14.1985C10.7015 14.241 10.7529 14.2743 10.8076 14.2957C10.8622 14.32 10.9197 14.3321 10.9805 14.3321C11.1018 14.3321 11.2171 14.2836 11.3052 14.1985C11.3478 14.156 11.381 14.1045 11.4024 14.0499C11.4267 13.9953 11.4358 13.9377 11.4358 13.877C11.4358 13.7557 11.3873 13.6403 11.3054 13.5552C11.284 13.5341 11.2597 13.5129 11.2356 13.4977L11.2356 13.4976Z" fill="black"/>
</svg>
