<svg width="32" height="32" viewBox="0 0 32 32" fill="none" xmlns="http://www.w3.org/2000/svg">
<rect width="32" height="32" rx="6" fill="#F7F7F7"/>
<path d="M15.7 27C15.5453 26.9995 15.3952 26.9478 15.273 26.853C15 26.622 8 21.155 8 13.7C8 11.6578 8.81125 9.69931 10.2553 8.25528C11.6993 6.81125 13.6578 6 15.7 6C17.7422 6 19.7007 6.81125 21.1447 8.25528C22.5888 9.69931 23.4 11.6578 23.4 13.7C23.4 21.155 16.4 26.622 16.127 26.853C16.0048 26.9478 15.8547 26.9995 15.7 27ZM15.7 7.4C14.0291 7.4 12.4267 8.06375 11.2452 9.24523C10.0637 10.4267 9.4 12.0291 9.4 13.7C9.4 19.454 14.216 24.095 15.7 25.39C17.184 24.095 22 19.454 22 13.7C22 12.0291 21.3363 10.4267 20.1548 9.24523C18.9733 8.06375 17.3709 7.4 15.7 7.4Z" fill="#333333"/>
<path d="M15.7008 18.6008C14.7317 18.6008 13.7843 18.3134 12.9785 17.775C12.1727 17.2366 11.5446 16.4713 11.1738 15.5759C10.8029 14.6806 10.7059 13.6953 10.8949 12.7448C11.084 11.7943 11.5507 10.9212 12.236 10.236C12.9212 9.55068 13.7943 9.084 14.7448 8.89494C15.6953 8.70587 16.6806 8.8029 17.5759 9.17377C18.4713 9.54464 19.2366 10.1727 19.775 10.9785C20.3134 11.7843 20.6008 12.7317 20.6008 13.7008C20.6008 15.0003 20.0845 16.2467 19.1656 17.1656C18.2467 18.0845 17.0003 18.6008 15.7008 18.6008ZM15.7008 10.2008C15.0085 10.2008 14.3319 10.4061 13.7563 10.7906C13.1807 11.1752 12.7321 11.7219 12.4672 12.3614C12.2023 13.0009 12.133 13.7047 12.268 14.3836C12.4031 15.0625 12.7364 15.6862 13.2259 16.1757C13.7154 16.6651 14.339 16.9985 15.018 17.1335C15.6969 17.2686 16.4006 17.1993 17.0402 16.9344C17.6797 16.6695 18.2263 16.2209 18.6109 15.6453C18.9955 15.0697 19.2008 14.393 19.2008 13.7008C19.2008 12.7725 18.832 11.8823 18.1757 11.2259C17.5193 10.5695 16.629 10.2008 15.7008 10.2008Z" fill="#FBC100"/>
</svg>
