<svg width="7" height="12" viewBox="0 0 7 12" fill="none" xmlns="http://www.w3.org/2000/svg">
<g id="Layer 2">
<g id="Layer 1">
<path id="Vector" d="M1.14 11.25C1.04129 11.2506 0.943447 11.2317 0.852069 11.1943C0.760691 11.157 0.677579 11.102 0.607499 11.0325C0.537203 10.9628 0.481407 10.8798 0.44333 10.7884C0.405254 10.697 0.385651 10.599 0.385651 10.5C0.385651 10.401 0.405254 10.303 0.44333 10.2116C0.481407 10.1202 0.537203 10.0372 0.607499 9.9675L4.5825 6L0.607499 2.0325C0.53757 1.96257 0.4821 1.87956 0.444254 1.78819C0.406409 1.69682 0.38693 1.5989 0.38693 1.5C0.38693 1.40111 0.406409 1.30318 0.444254 1.21181C0.4821 1.12045 0.53757 1.03743 0.607499 0.967502C0.677428 0.897573 0.760446 0.842102 0.851812 0.804257C0.943179 0.766412 1.0411 0.746933 1.14 0.746933C1.23889 0.746933 1.33682 0.766412 1.42819 0.804257C1.51955 0.842102 1.60257 0.897573 1.6725 0.967502L6.1725 5.4675C6.24279 5.53722 6.29859 5.62017 6.33667 5.71157C6.37474 5.80296 6.39435 5.90099 6.39435 6C6.39435 6.09901 6.37474 6.19704 6.33667 6.28843C6.29859 6.37983 6.24279 6.46278 6.1725 6.5325L1.6725 11.0325C1.60242 11.102 1.51931 11.157 1.42793 11.1943C1.33655 11.2317 1.2387 11.2506 1.14 11.25Z" fill="#333333"/>
</g>
</g>
</svg>
