<svg width="100" height="100" viewBox="0 0 100 100" fill="none" xmlns="http://www.w3.org/2000/svg">
<path d="M40.1257 73.6661C39.0326 73.6615 37.9851 73.2275 37.209 72.4578L17.8757 53.1244C17.0997 52.3437 16.6641 51.2877 16.6641 50.1869C16.6641 49.0861 17.0997 48.0301 17.8757 47.2494C18.263 46.8589 18.7239 46.5489 19.2316 46.3374C19.7394 46.1258 20.284 46.0169 20.834 46.0169C21.3841 46.0169 21.9287 46.1258 22.4364 46.3374C22.9442 46.5489 23.405 46.8589 23.7924 47.2494L40.1257 63.6244L76.209 27.5411C76.5964 27.1506 77.0572 26.8406 77.565 26.629C78.0727 26.4175 78.6173 26.3086 79.1674 26.3086C79.7174 26.3086 80.262 26.4175 80.7698 26.629C81.2775 26.8406 81.7383 27.1506 82.1257 27.5411C82.9017 28.3218 83.3373 29.3778 83.3373 30.4786C83.3373 31.5794 82.9017 32.6354 82.1257 33.4161L43.084 72.4578C42.6947 72.8439 42.233 73.1495 41.7253 73.3568C41.2177 73.5642 40.6741 73.6693 40.1257 73.6661Z" fill="#FBC100"/>
</svg>
