<svg width="18" height="19" viewBox="0 0 18 19" fill="none" xmlns="http://www.w3.org/2000/svg">
<path d="M9.00148 12.4898V12.4898L8.99685 12.4898C8.95079 12.4901 8.90512 12.4812 8.86248 12.4638C8.82003 12.4465 8.7814 12.421 8.74878 12.3887C8.74864 12.3886 8.74849 12.3884 8.74835 12.3883L4.24951 7.88944C4.21672 7.85666 4.19071 7.81774 4.17297 7.7749C4.15523 7.73206 4.14609 7.68615 4.14609 7.63979C4.14609 7.59342 4.15523 7.54751 4.17297 7.50467C4.19071 7.46184 4.21672 7.42292 4.24951 7.39013C4.28229 7.35734 4.32121 7.33134 4.36405 7.31359C4.40689 7.29585 4.4528 7.28672 4.49916 7.28672C4.54553 7.28672 4.59144 7.29585 4.63428 7.31359C4.67706 7.33132 4.71594 7.35728 4.74871 7.39002C4.74874 7.39005 4.74878 7.39009 4.74882 7.39013L8.71605 11.3649L8.99916 11.6485L9.28227 11.3649L13.2495 7.39013C13.2496 7.39007 13.2496 7.39002 13.2497 7.38996C13.3159 7.32385 13.4056 7.28672 13.4992 7.28672C13.5928 7.28672 13.6826 7.32392 13.7488 7.39013C13.815 7.45634 13.8522 7.54615 13.8522 7.63979C13.8522 7.73343 13.815 7.82323 13.7488 7.88944L9.24997 12.3883C9.24983 12.3884 9.24968 12.3886 9.24954 12.3887C9.21693 12.421 9.17829 12.4465 9.13584 12.4638C9.0932 12.4812 9.04754 12.4901 9.00148 12.4898Z" stroke="#333333" stroke-width="0.8"/>
</svg>
