<svg width="19" height="18" viewBox="0 0 19 18" fill="none" xmlns="http://www.w3.org/2000/svg">
<path d="M9.31948 12.3898C9.22077 12.3904 9.12292 12.3714 9.03155 12.3341C8.94017 12.2968 8.85706 12.2418 8.78698 12.1723L4.28698 7.67229C4.21705 7.60236 4.16158 7.51934 4.12373 7.42797C4.08589 7.33661 4.06641 7.23868 4.06641 7.13979C4.06641 7.04089 4.08589 6.94297 4.12373 6.8516C4.16158 6.76023 4.21705 6.67722 4.28698 6.60729C4.3569 6.53736 4.43992 6.48189 4.53129 6.44404C4.62265 6.4062 4.72058 6.38672 4.81948 6.38672C4.91837 6.38672 5.0163 6.4062 5.10766 6.44404C5.19903 6.48189 5.28205 6.53736 5.35198 6.60729L9.31948 10.5823L13.287 6.60729C13.4282 6.46606 13.6197 6.38672 13.8195 6.38672C14.0192 6.38672 14.2107 6.46606 14.352 6.60729C14.4932 6.74852 14.5725 6.94006 14.5725 7.13979C14.5725 7.33951 14.4932 7.53106 14.352 7.67229L9.85198 12.1723C9.7819 12.2418 9.69878 12.2968 9.60741 12.3341C9.51603 12.3714 9.41818 12.3904 9.31948 12.3898Z" fill="#333333"/>
</svg>
