<svg width="20" height="20" viewBox="0 0 20 20" fill="none" xmlns="http://www.w3.org/2000/svg">
<path d="M18.6904 12.8777C19.005 11.9458 19.1661 10.9689 19.1673 9.98537C19.1633 8.22624 18.6536 6.50537 17.6988 5.02789C16.744 3.55041 15.3845 2.37866 13.7823 1.65233C12.1801 0.925997 10.4029 0.675722 8.66239 0.93134C6.92192 1.18696 5.29168 1.93769 3.966 3.09403C3.93498 3.10267 3.90592 3.1172 3.88039 3.13683V3.17964C2.61704 4.30305 1.6924 5.75685 1.21058 7.37733C0.728754 8.99781 0.708886 10.7206 1.15321 12.3518C1.15321 12.3518 1.15321 12.3824 1.15321 12.4007C1.15321 12.4191 1.15321 12.4007 1.15321 12.4374C1.63914 14.1847 2.63218 15.7488 4.00681 16.9318C5.38144 18.1149 7.07595 18.8639 8.87616 19.0842H8.91896C9.27591 19.1301 9.63529 19.1546 9.99516 19.1575C11.9095 19.1561 13.7755 18.5557 15.3315 17.4405C16.8875 16.3253 18.0556 14.7512 18.672 12.9388L18.6904 12.8777ZM17.9444 9.98537C17.9449 10.7516 17.8337 11.5138 17.6142 12.2478L17.339 12.3701C16.7216 12.0867 16.2191 11.6015 15.9143 10.9943C15.8368 10.7742 15.8081 10.5398 15.8303 10.3075C15.8525 10.0752 15.9249 9.85055 16.0427 9.64906C16.288 9.25058 16.443 8.8032 16.4969 8.33838C16.5507 7.87357 16.5022 7.40259 16.3545 6.95856C16.1331 6.43416 15.7197 6.01418 15.1988 5.78453C14.8657 5.54517 14.4581 5.43243 14.0493 5.46656C13.0525 5.52159 11.9152 6.31651 10.7412 7.77183C9.90956 8.80522 8.90673 9.17211 7.83054 8.80522C7.20729 8.56077 6.67211 8.13428 6.29473 7.5813C5.91736 7.02833 5.71528 6.37451 5.71483 5.70504C5.73614 4.99129 5.55145 4.2865 5.18284 3.67493C6.36035 2.77932 7.76443 2.23007 9.2371 2.08898C10.7098 1.9479 12.1926 2.22057 13.5187 2.87633C14.8449 3.53209 15.9617 4.54492 16.7435 5.80084C17.5254 7.05677 17.9413 8.50597 17.9444 9.98537ZM2.56572 12.7921C2.69619 12.8174 2.82068 12.8671 2.93261 12.9388C3.35524 13.2305 3.68441 13.6382 3.88039 14.1128C4.44907 15.2685 5.10335 15.6721 7.17626 14.8344C7.78773 14.5837 8.08124 14.7794 8.24022 14.9506C8.73552 15.4764 8.8517 16.7544 8.53373 17.7939C7.19346 17.5421 5.9405 16.9498 4.89532 16.0738C3.85014 15.1978 3.0479 14.0677 2.56572 12.7921ZM9.99516 17.9346H9.74446C10.0808 16.626 9.96459 15.0178 9.13298 14.119C8.82969 13.8014 8.43213 13.59 7.99926 13.5163C7.56638 13.4425 7.12125 13.5101 6.72988 13.7093C5.31737 14.2718 5.26233 14.1556 4.98105 13.587C4.70055 12.9153 4.22841 12.341 3.62357 11.936C3.21077 11.655 2.71528 11.5214 2.21718 11.5569C2.10974 11.0398 2.05241 10.5135 2.04596 9.98537C2.04619 7.94843 2.83256 5.99016 4.24117 4.51877C4.41309 4.89024 4.4988 5.29577 4.49187 5.70504C4.49236 6.63127 4.77294 7.53571 5.29675 8.2996C5.82056 9.0635 6.56313 9.65114 7.42696 9.98537C8.974 10.5296 10.5333 9.98537 11.7073 8.55452C13.3033 6.5611 14.2572 6.60391 14.4651 6.77512C14.5329 6.84083 14.6143 6.89092 14.7035 6.92188C14.9429 7.02281 15.1352 7.21071 15.2416 7.44775C15.3118 7.73108 15.3235 8.02572 15.2762 8.31375C15.2289 8.60177 15.1235 8.87717 14.9665 9.12319C14.7707 9.47568 14.653 9.86614 14.6213 10.2681C14.5897 10.6701 14.6448 11.0741 14.783 11.4529C15.2549 12.4343 16.0742 13.2056 17.0822 13.6175C16.4131 14.9201 15.3973 16.0125 14.1467 16.7742C12.8961 17.536 11.4595 17.9375 9.99516 17.9346ZM13.1382 11.9054C12.8324 11.883 12.5254 11.9259 12.2376 12.0313C11.9498 12.1367 11.6877 12.3023 11.4688 12.5169C11.284 12.6102 11.1259 12.7489 11.0093 12.92C10.8927 13.0912 10.8215 13.2891 10.8023 13.4953C10.7473 14.3819 11.7807 15.1462 12.1048 15.3297C12.1976 15.4163 12.3152 15.4719 12.4411 15.4887C12.5074 15.4874 12.5732 15.4772 12.6367 15.4581C13.3345 15.2349 13.9207 14.7537 14.2755 14.1128C14.3629 13.897 14.4017 13.6645 14.389 13.432C14.3763 13.1995 14.3125 12.9726 14.2021 12.7676C14.1105 12.5467 13.9652 12.3522 13.7795 12.2016C13.5937 12.0511 13.3732 11.9492 13.1382 11.9054ZM13.1382 13.642C12.9942 13.8782 12.7806 14.0641 12.5267 14.174C12.3303 14.0255 12.1643 13.8408 12.0375 13.6298L12.1048 13.587C12.1628 13.5581 12.2163 13.5211 12.2637 13.4769C12.4445 13.2846 12.6826 13.1559 12.9425 13.11C13.0159 13.11 13.0954 13.269 13.1198 13.3179C13.1515 13.3673 13.1714 13.4234 13.1777 13.4818C13.1841 13.5401 13.1768 13.5992 13.1565 13.6542L13.1382 13.642Z" fill="#333333"/>
</svg>
