<svg width="64" height="64" viewBox="0 0 64 64" fill="none" xmlns="http://www.w3.org/2000/svg">
<path d="M60.8169 59.1161L45.2265 43.5221C53.9312 33.9293 53.6556 19.0864 44.3958 9.82568C39.6227 5.05257 33.3672 2.66602 27.1098 2.66602C20.8543 2.66602 14.5987 5.05257 9.82568 9.82568C0.27946 19.3719 0.27946 34.8496 9.82568 44.3958C14.5979 49.1689 20.8552 51.5536 27.1098 51.5536C32.9804 51.5536 38.8492 49.4536 43.497 45.2498L59.2343 60.9871L59.2451 60.9746C59.4671 61.1967 59.7715 61.3327 60.1098 61.3327C60.7849 61.3327 61.3327 60.7849 61.3327 60.1117C61.3326 59.6997 61.1285 59.3363 60.8169 59.1161ZM27.1098 49.1116C24.2524 49.1116 21.4665 48.5673 18.8303 47.5003C16.1026 46.3939 13.6543 44.7682 11.5533 42.6664C9.45317 40.5663 7.82665 38.1188 6.72114 35.3903C5.6523 32.7549 5.10986 29.9691 5.10986 27.1107C5.10986 24.2515 5.6523 21.4666 6.72114 18.8303C7.82665 16.1026 9.45329 13.6552 11.5533 11.5542C13.6543 9.45317 16.1026 7.82757 18.8303 6.72114C21.4657 5.6523 24.2515 5.11067 27.1098 5.11067C29.969 5.11067 32.7549 5.6523 35.3903 6.72114C38.1188 7.82757 40.5644 9.45317 42.6663 11.5542C44.7682 13.6551 46.3938 16.1026 47.5003 18.8303C48.5673 21.4666 49.1098 24.2515 49.1098 27.1107C49.1098 29.969 48.5673 32.7549 47.5003 35.3903C46.3939 38.1188 44.7682 40.5663 42.6663 42.6664C40.5644 44.7682 38.117 46.3938 35.3903 47.5003C32.7549 48.5673 29.969 49.1116 27.1098 49.1116Z" fill="#BABAC0"/>
<path d="M32.0002 33.2219C32.6752 33.2219 33.2212 32.675 33.2212 31.9999V28.3333C33.2212 27.6582 32.6751 27.1113 32.0002 27.1113C31.3253 27.1113 30.7773 27.6582 30.7773 28.3333V31.9999C30.7773 32.675 31.3252 33.2219 32.0002 33.2219Z" fill="#FBC100"/>
<path d="M27.1106 33.2219C27.7856 33.2219 28.3334 32.675 28.3334 31.9999V28.3333C28.3334 27.6582 27.7856 27.1113 27.1106 27.1113C26.4356 27.1113 25.8887 27.6582 25.8887 28.3333V31.9999C25.8887 32.675 26.4357 33.2219 27.1106 33.2219Z" fill="#FBC100"/>
<path d="M22.222 33.2219C22.8971 33.2219 23.444 32.675 23.444 31.9999V28.3333C23.444 27.6582 22.8971 27.1113 22.222 27.1113C21.547 27.1113 21 27.6582 21 28.3333V31.9999C21 32.675 21.547 33.2219 22.222 33.2219Z" fill="#FBC100"/>
<path d="M39.333 22.222H35.8184L30.5332 15.4007L30.5323 15.4017C30.3095 15.1134 29.9603 14.9272 29.5673 14.9272C28.8923 14.9272 28.3454 15.4741 28.3454 16.1491C28.3454 16.4311 28.4421 16.6907 28.6023 16.8974H28.6014L32.7264 22.222H21.4776L25.632 16.8599L25.6311 16.8589C25.7913 16.6521 25.888 16.3935 25.888 16.1115C25.888 15.4357 25.3411 14.8887 24.6661 14.8887C24.2731 14.8887 23.9239 15.0749 23.7011 15.3632L23.6992 15.3622L18.3846 22.222H14.8879C14.2129 22.222 13.666 22.7699 13.666 23.4448C13.666 24.1198 14.2129 24.6667 14.8879 24.6667H15.2639L17.3327 38.1123H36.887L38.957 24.6667H39.333C40.008 24.6667 40.554 24.1198 40.554 23.4448C40.554 22.7699 40.008 22.222 39.333 22.222ZM34.7907 35.6668H19.4295L17.7375 24.6667H36.4827L34.7907 35.6668Z" fill="#FBC100"/>
</svg>
