<svg width="64" height="64" viewBox="0 0 64 64" fill="none" xmlns="http://www.w3.org/2000/svg">
<path d="M23.0298 19.1152H6.1356C5.21578 19.1164 4.33398 19.4824 3.68357 20.1328C3.03316 20.7832 2.66723 21.665 2.66602 22.5848V57.8123C2.66723 58.7321 3.03316 59.6139 3.68357 60.2644C4.33398 60.9148 5.21578 61.2807 6.1356 61.2819H23.0298C23.9496 61.2807 24.8314 60.9148 25.4818 60.2644C26.1322 59.6139 26.4981 58.7321 26.4993 57.8123V22.5848C26.4981 21.665 26.1322 20.7832 25.4818 20.1328C24.8314 19.4824 23.9496 19.1164 23.0298 19.1152ZM9.99935 20.9486H19.166V22.3236C19.166 22.7361 19.1202 22.7819 18.7077 22.7819H10.4577C10.3238 22.7941 10.1889 22.7753 10.0635 22.7269C10.006 22.6008 9.98381 22.4613 9.99935 22.3236V20.9486ZM24.666 57.8123C24.666 58.2463 24.4936 58.6625 24.1868 58.9693C23.8799 59.2762 23.4637 59.4486 23.0298 59.4486H6.1356C5.70164 59.4486 5.28545 59.2762 4.9786 58.9693C4.67174 58.6625 4.49935 58.2463 4.49935 57.8123V22.5848C4.49935 22.3699 4.54167 22.1572 4.6239 21.9587C4.70613 21.7601 4.82666 21.5798 4.9786 21.4278C5.13054 21.2759 5.31091 21.1553 5.50943 21.0731C5.70795 20.9909 5.92072 20.9486 6.1356 20.9486H8.16602V22.3236C8.16602 23.7811 9.00018 24.6152 10.4577 24.6152H18.7077C19.015 24.6402 19.324 24.598 19.6133 24.4916C19.9027 24.3853 20.1654 24.2173 20.3834 23.9993C20.6014 23.7813 20.7694 23.5186 20.8758 23.2292C20.9821 22.9399 21.0243 22.6308 20.9993 22.3236V20.9486H23.0298C23.2446 20.9486 23.4574 20.9909 23.6559 21.0731C23.8545 21.1553 24.0348 21.2759 24.1868 21.4278C24.3387 21.5798 24.4592 21.7601 24.5415 21.9587C24.6237 22.1572 24.666 22.3699 24.666 22.5848V57.8123Z" fill="#BABAC0"/>
<path d="M57.8637 19.1152H40.9696C40.0498 19.1164 39.168 19.4824 38.5176 20.1328C37.8671 20.7832 37.5012 21.665 37.5 22.5848V57.8123C37.5012 58.7321 37.8671 59.6139 38.5176 60.2644C39.168 60.9148 40.0498 61.2807 40.9696 61.2819H57.8637C58.7836 61.2807 59.6654 60.9148 60.3158 60.2644C60.9662 59.6139 61.3321 58.7321 61.3333 57.8123V22.5848C61.3321 21.665 60.9662 20.7832 60.3158 20.1328C59.6654 19.4824 58.7836 19.1164 57.8637 19.1152ZM44.8333 20.9486H54V22.3236C54 22.7361 53.9542 22.7819 53.5417 22.7819H45.2917C45.1578 22.7941 45.0229 22.7753 44.8975 22.7269C44.84 22.6008 44.8178 22.4613 44.8333 22.3236V20.9486ZM59.5 57.8123C59.5 58.2463 59.3276 58.6625 59.0208 58.9693C58.7139 59.2762 58.2977 59.4486 57.8637 59.4486H40.9696C40.5356 59.4486 40.1194 59.2762 39.8126 58.9693C39.5057 58.6625 39.3333 58.2463 39.3333 57.8123V22.5848C39.3333 22.3699 39.3757 22.1572 39.4579 21.9587C39.5401 21.7601 39.6606 21.5798 39.8126 21.4278C39.9645 21.2759 40.1449 21.1553 40.3434 21.0731C40.5419 20.9909 40.7547 20.9486 40.9696 20.9486H43V22.3236C43 23.7811 43.8342 24.6152 45.2917 24.6152H53.5417C53.8489 24.6402 54.1579 24.598 54.4473 24.4916C54.7367 24.3853 54.9994 24.2173 55.2174 23.9993C55.4354 23.7813 55.6034 23.5186 55.7097 23.2292C55.8161 22.9399 55.8583 22.6308 55.8333 22.3236V20.9486H57.8637C58.0786 20.9486 58.2914 20.9909 58.4899 21.0731C58.6884 21.1553 58.8688 21.2759 59.0208 21.4278C59.1727 21.5798 59.2932 21.7601 59.3754 21.9587C59.4577 22.1572 59.5 22.3699 59.5 22.5848V57.8123Z" fill="#BABAC0"/>
<path d="M48.4993 10.8647V16.3647C48.4993 16.6078 48.5959 16.841 48.7678 17.0129C48.9397 17.1848 49.1729 17.2814 49.416 17.2814C49.6591 17.2814 49.8923 17.1848 50.0642 17.0129C50.2361 16.841 50.3327 16.6078 50.3327 16.3647V9.94803C50.3327 9.70492 50.2361 9.47176 50.0642 9.29985C49.8923 9.12794 49.6591 9.03136 49.416 9.03136H39.2685C39.0339 7.26966 38.1675 5.6531 36.8305 4.48227C35.4934 3.31144 33.7766 2.66602 31.9993 2.66602C30.2221 2.66602 28.5053 3.31144 27.1682 4.48227C25.8312 5.6531 24.9648 7.26966 24.7302 9.03136H14.5827C14.3396 9.03136 14.1064 9.12794 13.9345 9.29985C13.7626 9.47176 13.666 9.70492 13.666 9.94803V16.3647C13.666 16.6078 13.7626 16.841 13.9345 17.0129C14.1064 17.1848 14.3396 17.2814 14.5827 17.2814C14.8258 17.2814 15.059 17.1848 15.2309 17.0129C15.4028 16.841 15.4993 16.6078 15.4993 16.3647V10.8647H24.7302C24.9648 12.6264 25.8312 14.243 27.1682 15.4138C28.5053 16.5846 30.2221 17.23 31.9993 17.23C33.7766 17.23 35.4934 16.5846 36.8305 15.4138C38.1675 14.243 39.0339 12.6264 39.2685 10.8647H48.4993ZM31.9993 15.448C30.9116 15.448 29.8482 15.1255 28.9437 14.5211C28.0392 13.9168 27.3343 13.0578 26.918 12.0528C26.5017 11.0478 26.3928 9.94193 26.605 8.87503C26.8172 7.80814 27.3411 6.82813 28.1103 6.05894C28.8794 5.28975 29.8595 4.76593 30.9264 4.55371C31.9932 4.34149 33.0991 4.45041 34.1041 4.86669C35.1091 5.28298 35.9681 5.98792 36.5724 6.89239C37.1768 7.79686 37.4993 8.86023 37.4993 9.94803C37.4993 11.4067 36.9199 12.8057 35.8884 13.8371C34.857 14.8686 33.458 15.448 31.9993 15.448Z" fill="#BABAC0"/>
<path d="M19.4358 31.7179L13.8212 37.3325L9.72825 33.2442C9.5536 33.0865 9.32499 33.002 9.08976 33.0082C8.85453 33.0144 8.6307 33.1108 8.46461 33.2775C8.29851 33.4442 8.20288 33.6684 8.1975 33.9036C8.19213 34.1389 8.27743 34.3672 8.43575 34.5413L13.1703 39.2804C13.2555 39.3656 13.3566 39.4333 13.4678 39.4794C13.5791 39.5255 13.6984 39.5493 13.8189 39.5493C13.9393 39.5493 14.0586 39.5255 14.1699 39.4794C14.2812 39.4333 14.3823 39.3656 14.4674 39.2804L20.7282 33.015C20.8204 32.9318 20.8947 32.8307 20.9466 32.7179C20.9985 32.6051 21.027 32.4829 21.0303 32.3588C21.0336 32.2347 21.0116 32.1112 20.9657 31.9958C20.9198 31.8804 20.8509 31.7756 20.7633 31.6876C20.6756 31.5996 20.571 31.5304 20.4558 31.4841C20.3406 31.4378 20.2171 31.4154 20.093 31.4182C19.9689 31.421 19.8466 31.4491 19.7336 31.5006C19.6206 31.5521 19.5193 31.626 19.4358 31.7179Z" fill="#FBC100"/>
<path d="M19.4358 44.5519L13.8212 50.1665L9.72825 46.0782C9.5536 45.9205 9.32499 45.836 9.08976 45.8422C8.85453 45.8484 8.6307 45.9448 8.46461 46.1115C8.29851 46.2782 8.20288 46.5023 8.1975 46.7376C8.19213 46.9728 8.27743 47.2011 8.43575 47.3752L13.1703 52.1144C13.2555 52.1996 13.3566 52.2672 13.4678 52.3134C13.5791 52.3595 13.6984 52.3832 13.8189 52.3832C13.9393 52.3832 14.0586 52.3595 14.1699 52.3134C14.2812 52.2672 14.3823 52.1996 14.4674 52.1144L20.7282 45.849C20.8204 45.7658 20.8947 45.6647 20.9466 45.5519C20.9985 45.4391 21.027 45.3169 21.0303 45.1928C21.0336 45.0687 21.0116 44.9452 20.9657 44.8298C20.9198 44.7144 20.8509 44.6095 20.7633 44.5216C20.6756 44.4336 20.571 44.3644 20.4558 44.3181C20.3406 44.2718 20.2171 44.2494 20.093 44.2522C19.9689 44.255 19.8466 44.2831 19.7336 44.3346C19.6206 44.3861 19.5193 44.46 19.4358 44.5519Z" fill="#FBC100"/>
<path d="M53.7275 31.3017C53.5557 31.131 53.3234 31.0352 53.0812 31.0352C52.8391 31.0352 52.6067 31.131 52.435 31.3017L49.4146 34.3175L46.3942 31.3017C46.2188 31.1515 45.9932 31.0731 45.7625 31.082C45.5318 31.0909 45.313 31.1865 45.1497 31.3498C44.9865 31.513 44.8908 31.7319 44.8819 31.9626C44.873 32.1933 44.9515 32.4189 45.1017 32.5942L48.1175 35.6146L45.1017 38.635C45.0057 38.7172 44.9278 38.8183 44.8727 38.9321C44.8177 39.0458 44.7868 39.1697 44.7819 39.2959C44.7771 39.4222 44.7983 39.548 44.8444 39.6657C44.8905 39.7833 44.9604 39.8901 45.0497 39.9795C45.1391 40.0688 45.2459 40.1387 45.3635 40.1848C45.4812 40.2309 45.6071 40.2522 45.7333 40.2473C45.8595 40.2424 45.9834 40.2115 46.0971 40.1565C46.2109 40.1014 46.312 40.0235 46.3942 39.9276L49.4146 36.9117L52.435 39.9276C52.6104 40.0777 52.8359 40.1562 53.0666 40.1473C53.2973 40.1384 53.5162 40.0427 53.6794 39.8795C53.8427 39.7162 53.9383 39.4974 53.9472 39.2667C53.9561 39.036 53.8777 38.8104 53.7275 38.635L50.7117 35.6146L53.7275 32.5942C53.8982 32.4225 53.9941 32.1901 53.9941 31.948C53.9941 31.7058 53.8982 31.4735 53.7275 31.3017Z" fill="#767676"/>
<path d="M53.7275 44.1357C53.5557 43.965 53.3234 43.8691 53.0812 43.8691C52.8391 43.8691 52.6067 43.965 52.435 44.1357L49.4146 47.1515L46.3942 44.1357C46.2188 43.9855 45.9932 43.9071 45.7625 43.916C45.5318 43.9249 45.313 44.0205 45.1497 44.1838C44.9865 44.347 44.8908 44.5659 44.8819 44.7966C44.873 45.0273 44.9515 45.2528 45.1017 45.4282L48.1175 48.4486L45.1017 51.469C45.0057 51.5512 44.9278 51.6523 44.8727 51.7661C44.8177 51.8798 44.7868 52.0037 44.7819 52.1299C44.7771 52.2561 44.7983 52.382 44.8444 52.4997C44.8905 52.6173 44.9604 52.7241 45.0497 52.8135C45.1391 52.9028 45.2459 52.9727 45.3635 53.0188C45.4812 53.0649 45.6071 53.0861 45.7333 53.0813C45.8595 53.0764 45.9834 53.0455 46.0971 52.9905C46.2109 52.9354 46.312 52.8575 46.3942 52.7615L49.4146 49.7457L52.435 52.7615C52.6104 52.9117 52.8359 52.9902 53.0666 52.9813C53.2973 52.9724 53.5162 52.8767 53.6794 52.7135C53.8427 52.5502 53.9383 52.3314 53.9472 52.1007C53.9561 51.87 53.8777 51.6444 53.7275 51.469L50.7117 48.4486L53.7275 45.4282C53.8982 45.2565 53.9941 45.0241 53.9941 44.782C53.9941 44.5398 53.8982 44.3074 53.7275 44.1357Z" fill="#767676"/>
</svg>
