<svg width="64" height="64" viewBox="0 0 64 64" fill="none" xmlns="http://www.w3.org/2000/svg">
<g clip-path="url(#clip0_720_1436)">
<path d="M46.6673 64C46.3873 64 46.1073 63.912 45.87 63.736C45.1927 63.232 29.334 51.2827 29.334 41.68C29.334 36.3413 33.678 32 39.0167 32C42.0593 32 44.8647 33.416 46.6673 35.744C48.4727 33.416 51.278 32 54.318 32C59.6567 32 64.0007 36.3413 64.0007 41.68C64.0007 51.2827 48.142 63.232 47.4647 63.736C47.2273 63.912 46.9473 64 46.6673 64ZM39.0167 34.6667C35.15 34.6667 32.0007 37.8133 32.0007 41.68C32.0007 48.152 41.9313 57.2747 46.6673 60.9867C51.4033 57.2747 61.334 48.152 61.334 41.68C61.334 37.8133 58.1847 34.6667 54.318 34.6667C51.5233 34.6667 49.0007 36.3173 47.8913 38.8747C47.678 39.3627 47.198 39.6773 46.6673 39.6773C46.1367 39.6773 45.654 39.3627 45.4433 38.8747C44.3367 36.3173 41.814 34.6667 39.0167 34.6667Z" fill="#FBC100"/>
<path d="M22.6667 48H4C1.79467 48 0 46.2053 0 44C0 43.7707 0.024 43.568 0.056 43.344L8.07733 3.20533C8.44533 1.34933 10.0933 0 12 0H41.3333C43.24 0 44.888 1.34933 45.256 3.208L49.8933 26.4053C50.0373 27.128 49.5707 27.8293 48.8453 27.9733C48.1547 28.12 47.424 27.6507 47.2773 26.928L42.64 3.728C42.5173 3.112 41.968 2.66667 41.3333 2.66667H12C11.3653 2.66667 10.816 3.112 10.6933 3.72267L2.69333 43.7253C2.68267 43.8133 2.66667 43.9013 2.66667 44C2.66667 44.736 3.26667 45.3333 4 45.3333H22.6667C23.4027 45.3333 24 45.9307 24 46.6667C24 47.4027 23.4027 48 22.6667 48Z" fill="#BABAC0"/>
<path d="M59.2507 28C58.6293 28 58.0747 27.5627 57.9467 26.928L53.3093 3.728C53.184 3.112 52.6347 2.66667 52 2.66667H41.3333C40.5973 2.66667 40 2.06933 40 1.33333C40 0.597333 40.5973 0 41.3333 0H52C53.9067 0 55.5547 1.34933 55.9227 3.208L60.56 26.4053C60.704 27.128 60.2373 27.8293 59.512 27.9733C59.4267 27.992 59.3387 28 59.2507 28Z" fill="#BABAC0"/>
<path d="M26.6666 24.0007C20.784 24.0007 16 19.2167 16 13.334V6.66732C16 5.93132 16.5973 5.33398 17.3333 5.33398C18.0693 5.33398 18.6667 5.93132 18.6667 6.66732V13.334C18.6667 17.7447 22.256 21.334 26.6666 21.334C31.0773 21.334 34.6666 17.7447 34.6666 13.334V6.66732C34.6666 5.93132 35.264 5.33398 36 5.33398C36.736 5.33398 37.3333 5.93132 37.3333 6.66732V13.334C37.3333 19.2167 32.5493 24.0007 26.6666 24.0007Z" fill="#BABAC0"/>
</g>
<defs>
<clipPath id="clip0_720_1436">
<rect width="64" height="64" fill="white"/>
</clipPath>
</defs>
</svg>
