<svg width="64" height="64" viewBox="0 0 64 64" fill="none" xmlns="http://www.w3.org/2000/svg">
<path d="M32.4607 15.267V2.66602H30.7393V15.267H27.3652L31.5655 22.497L35.7659 15.267H32.4607Z" fill="#FBC100"/>
<path d="M57.9368 35.0983L52.6347 25.6648L57.7302 16.4379C57.9368 16.0247 57.7991 15.5427 57.3859 15.3362L37.5549 3.69922V5.69609L55.8022 16.369L51.3265 24.4942L37.5549 16.5067V18.4347L50.0182 25.5959L33.3546 35.236L31.6332 36.3377L28.328 34.4786L13.1105 25.6648L25.5737 18.5036V16.5756L11.8022 24.4942L7.32645 16.369L25.5737 5.69609V3.69922L5.74273 15.3362C5.32958 15.5427 5.26073 16.0936 5.39844 16.4379L10.4939 25.6648L5.4673 35.0983C5.26073 35.5114 5.39844 35.9934 5.81159 36.2L10.6316 39.0232V48.8698C10.6316 49.1452 10.7693 49.4207 11.1136 49.6272L31.22 61.2642C31.22 61.2642 31.22 61.2642 31.2889 61.2642C31.3577 61.2642 31.4266 61.333 31.4266 61.333H31.4955C31.5643 61.333 31.6332 61.333 31.702 61.333C31.8398 61.333 31.8398 61.333 31.9086 61.333H31.9775C32.0463 61.333 32.1152 61.2642 32.1152 61.2642C32.1152 61.2642 32.1152 61.2642 32.184 61.2642L52.3593 49.6272C52.6347 49.4895 52.8413 49.1452 52.8413 48.8698V39.0232L57.7302 36.2C58.0056 35.9934 58.2122 35.5114 57.9368 35.0983ZM7.32645 35.236L11.8022 26.9042L30.4626 37.8526L25.9869 45.9778L7.32645 35.236ZM30.8069 59.0607L12.3531 48.3878V40.056L25.918 47.9058C26.0557 47.9747 26.1934 48.0435 26.4 48.0435C26.4689 48.0435 26.5377 48.0435 26.6066 47.9746C26.8132 47.9058 27.0197 47.7681 27.0886 47.5615L30.8069 40.8823V59.0607ZM50.8444 48.3878L32.3906 59.0607V40.8135L36.1089 47.5615C36.2466 47.7681 36.3844 47.9058 36.5909 47.9746C36.6598 47.9746 36.7286 48.0435 36.7975 48.0435C36.9352 48.0435 37.0729 47.9747 37.2795 47.9058L50.8444 40.056V48.3878ZM37.1418 45.9778L32.666 37.8526L51.3265 26.9042L55.8022 35.236L37.1418 45.9778Z" fill="#BABAC0"/>
</svg>
