<svg width="20" height="20" viewBox="0 0 20 20" fill="none" xmlns="http://www.w3.org/2000/svg">
    <path d="M17.2413 9.50032H18.4569L17.593 8.64502L15.357 6.43105C15.3133 6.38781 15.313 6.31743 15.3562 6.27384C15.3993 6.23022 15.4697 6.22987 15.5133 6.27307L15.8585 5.92444L15.5133 6.27307L18.5129 9.24297L18.8647 8.88767L18.5129 9.24298C18.7178 9.44591 18.7178 9.77702 18.5129 9.97995L18.8647 10.3353L18.5129 9.97996L15.5133 12.9499L15.8651 13.3052L15.5133 12.9499C15.4697 12.9931 15.3993 12.9927 15.3562 12.9491C15.313 12.9055 15.3133 12.8351 15.357 12.7919L17.593 10.5779L18.4569 9.7226H17.2413H9.67423C9.61285 9.7226 9.56308 9.67283 9.56308 9.61146C9.56308 9.55009 9.61285 9.50032 9.67423 9.50032H17.2413ZM3.0741 17.0563C2.11264 17.0563 1.33325 16.2769 1.33325 15.3154V3.90748C1.33325 2.94602 2.11264 2.16663 3.0741 2.16663H10.5135C11.4749 2.16663 12.2543 2.94602 12.2543 3.90748V5.94462C12.2543 6.00599 12.2046 6.05576 12.1432 6.05576C12.0818 6.05576 12.0321 6.00599 12.0321 5.94462V3.90748C12.0321 3.0688 11.3522 2.38891 10.5135 2.38891H3.0741C2.23543 2.38891 1.55553 3.0688 1.55553 3.90748V15.3154C1.55553 16.1541 2.23543 16.834 3.0741 16.834H10.5135C11.3522 16.834 12.0321 16.1541 12.0321 15.3154V13.2783C12.0321 13.2169 12.0818 13.1672 12.1432 13.1672C12.2046 13.1672 12.2543 13.2169 12.2543 13.2783V15.3154C12.2543 16.2769 11.4749 17.0563 10.5135 17.0563H3.0741Z" stroke="#333333"/>
</svg>
