<svg width="19" height="18" viewBox="0 0 19 18" fill="none" xmlns="http://www.w3.org/2000/svg">
<path d="M17.5742 13.7246C18.0898 12.7754 18.3633 11.709 18.3633 10.623C18.3633 7.11914 15.5703 4.25977 12.0938 4.14648C10.9727 2.20898 8.875 0.900391 6.48047 0.900391C2.90625 0.900391 0 3.80664 0 7.38086C0 8.4668 0.273438 9.5332 0.789063 10.4824L0.398438 12.8457C0.371094 13.0176 0.425781 13.1934 0.546875 13.3145C0.667969 13.4355 0.84375 13.4941 1.01563 13.4629L3.37891 13.0684C4.26563 13.5527 5.25781 13.8223 6.26953 13.8535C7.39063 15.791 9.48828 17.0996 11.8828 17.0996C12.9688 17.0996 14.0352 16.8262 14.9844 16.3105L17.3477 16.7051C17.5195 16.7324 17.6953 16.6777 17.8164 16.5566C17.9375 16.4355 17.9961 16.2598 17.9648 16.0879L17.5742 13.7246ZM3.48047 11.9746C3.44922 11.9746 3.42188 11.9785 3.39063 11.9824L1.58203 12.2832L1.88281 10.4746C1.90234 10.3496 1.87891 10.2246 1.81641 10.1152C1.33203 9.29102 1.07813 8.3457 1.07813 7.38477C1.07813 4.4043 3.50391 1.98242 6.48047 1.98242C9.46094 1.98242 11.8828 4.4082 11.8828 7.38477C11.8828 10.3613 9.46094 12.7871 6.48047 12.7871C5.51953 12.7871 4.57422 12.5332 3.75 12.0488C3.66797 11.998 3.57422 11.9746 3.48047 11.9746ZM16.4805 13.7168L16.7813 15.5254L14.9727 15.2246C14.8477 15.2051 14.7227 15.2285 14.6133 15.291C13.7891 15.7754 12.8438 16.0293 11.8828 16.0293C10.082 16.0293 8.48438 15.1426 7.5 13.7832C7.94531 13.7129 8.375 13.5957 8.78516 13.4395C8.86719 13.4941 8.96875 13.5254 9.07422 13.5254H14.6914C14.9883 13.5254 15.2305 13.2832 15.2305 12.9863C15.2305 12.6895 14.9883 12.4473 14.6914 12.4473H10.5156C10.9805 12.0762 11.3945 11.6426 11.7422 11.1621H14.6914C14.9883 11.1621 15.2305 10.9199 15.2305 10.623C15.2305 10.3262 14.9883 10.084 14.6914 10.084H12.3672C12.5547 9.67774 12.7031 9.24414 12.8008 8.79883H14.6875C14.9844 8.79883 15.2266 8.55664 15.2266 8.25977C15.2266 7.96289 14.9844 7.7207 14.6875 7.7207H12.9492C12.957 7.60742 12.957 7.49414 12.957 7.38086C12.957 6.64258 12.832 5.92773 12.6016 5.26758C15.2422 5.62305 17.2813 7.88867 17.2813 10.623C17.2813 11.584 17.0273 12.5293 16.543 13.3535C16.4844 13.4629 16.4609 13.5918 16.4805 13.7168Z" fill="#333333"/>
<path d="M5.66797 5.69336C5.66797 5.24414 6.03516 4.87695 6.48438 4.87695C6.93359 4.87695 7.30078 5.24414 7.30078 5.69336C7.30078 6.14258 6.93359 6.50976 6.48438 6.50976C6.1875 6.50976 5.94531 6.75195 5.94531 7.04883V8.63476C5.94531 8.93164 6.1875 9.17383 6.48438 9.17383C6.78125 9.17383 7.02344 8.93164 7.02344 8.63476V7.50976C7.80469 7.27929 8.375 6.55273 8.375 5.69726C8.375 4.6543 7.52734 3.80664 6.48438 3.80664C5.44141 3.80664 4.59375 4.6543 4.59375 5.69726C4.59375 5.99414 4.83594 6.23633 5.13281 6.23633C5.42969 6.23633 5.66797 5.99023 5.66797 5.69336Z" fill="#333333"/>
<path d="M6.48084 9.88867C6.19959 9.88867 5.93006 10.1348 5.94177 10.4277C5.95349 10.7207 6.18006 10.9668 6.48084 10.9668C6.76209 10.9668 7.03162 10.7207 7.0199 10.4277C7.00818 10.1348 6.78162 9.88867 6.48084 9.88867Z" fill="#333333"/>
</svg>
