<svg width="19" height="20" viewBox="0 0 19 20" fill="none" xmlns="http://www.w3.org/2000/svg">
<path d="M9.49935 13.6668C8.29687 13.6668 7.27465 14.4386 6.90103 15.5139L6.85627 15.5063L6.74935 15.5002H1.24935C0.743088 15.5002 0.332684 15.9106 0.332684 16.4168C0.332684 16.8869 0.686537 17.2744 1.14243 17.3273L1.24935 17.3335H6.74935C6.80119 17.3335 6.85204 17.3292 6.90153 17.3209C7.27465 18.395 8.29687 19.1668 9.49935 19.1668C10.7018 19.1668 11.7241 18.395 12.0977 17.3198L12.1424 17.3273L12.2493 17.3335H17.7493C18.2556 17.3335 18.666 16.9231 18.666 16.4168C18.666 15.9467 18.3122 15.5593 17.8563 15.5063L17.7493 15.5002H12.2493C12.1975 15.5002 12.1467 15.5045 12.0972 15.5127C11.724 14.4386 10.7018 13.6668 9.49935 13.6668ZM9.49935 15.5002C10.0056 15.5002 10.416 15.9106 10.416 16.4168C10.416 16.9231 10.0056 17.3335 9.49935 17.3335C8.99309 17.3335 8.58268 16.9231 8.58268 16.4168C8.58268 15.9106 8.99309 15.5002 9.49935 15.5002ZM15.916 7.25016C14.7135 7.25016 13.6913 8.02196 13.3177 9.0972L13.2729 9.08966L13.166 9.0835H1.24935C0.743088 9.0835 0.332684 9.4939 0.332684 10.0002C0.332684 10.4703 0.686537 10.8577 1.14243 10.9107L1.24935 10.9168H13.166C13.2179 10.9168 13.2687 10.9125 13.3182 10.9043C13.6913 11.9784 14.7135 12.7502 15.916 12.7502C17.4348 12.7502 18.666 11.5189 18.666 10.0002C18.666 8.48138 17.4348 7.25016 15.916 7.25016ZM15.916 9.0835C16.4223 9.0835 16.8327 9.4939 16.8327 10.0002C16.8327 10.5064 16.4223 10.9168 15.916 10.9168C15.4098 10.9168 14.9993 10.5064 14.9993 10.0002C14.9993 9.4939 15.4098 9.0835 15.916 9.0835ZM5.83268 0.833496C4.6302 0.833496 3.60798 1.60529 3.23436 2.68054L3.1896 2.673L3.08268 2.66683H1.24935C0.743088 2.66683 0.332684 3.07723 0.332684 3.5835C0.332684 4.0536 0.686537 4.44104 1.14243 4.49399L1.24935 4.50016H3.08268C3.13453 4.50016 3.18537 4.49586 3.23486 4.48759C3.60799 5.5617 4.6302 6.3335 5.83268 6.3335C7.03517 6.3335 8.05739 5.5617 8.43101 4.48646L8.47576 4.49399L8.58268 4.50016H17.7493C18.2556 4.50016 18.666 4.08976 18.666 3.5835C18.666 3.1134 18.3122 2.72595 17.8563 2.673L17.7493 2.66683H8.58268C8.53084 2.66683 8.48 2.67113 8.4305 2.6794C8.05738 1.60529 7.03517 0.833496 5.83268 0.833496ZM5.83268 2.66683C6.33894 2.66683 6.74935 3.07723 6.74935 3.5835C6.74935 4.08976 6.33894 4.50016 5.83268 4.50016C5.32642 4.50016 4.91602 4.08976 4.91602 3.5835C4.91602 3.07723 5.32642 2.66683 5.83268 2.66683Z" fill="#333333"/>
</svg>
