<svg width="42" height="42" viewBox="0 0 42 42" fill="none" xmlns="http://www.w3.org/2000/svg">
<rect x="4" y="4" width="34" height="34" rx="17" fill="#F7F7F7"/>
<g clip-path="url(#clip0_5080_26570)">
<path d="M20.4117 27.416H18.6617C18.6617 24.7671 18.6617 16.6448 18.6617 13.9993C18.6617 13.6785 18.3992 13.416 18.0784 13.416C17.7575 13.416 17.495 13.6785 17.495 13.9993C17.495 20.2667 17.495 21.2478 17.495 27.416H15.745C14.9733 27.416 14.9727 28.5827 15.745 28.5827H20.4117C21.1835 28.5827 21.184 27.416 20.4117 27.416Z" fill="#333333"/>
<path d="M25.2233 17.4987L26.7108 15.5154C26.9861 15.1566 26.7464 14.582 26.2441 14.582H19.2441V20.4154H26.2441C26.7452 20.4154 26.9867 19.8419 26.7108 19.482L25.2233 17.4987Z" fill="black"/>
</g>
<defs>
<clipPath id="clip0_5080_26570">
<rect width="14" height="14" fill="white" transform="translate(14 14)"/>
</clipPath>
</defs>
</svg>
