<svg width="16" height="16" viewBox="0 0 16 16" fill="none" xmlns="http://www.w3.org/2000/svg">
<rect x="0.5" y="0.5" width="15" height="15" rx="7.5" stroke="white"/>
<g clip-path="url(#clip0_88_802)">
<mask id="mask0_88_802" style="mask-type:luminance" maskUnits="userSpaceOnUse" x="1" y="1" width="14" height="14">
<path d="M15 8C15 4.13401 11.866 1 8 1C4.13401 1 1 4.13401 1 8C1 11.866 4.13401 15 8 15C11.866 15 15 11.866 15 8Z" fill="white"/>
</mask>
<g mask="url(#mask0_88_802)">
<path d="M1.3304 5.86993C1.11084 6.55861 0.999383 7.27717 1 8.00001C1 8.74271 1.1162 9.4588 1.3304 10.1301L8 10.4346L14.6696 10.1301C14.8838 9.4581 15 8.74271 15 8.00001C15.0007 7.27694 14.8892 6.55814 14.6696 5.86923L8 5.56543L1.3304 5.86993Z" fill="#F0F0F0"/>
<path d="M14.669 5.86923L7.99941 5.56543L1.32982 5.86923C1.26608 6.06966 1.21142 6.27286 1.16602 6.47822H14.8328C14.7874 6.27286 14.7328 6.06965 14.669 5.86923ZM1.16602 9.5218C1.21222 9.7283 1.26682 9.9313 1.33052 10.1308L8.00011 10.4346L14.669 10.1301C14.733 9.92968 14.7879 9.72648 14.8335 9.5211L1.16602 9.5218Z" fill="#D80027"/>
<path d="M7.99968 14.9997C11.1231 14.9997 13.7677 12.9544 14.6693 10.1299H1.33008C2.23168 12.9544 4.87768 14.9997 7.99968 14.9997Z" fill="#6DA544"/>
<path d="M7.99968 1C4.87628 1 2.23168 3.04538 1.33008 5.86986H14.6693C13.7677 3.04538 11.1231 1 7.99968 1Z" fill="#338AF3"/>
<path d="M4.19864 3.89067C4.19864 3.23548 4.65925 2.68808 5.27454 2.55368C5.07438 2.5095 4.86686 2.5108 4.66727 2.55748C4.46769 2.60417 4.28113 2.69504 4.12133 2.82341C3.96153 2.95178 3.83257 3.11438 3.74397 3.29921C3.65536 3.48404 3.60938 3.6864 3.60938 3.89137C3.60938 4.09635 3.65536 4.29871 3.74397 4.48354C3.83257 4.66837 3.96153 4.83096 4.12133 4.95933C4.28113 5.08771 4.46769 5.17858 4.66727 5.22526C4.86686 5.27194 5.07438 5.27324 5.27454 5.22906C4.9695 5.16204 4.69652 4.99279 4.50084 4.74937C4.30517 4.50596 4.19854 4.20299 4.19864 3.89067ZM6.08374 4.51367L6.17683 4.79857H6.47644L6.23424 4.97497L6.32664 5.26056L6.08374 5.08416L5.84153 5.26056L5.93393 4.97497L5.69104 4.79857H5.99134L6.08374 4.51367ZM7.04133 4.51367L7.13443 4.79857H7.43474L7.19184 4.97497L7.28423 5.26056L7.04133 5.08416L6.79913 5.26056L6.89154 4.97497L6.64864 4.79857H6.94893L7.04133 4.51367ZM7.99963 4.51367L8.09204 4.79857H8.39163L8.14944 4.97497L8.24183 5.26056L7.99963 5.08416L7.75743 5.26056L7.84984 4.97497L7.60693 4.79857H7.90724L7.99963 4.51367ZM8.95654 4.51367L9.04963 4.79857H9.34924L9.10704 4.97497L9.19944 5.26056L8.95654 5.08416L8.71434 5.26056L8.80674 4.97497L8.56384 4.79857H8.86413L8.95654 4.51367ZM9.91413 4.51367L10.0072 4.79857H10.3068L10.0646 4.97497L10.157 5.26056L9.91413 5.08416L9.67194 5.26056L9.76434 4.97497L9.52143 4.79857H9.82174L9.91413 4.51367ZM7.04133 3.51758L7.13443 3.80247H7.43474L7.19184 3.97887L7.28423 4.26447L7.04133 4.08807L6.79913 4.26447L6.89154 3.97887L6.64864 3.80247H6.94893L7.04133 3.51758ZM7.99963 3.51758L8.09204 3.80247H8.39163L8.14944 3.97887L8.24183 4.26447L7.99963 4.08807L7.75743 4.26447L7.84984 3.97887L7.60693 3.80247H7.90724L7.99963 3.51758ZM8.95654 3.51758L9.04963 3.80247H9.34924L9.10704 3.97887L9.19944 4.26447L8.95654 4.08807L8.71434 4.26447L8.80674 3.97887L8.56384 3.80247H8.86413L8.95654 3.51758ZM9.91413 3.51758L10.0072 3.80247H10.3068L10.0646 3.97887L10.157 4.26447L9.91413 4.08807L9.67194 4.26447L9.76434 3.97887L9.52143 3.80247H9.82174L9.91413 3.51758ZM7.99963 2.52148L8.09204 2.80638H8.39163L8.14944 2.98278L8.24183 3.26838L7.99963 3.09268L7.75743 3.26908L7.84984 2.98348L7.60693 2.80708H7.90724L7.99963 2.52148ZM8.95654 2.52148L9.04963 2.80638H9.34924L9.10704 2.98278L9.19944 3.26838L8.95654 3.09198L8.71434 3.26838L8.80674 2.98278L8.56384 2.80638H8.86413L8.95654 2.52148ZM9.91413 2.52148L10.0072 2.80638H10.3068L10.0646 2.98278L10.157 3.26838L9.91413 3.09198L9.67194 3.26838L9.76434 2.98278L9.52143 2.80638H9.82174L9.91413 2.52148Z" fill="#F0F0F0"/>
</g>
</g>
<defs>
<clipPath id="clip0_88_802">
<rect width="14" height="14" fill="white" transform="translate(1 1)"/>
</clipPath>
</defs>
</svg>
