<svg width="21" height="22" viewBox="0 0 21 22" fill="none" xmlns="http://www.w3.org/2000/svg">
<path d="M18.3088 10.9997C18.3088 10.5756 18.6442 10.2314 19.0574 10.2314C19.4706 10.2314 19.806 10.5756 19.806 10.9997C19.806 16.1898 15.6964 20.4076 10.6393 20.4076C5.58228 20.4076 1.47266 16.1898 1.47266 10.9997C1.47266 5.80957 5.58228 1.5918 10.6393 1.5918C12.8828 1.5918 15.0198 2.42946 16.6827 3.92926V2.54465C16.6827 2.12061 17.0181 1.77638 17.4312 1.77638C17.8444 1.77638 18.1798 2.12061 18.1798 2.54465V5.7556C18.1798 6.17964 17.8444 6.52387 17.4312 6.52387H14.3026C13.8895 6.52387 13.5541 6.17964 13.5541 5.7556C13.5541 5.33155 13.8895 4.98733 14.3026 4.98733H15.5943C14.2178 3.79139 12.4701 3.12834 10.6393 3.12834C6.39934 3.12834 2.9698 6.64813 2.9698 10.9997C2.9698 15.3513 6.39934 18.871 10.6393 18.871C14.8793 18.871 18.3088 15.3513 18.3088 10.9997Z" fill="#333333"/>
<path d="M10.0781 5.24004C10.0781 4.92212 10.3296 4.66406 10.6393 4.66406C10.9491 4.66406 11.2005 4.92212 11.2005 5.24004V10.7286L14.0998 13.1545C14.3393 13.354 14.3756 13.7159 14.1811 13.9618C13.9867 14.2076 13.6341 14.2447 13.3945 14.0452L10.3225 11.4746C10.1749 11.3708 10.0781 11.1966 10.0781 10.9993V5.24004Z" fill="#333333"/>
</svg>
