<svg width="100" height="18" viewBox="0 0 100 18" fill="none" xmlns="http://www.w3.org/2000/svg">
<g clip-path="url(#clip0_10393_37107)">
<path d="M1.31856 14.5946V10.2703H0.226562V8.04258H1.31856V5.72754H3.89569V8.04258H6.03601V10.2703H3.89569V14.1578C3.89569 14.7693 4.15777 15.0314 4.72561 15.0314C5.20609 15.0314 5.64289 14.9003 5.99233 14.7256V16.8223C5.46817 17.128 4.81297 17.3464 3.93937 17.3464C2.36688 17.3464 1.31856 16.7349 1.31856 14.5946Z" fill="black"/>
<path d="M7.25977 12.629C7.25977 10.0082 9.13801 7.86792 11.7588 7.86792C14.8164 7.86792 16.2142 10.2266 16.2142 12.8474C16.2142 13.0658 16.2142 13.2842 16.1705 13.5463H9.83689C10.099 14.7257 10.9289 15.3372 12.0646 15.3372C12.9382 15.3372 13.5497 15.0751 14.2923 14.4199L15.7774 15.7303C14.9038 16.7786 13.6807 17.4338 12.0646 17.4338C9.26905 17.3902 7.25977 15.4682 7.25977 12.629ZM13.6807 11.9302C13.506 10.7508 12.8508 10.0082 11.7588 10.0082C10.6668 10.0082 9.96793 10.7945 9.79321 11.9302H13.6807Z" fill="black"/>
<path d="M20.0585 12.5415L16.9572 8.04248H19.7527L21.4563 10.707L23.1598 8.04248H25.8679L22.7667 12.4978L25.999 17.1716H23.2035L21.3689 14.3324L19.5343 17.1716H16.8262L20.0585 12.5415Z" fill="black"/>
<path d="M27.5703 8.04264H30.1474V9.35304C30.759 8.5668 31.5015 7.86792 32.8119 7.86792C34.7775 7.86792 35.9132 9.17832 35.9132 11.275V17.1718H33.3361V12.1049C33.3361 10.8818 32.7682 10.2266 31.7636 10.2266C30.759 10.2266 30.1474 10.8382 30.1474 12.1049V17.2155H27.5703V8.04264Z" fill="black"/>
<path d="M37.748 12.629C37.748 10.0082 39.8447 7.86792 42.7276 7.86792C45.5668 7.86792 47.6634 9.96456 47.6634 12.629C47.6634 15.2498 45.5668 17.3902 42.6839 17.3902C39.8447 17.3902 37.748 15.2935 37.748 12.629ZM45.0863 12.629C45.0863 11.275 44.1253 10.0956 42.6839 10.0956C41.1988 10.0956 40.3252 11.2313 40.3252 12.629C40.3252 13.9831 41.2861 15.1625 42.7276 15.1625C44.2127 15.1625 45.0863 14.0268 45.0863 12.629Z" fill="black"/>
<path d="M49.498 8.04264H52.0752V9.35304C52.6867 8.5668 53.4729 7.86792 54.7833 7.86792C55.9627 7.86792 56.88 8.39208 57.3605 9.30936C58.1467 8.39208 59.1077 7.86792 60.3744 7.86792C62.2963 7.86792 63.4757 9.04728 63.4757 11.2313V17.1718H60.8985V12.1049C60.8985 10.8818 60.3744 10.2266 59.3697 10.2266C58.4088 10.2266 57.7973 10.8382 57.7973 12.1049V17.2155H55.2201V12.1049C55.2201 10.8818 54.696 10.2266 53.6913 10.2266C52.7304 10.2266 52.1189 10.8382 52.1189 12.1049V17.2155H49.5417V8.04264H49.498Z" fill="black"/>
<path d="M65.1348 14.5508C65.1348 12.5415 66.6636 11.6242 68.8039 11.6242C69.7212 11.6242 70.3764 11.7989 71.0316 12.0173V11.8426C71.0316 10.7506 70.3764 10.1828 69.066 10.1828C68.0613 10.1828 67.3624 10.3575 66.5325 10.6632L65.8773 8.69764C66.882 8.26084 67.8866 7.95508 69.4154 7.95508C70.8132 7.95508 71.8615 8.3482 72.5167 8.95972C73.2156 9.6586 73.5213 10.6632 73.5213 11.8863V17.1716H71.0316V16.1669C70.42 16.8658 69.5464 17.3463 68.2797 17.3463C66.5762 17.3463 65.1348 16.3853 65.1348 14.5508ZM71.1189 13.9829V13.5024C70.6821 13.284 70.1143 13.153 69.4591 13.153C68.3671 13.153 67.6682 13.5898 67.6682 14.4634C67.6682 15.1623 68.236 15.5554 69.066 15.5554C70.289 15.5554 71.1189 14.9002 71.1189 13.9829Z" fill="black"/>
<path d="M75.793 8.04259H78.3701V9.87715C78.8942 8.61043 79.7678 7.78051 81.2966 7.86787V10.576H81.1656C79.4621 10.576 78.3701 11.6243 78.3701 13.8084V17.1717H75.793V8.04259Z" fill="black"/>
<path d="M83.3498 14.5946V10.2703H82.2578V8.04258H83.3498V5.72754H85.9269V8.04258H88.0673V10.2703H85.9269V14.1578C85.9269 14.7693 86.189 15.0314 86.7569 15.0314C87.2373 15.0314 87.6741 14.9003 88.0236 14.7256V16.8223C87.4994 17.128 86.8442 17.3464 85.9706 17.3464C84.3981 17.3464 83.3498 16.7349 83.3498 14.5946Z" fill="black"/>
<path d="M99.9051 7.25647L98.5947 9.48415L95.9739 7.95535V11.013H93.3531V7.95535L90.7323 9.48415L89.4219 7.25647L92.0864 5.72767L89.4656 4.19887L90.7323 1.97118L93.3531 3.49999V0.442383H95.9739V3.49999L98.5947 1.97118L99.8614 4.19887L97.2406 5.72767L99.9051 7.25647Z" fill="black"/>
</g>
<defs>
<clipPath id="clip0_10393_37107">
<rect width="100" height="17.7778" fill="white"/>
</clipPath>
</defs>
</svg>
