<svg width="24" height="24" viewBox="0 0 24 24" fill="none" xmlns="http://www.w3.org/2000/svg">
<path d="M21.2662 22.7779H16.6871C15.7314 22.7779 14.9542 21.9654 14.9542 20.9662V15.0571H10.0458V20.9662C10.0458 21.9654 9.26861 22.7779 8.31289 22.7779H3.73289C2.77718 22.7779 2 21.9654 2 20.9662V10.1931C2 9.64007 2.23774 9.12502 2.65019 8.77866L11.4168 1.44517C12.0546 0.912156 12.9454 0.912156 13.5822 1.44517L22.3498 8.77866C22.7632 9.12502 23 9.64007 23 10.1931V20.9652C22.999 21.9644 22.2219 22.7779 21.2662 22.7779ZM16.8628 20.7815H21.0895V10.2819L12.4986 3.09513L3.90762 10.2819V20.7815H8.13435V14.8724C8.13435 13.8733 8.91152 13.0608 9.86724 13.0608H15.1289C16.0847 13.0608 16.8618 13.8733 16.8618 14.8724V20.7815H16.8628Z" fill="#BABAC0"/>
</svg>
