<svg width="10" height="10" viewBox="0 0 10 10" fill="none" xmlns="http://www.w3.org/2000/svg">
<path d="M4.76562 9.5C4.67969 8.99219 4.45312 8.44531 4.08594 7.85937C3.71875 7.26562 3.19531 6.71484 2.51562 6.20703C1.84375 5.69922 1.17187 5.375 0.5 5.23438V4.74219C1.16406 4.58594 1.80078 4.29687 2.41016 3.875C3.02734 3.44531 3.54297 2.92969 3.95703 2.32812C4.37891 1.71094 4.64844 1.10156 4.76562 0.5H5.25781C5.32812 0.89062 5.46875 1.29297 5.67969 1.70703C5.89062 2.11328 6.16016 2.50391 6.48828 2.87891C6.82422 3.24609 7.19922 3.57812 7.61328 3.875C8.23047 4.3125 8.85937 4.60156 9.5 4.74219V5.23438C9.0703 5.32031 8.625 5.49609 8.16406 5.76172C7.71094 6.02734 7.28906 6.34375 6.89844 6.71094C6.50781 7.07031 6.1875 7.44922 5.9375 7.84766C5.57031 8.43359 5.34375 8.98438 5.25781 9.5H4.76562Z" fill="#42AB44"/>
</svg>
