<svg width="20" height="20" viewBox="0 0 20 20" fill="none" xmlns="http://www.w3.org/2000/svg">
<path fill-rule="evenodd" clip-rule="evenodd" d="M5.83317 3.33335C5.17013 3.33335 4.53424 3.59675 4.0654 4.06559C3.59656 4.53443 3.33317 5.17031 3.33317 5.83335V14.1667C3.33317 14.8297 3.59656 15.4656 4.0654 15.9345C4.53424 16.4033 5.17013 16.6667 5.83317 16.6667H14.1665C14.8295 16.6667 15.4654 16.4033 15.9343 15.9345C16.4031 15.4656 16.6665 14.8297 16.6665 14.1667V9.16669C16.6665 8.94567 16.7543 8.73371 16.9106 8.57743C17.0669 8.42115 17.2788 8.33335 17.4998 8.33335C17.7209 8.33335 17.9328 8.42115 18.0891 8.57743C18.2454 8.73371 18.3332 8.94567 18.3332 9.16669V14.1667C18.3332 15.2718 17.8942 16.3316 17.1128 17.113C16.3314 17.8944 15.2716 18.3334 14.1665 18.3334H5.83317C4.7281 18.3334 3.66829 17.8944 2.88689 17.113C2.10549 16.3316 1.6665 15.2718 1.6665 14.1667V5.83335C1.6665 4.72829 2.10549 3.66848 2.88689 2.88708C3.66829 2.10567 4.7281 1.66669 5.83317 1.66669H10.8332C11.0542 1.66669 11.2661 1.75448 11.4224 1.91076C11.5787 2.06704 11.6665 2.27901 11.6665 2.50002C11.6665 2.72103 11.5787 2.933 11.4224 3.08928C11.2661 3.24556 11.0542 3.33335 10.8332 3.33335H5.83317Z" fill="#BABAC0"/>
<path fill-rule="evenodd" clip-rule="evenodd" d="M14.3467 2.35001C14.7872 1.92395 15.3775 1.68806 15.9903 1.6932C16.6031 1.69834 17.1893 1.94409 17.6226 2.37747C18.0559 2.81086 18.3015 3.39716 18.3065 4.00996C18.3115 4.62276 18.0754 5.21297 17.6492 5.65334L16.9967 6.30668C16.8405 6.4629 16.6285 6.55066 16.4076 6.55066C16.1866 6.55066 15.9747 6.4629 15.8184 6.30668L13.6934 4.18168C13.5372 4.0254 13.4494 3.81348 13.4494 3.59251C13.4494 3.37154 13.5372 3.15962 13.6934 3.00334L14.3467 2.35001ZM12.5151 5.36001C12.3588 5.20378 12.1469 5.11602 11.9259 5.11602C11.7049 5.11602 11.493 5.20378 11.3367 5.36001L7.61924 9.07834C7.51253 9.18501 7.43678 9.31866 7.40007 9.46501L6.69174 12.2983C6.65694 12.4379 6.65887 12.5842 6.69735 12.7228C6.73583 12.8614 6.80954 12.9877 6.91131 13.0894C7.01309 13.1911 7.13945 13.2647 7.27811 13.3031C7.41677 13.3414 7.56301 13.3433 7.70257 13.3083L10.5351 12.6C10.6814 12.5633 10.8151 12.4876 10.9217 12.3808L14.6401 8.66334C14.7963 8.50707 14.8841 8.29515 14.8841 8.07418C14.8841 7.85321 14.7963 7.64128 14.6401 7.48501L12.5151 5.36001Z" fill="#BABAC0"/>
</svg>
