<svg width="64" height="64" viewBox="0 0 64 64" fill="none" xmlns="http://www.w3.org/2000/svg">
<path d="M16.0602 23.6465L2.66602 32.0179V34.8307L16.0602 43.202L17.8015 40.3893L6.68428 33.4243L17.8015 26.4593L16.0602 23.6465Z" fill="#BABAC0"/>
<path d="M46.1973 26.4593L57.3145 33.4243L46.1973 40.3893L47.9385 43.202L61.3327 34.8307V32.0179L47.9385 23.6465L46.1973 26.4593Z" fill="#BABAC0"/>
<path d="M31.9989 48.494C33.8483 48.494 35.3475 46.9948 35.3475 45.1454C35.3475 43.2961 33.8483 41.7969 31.9989 41.7969C30.1496 41.7969 28.6504 43.2961 28.6504 45.1454C28.6504 46.9948 30.1496 48.494 31.9989 48.494Z" fill="#FBC100"/>
<path d="M32.0003 13.334C28.5178 13.334 25.9729 16.4816 26.7096 19.8971L30.393 37.3096C30.7948 39.1178 33.3397 39.1178 33.6746 37.3096L37.358 19.8971C38.0277 16.4816 35.4828 13.334 32.0003 13.334Z" fill="#FBC100"/>
</svg>
