<svg width="18" height="18" viewBox="0 0 18 18" fill="none" xmlns="http://www.w3.org/2000/svg">
<g clip-path="url(#clip0_12541_47877)">
<path fill-rule="evenodd" clip-rule="evenodd" d="M0.75 1.57501C0.75 1.11937 1.11937 0.75 1.57501 0.75H3.79201C4.18266 0.75 4.51977 1.02399 4.5996 1.4064L5.15155 4.05005H15.6002C16.5115 4.05005 17.2503 4.78879 17.2503 5.70008V9.26826C17.2503 10.0494 16.7026 10.7234 15.938 10.8834L6.97282 12.7585C6.08077 12.945 5.2064 12.3731 5.01991 11.481L3.12145 2.40003H1.57501C1.11937 2.40003 0.75 2.03065 0.75 1.57501ZM6.46399 10.3362C6.55714 10.7822 6.99435 11.0684 7.44044 10.9751L14.9441 9.4062C15.3263 9.32626 15.6002 8.98916 15.6002 8.5986V6.52509C15.6002 6.06945 15.2309 5.70008 14.7752 5.70008H5.49605L6.46399 10.3362Z" fill="#333333"/>
<path d="M6.00002 17.25C6.82846 17.25 7.50004 16.5785 7.50004 15.75C7.50004 14.9216 6.82846 14.25 6.00002 14.25C5.17158 14.25 4.5 14.9216 4.5 15.75C4.5 16.5785 5.17158 17.25 6.00002 17.25Z" fill="#333333"/>
<path d="M13.5 17.25C14.3285 17.25 15 16.5785 15 15.75C15 14.9216 14.3285 14.25 13.5 14.25C12.6716 14.25 12 14.9216 12 15.75C12 16.5785 12.6716 17.25 13.5 17.25Z" fill="#333333"/>
</g>
<defs>
<clipPath id="clip0_12541_47877">
<rect width="18" height="18" fill="white"/>
</clipPath>
</defs>
</svg>
