<svg width="18" height="18" viewBox="0 0 18 18" fill="none" xmlns="http://www.w3.org/2000/svg">
<g clip-path="url(#clip0_12541_47185)">
<path fill-rule="evenodd" clip-rule="evenodd" d="M17.25 5.5502C17.25 5.7752 17.25 5.8502 17.25 5.8502V9.4502C17.25 10.2002 16.725 10.8752 15.975 11.1002L6.975 12.9752C6.075 13.1252 5.175 12.6002 5.025 11.7002L3.15 2.4752H1.575C1.125 2.4752 0.75 2.1002 0.75 1.6502C0.75 1.2002 1.125 0.825195 1.575 0.825195H3.825C4.2 0.825195 4.575 1.1252 4.65 1.5002L5.175 4.1252L5.55 5.7752L6.525 10.4252C6.6 10.8752 7.05 11.1752 7.5 11.1002L15 9.5252C15.375 9.4502 15.675 9.0752 15.675 8.7002V6.6002C15.675 6.6002 15.675 5.7752 15.675 5.5502C15.675 5.10019 15.975 4.7252 16.5 4.7252C16.95 4.7252 17.25 5.1752 17.25 5.5502Z" fill="#333333"/>
<path d="M6 17.3252C6.825 17.3252 7.5 16.6502 7.5 15.8252C7.5 15.0002 6.825 14.3252 6 14.3252C5.175 14.3252 4.5 15.0002 4.5 15.8252C4.5 16.6502 5.175 17.3252 6 17.3252Z" fill="#333333"/>
<path d="M13.5 17.3252C14.325 17.3252 15 16.6502 15 15.8252C15 15.0002 14.325 14.3252 13.5 14.3252C12.675 14.3252 12 15.0002 12 15.8252C12 16.6502 12.675 17.3252 13.5 17.3252Z" fill="#333333"/>
<path fill-rule="evenodd" clip-rule="evenodd" d="M15.8015 0.899398C15.8637 0.952788 15.9149 1.01793 15.952 1.0911C15.9891 1.16428 16.0114 1.24405 16.0177 1.32585C16.024 1.40766 16.0141 1.48989 15.9885 1.56786C15.963 1.64583 15.9223 1.718 15.8689 1.78025L10.8735 7.60823C10.8175 7.67357 10.7486 7.72662 10.6711 7.76407C10.5936 7.80151 10.5092 7.82254 10.4232 7.82582C10.3372 7.82911 10.2515 7.81458 10.1714 7.78315C10.0912 7.75172 10.0185 7.70407 9.95766 7.64319L7.45996 5.14549L7.01953 4.70423L7.90205 3.82171L8.34331 4.26297L10.3648 6.28361L14.9214 0.967668C15.0292 0.842105 15.1825 0.764472 15.3475 0.751827C15.5125 0.739182 15.6758 0.792559 15.8015 0.90023V0.899398Z" fill="#333333"/>
</g>
<defs>
<clipPath id="clip0_12541_47185">
<rect width="18" height="18" fill="white"/>
</clipPath>
</defs>
</svg>
