<svg width="20" height="20" viewBox="0 0 20 20" fill="none" xmlns="http://www.w3.org/2000/svg">
<path d="M7.09835 13.8064V17.5995H5.83398V13.1742C5.83398 12.8252 6.1172 12.542 6.46617 12.542H13.4202C13.7692 12.542 14.0524 12.8252 14.0524 13.1742V17.5995H12.788V13.8064H7.09835Z" fill="white"/>
<path d="M19.1673 7.25016L17.9173 1.3335C17.834 1.0835 17.584 0.833496 17.2507 0.833496H2.75065C2.41732 0.833496 2.16732 1.0835 2.08398 1.3335L0.833984 7.25016C0.833984 7.3335 0.833984 7.3335 0.833984 7.41683C0.833984 8.50016 1.33398 9.50016 2.08398 10.1668V18.2502C2.08398 18.5835 2.33398 18.9168 2.75065 18.9168H17.2507C17.584 18.9168 17.9173 18.6668 17.9173 18.2502V10.1668C18.6673 9.50016 19.1673 8.50016 19.1673 7.41683C19.1673 7.3335 19.1673 7.3335 19.1673 7.25016ZM12.834 17.5835H7.16732H12.834ZM3.33398 17.5835V10.8335C3.66732 10.9168 3.91732 11.0002 4.25065 11.0002C5.41732 11.0002 6.50065 10.4168 7.08398 9.50016C7.75065 10.4168 8.75065 11.0002 9.91732 11.0002C11.084 11.0002 12.1673 10.4168 12.7507 9.50016C13.4173 10.4168 14.4173 11.0002 15.584 11.0002C15.9173 11.0002 16.2506 10.9168 16.5006 10.8335V17.5835M15.6673 9.66683C14.5006 9.66683 13.5007 8.66683 13.4173 7.41683C13.4173 7.0835 13.084 6.8335 12.7507 6.8335C12.4173 6.8335 12.084 7.0835 12.084 7.41683C12.084 8.66683 11.084 9.66683 9.83398 9.66683C8.66732 9.66683 7.66732 8.66683 7.58398 7.41683C7.58398 7.0835 7.25065 6.8335 6.91732 6.8335C6.83398 6.8335 6.50065 7.0835 6.50065 7.50016C6.50065 8.75016 5.50065 9.75016 4.25065 9.75016C3.08398 9.75016 2.08398 8.75016 2.00065 7.5835L3.16732 2.16683H16.6673L17.9173 7.50016C17.834 8.66683 16.9173 9.66683 15.6673 9.66683Z" fill="white"/>
</svg>
