<svg width="18" height="18" viewBox="0 0 18 18" fill="none" xmlns="http://www.w3.org/2000/svg">
<g clip-path="url(#clip0_12541_47369)">
<path d="M9 0.75C7.36831 0.75 5.77325 1.23385 4.41655 2.14038C3.05984 3.0469 2.00242 4.33537 1.378 5.84286C0.753575 7.35035 0.590197 9.00915 0.908525 10.6095C1.22685 12.2098 2.01259 13.6798 3.16637 14.8336C4.32015 15.9874 5.79016 16.7731 7.39051 17.0915C8.99085 17.4098 10.6496 17.2464 12.1571 16.622C13.6646 15.9976 14.9531 14.9402 15.8596 13.5835C16.7661 12.2267 17.25 10.6317 17.25 9C17.25 7.91659 17.0366 6.8438 16.622 5.84286C16.2074 4.84192 15.5997 3.93245 14.8336 3.16637C14.0675 2.40029 13.1581 1.79259 12.1571 1.37799C11.1562 0.963393 10.0834 0.75 9 0.75ZM9 15.6C7.69465 15.6 6.4186 15.2129 5.33324 14.4877C4.24787 13.7625 3.40194 12.7317 2.9024 11.5257C2.40286 10.3197 2.27216 8.99268 2.52682 7.7124C2.78148 6.43213 3.41007 5.25612 4.3331 4.33309C5.25612 3.41007 6.43213 2.78148 7.71241 2.52682C8.99268 2.27215 10.3197 2.40286 11.5257 2.90239C12.7317 3.40193 13.7625 4.24787 14.4877 5.33323C15.2129 6.4186 15.6 7.69464 15.6 9C15.6 10.7504 14.9046 12.4292 13.6669 13.6669C12.4292 14.9046 10.7504 15.6 9 15.6Z" fill="#333333"/>
<path d="M9.825 8.66175V4.875C9.825 4.6562 9.73808 4.44635 9.58336 4.29164C9.42865 4.13692 9.2188 4.05 9 4.05C8.7812 4.05 8.57136 4.13692 8.41664 4.29164C8.26192 4.44635 8.175 4.6562 8.175 4.875V9C8.17437 9.10857 8.19518 9.2162 8.23624 9.31672C8.2773 9.41724 8.33779 9.50866 8.41425 9.58575L10.8892 12.0607C10.9659 12.1381 11.0572 12.1994 11.1577 12.2413C11.2583 12.2832 11.3661 12.3048 11.475 12.3048C11.5839 12.3048 11.6917 12.2832 11.7923 12.2413C11.8928 12.1994 11.9841 12.1381 12.0608 12.0607C12.1381 11.9841 12.1995 11.8928 12.2413 11.7923C12.2832 11.6917 12.3048 11.5839 12.3048 11.475C12.3048 11.3661 12.2832 11.2583 12.2413 11.1577C12.1995 11.0572 12.1381 10.9659 12.0608 10.8892L9.825 8.66175Z" fill="#333333"/>
</g>
<defs>
<clipPath id="clip0_12541_47369">
<rect width="18" height="18" fill="white"/>
</clipPath>
</defs>
</svg>
