<svg width="21" height="20" viewBox="0 0 21 20" fill="none" xmlns="http://www.w3.org/2000/svg">
<path d="M10.5514 0.83404C5.49684 0.83404 1.38477 4.47833 1.38477 8.96537C1.38477 11.3259 2.51948 13.5208 4.5114 15.0738V18.3392C4.51125 18.5362 4.5813 18.7268 4.70899 18.8767C4.83667 19.0268 5.01375 19.1263 5.20831 19.1577C5.40272 19.1889 5.60202 19.1497 5.7703 19.0473L9.16615 16.9767C9.62532 17.0395 10.0881 17.0713 10.5514 17.0719C15.606 17.0719 19.7181 13.4276 19.7181 8.94868C19.7181 4.47018 15.606 0.833984 10.5514 0.833984L10.5514 0.83404ZM10.5514 15.4235C10.0728 15.422 9.59497 15.3818 9.12264 15.3034C8.92852 15.2723 8.72962 15.3112 8.5615 15.4132L6.16791 16.8626V14.6471C6.16834 14.3768 6.0369 14.1233 5.81592 13.9679C4.0538 12.7255 3.0413 10.9054 3.0413 8.95697C3.04115 5.39125 6.41012 2.49029 10.5514 2.49029C14.6928 2.49029 18.0616 5.39129 18.0616 8.9651C18.0616 12.5389 14.6926 15.4233 10.5514 15.4233L10.5514 15.4235Z" fill="#333333"/>
<path d="M6.89991 7.68564C6.51613 7.68896 6.14941 7.84423 5.88004 8.11751C5.61067 8.39079 5.46059 8.75967 5.46292 9.14329C5.46508 9.52707 5.61934 9.89423 5.89176 10.1643C6.16417 10.4345 6.53277 10.5856 6.9164 10.5845C7.30017 10.5834 7.66774 10.4302 7.9387 10.1585C8.20952 9.88681 8.36174 9.51878 8.36174 9.13516C8.36174 8.7485 8.20734 8.3779 7.93275 8.10576C7.65832 7.83364 7.28641 7.68227 6.89987 7.6856L6.89991 7.68564Z" fill="black"/>
<path d="M12.027 9.13714C12.027 9.93877 11.3734 10.5886 10.5672 10.5886C9.76097 10.5886 9.10742 9.93877 9.10742 9.13714C9.10742 8.33551 9.76101 7.68555 10.5672 7.68555C11.3735 7.68555 12.027 8.33551 12.027 9.13714Z" fill="black"/>
<path d="M14.2365 7.68555C13.8522 7.68555 13.4834 7.83836 13.2116 8.11018C12.9398 8.38201 12.7871 8.75059 12.7871 9.13511C12.7871 9.51947 12.9398 9.88819 13.2116 10.16C13.4834 10.4317 13.8522 10.5845 14.2365 10.5845C14.621 10.5845 14.9896 10.4317 15.2615 10.16C15.5333 9.88821 15.6859 9.51947 15.6859 9.13511C15.6859 8.75063 15.5333 8.38202 15.2615 8.11018C14.9896 7.83835 14.621 7.68555 14.2365 7.68555Z" fill="black"/>
</svg>
