<svg width="40" height="32" viewBox="0 0 40 32" fill="none" xmlns="http://www.w3.org/2000/svg">
<g clip-path="url(#clip0_10954_38951)">
<path fill-rule="evenodd" clip-rule="evenodd" d="M27.25 12.5502C27.25 12.7752 27.25 12.8502 27.25 12.8502V16.4502C27.25 17.2002 26.725 17.8752 25.975 18.1002L16.975 19.9752C16.075 20.1252 15.175 19.6002 15.025 18.7002L13.15 9.4752H11.575C11.125 9.4752 10.75 9.1002 10.75 8.6502C10.75 8.2002 11.125 7.8252 11.575 7.8252H13.825C14.2 7.8252 14.575 8.1252 14.65 8.5002L15.175 11.1252L15.55 12.7752L16.525 17.4252C16.6 17.8752 17.05 18.1752 17.5 18.1002L25 16.5252C25.375 16.4502 25.675 16.0752 25.675 15.7002V13.6002C25.675 13.6002 25.675 12.7752 25.675 12.5502C25.675 12.1002 25.975 11.7252 26.5 11.7252C26.95 11.7252 27.25 12.1752 27.25 12.5502Z" fill="#333333"/>
<path d="M16 24.3252C16.825 24.3252 17.5 23.6502 17.5 22.8252C17.5 22.0002 16.825 21.3252 16 21.3252C15.175 21.3252 14.5 22.0002 14.5 22.8252C14.5 23.6502 15.175 24.3252 16 24.3252Z" fill="#333333"/>
<path d="M23.5 24.3252C24.325 24.3252 25 23.6502 25 22.8252C25 22.0002 24.325 21.3252 23.5 21.3252C22.675 21.3252 22 22.0002 22 22.8252C22 23.6502 22.675 24.3252 23.5 24.3252Z" fill="#333333"/>
<path fill-rule="evenodd" clip-rule="evenodd" d="M25.8015 7.8994C25.8637 7.95279 25.9149 8.01793 25.952 8.0911C25.9891 8.16428 26.0114 8.24405 26.0177 8.32585C26.024 8.40766 26.0141 8.48989 25.9885 8.56786C25.963 8.64583 25.9223 8.718 25.8689 8.78025L20.8735 14.6082C20.8175 14.6736 20.7486 14.7266 20.6711 14.7641C20.5936 14.8015 20.5092 14.8225 20.4232 14.8258C20.3372 14.8291 20.2515 14.8146 20.1714 14.7832C20.0912 14.7517 20.0185 14.7041 19.9577 14.6432L17.46 12.1455L17.0195 11.7042L17.9021 10.8217L18.3433 11.263L20.3648 13.2836L24.9214 7.96767C25.0292 7.8421 25.1825 7.76447 25.3475 7.75183C25.5125 7.73918 25.6758 7.79256 25.8015 7.90023V7.8994Z" fill="#333333"/>
</g>
<rect x="1" y="1" width="38" height="30" rx="7" stroke="#FBC100" stroke-width="2"/>
<defs>
<clipPath id="clip0_10954_38951">
<rect width="18" height="18" fill="white" transform="translate(10 7)"/>
</clipPath>
</defs>
</svg>
