<svg width="40" height="32" viewBox="0 0 40 32" fill="none" xmlns="http://www.w3.org/2000/svg">
<path d="M17.0984 19.8064V23.5995H15.834V19.1742C15.834 18.8252 16.1172 18.542 16.4662 18.542H23.4202C23.7692 18.542 24.0524 18.8252 24.0524 19.1742V23.5995H22.788V19.8064H17.0984Z" fill="#333333"/>
<path d="M29.1673 13.2502L27.9173 7.3335C27.834 7.0835 27.584 6.8335 27.2507 6.8335H12.7507C12.4173 6.8335 12.1673 7.0835 12.084 7.3335L10.834 13.2502C10.834 13.3335 10.834 13.3335 10.834 13.4168C10.834 14.5002 11.334 15.5002 12.084 16.1668V24.2502C12.084 24.5835 12.334 24.9168 12.7507 24.9168H27.2507C27.584 24.9168 27.9173 24.6668 27.9173 24.2502V16.1668C28.6673 15.5002 29.1673 14.5002 29.1673 13.4168C29.1673 13.3335 29.1673 13.3335 29.1673 13.2502ZM22.834 23.5835H17.1673H22.834ZM13.334 23.5835V16.8335C13.6673 16.9168 13.9173 17.0002 14.2507 17.0002C15.4173 17.0002 16.5007 16.4168 17.084 15.5002C17.7507 16.4168 18.7506 17.0002 19.9173 17.0002C21.084 17.0002 22.1673 16.4168 22.7507 15.5002C23.4173 16.4168 24.4173 17.0002 25.584 17.0002C25.9173 17.0002 26.2506 16.9168 26.5006 16.8335V23.5835M25.6673 15.6668C24.5006 15.6668 23.5007 14.6668 23.4173 13.4168C23.4173 13.0835 23.084 12.8335 22.7507 12.8335C22.4173 12.8335 22.084 13.0835 22.084 13.4168C22.084 14.6668 21.084 15.6668 19.834 15.6668C18.6673 15.6668 17.6673 14.6668 17.584 13.4168C17.584 13.0835 17.2507 12.8335 16.9173 12.8335C16.834 12.8335 16.5007 13.0835 16.5007 13.5002C16.5007 14.7502 15.5007 15.7502 14.2507 15.7502C13.084 15.7502 12.084 14.7502 12.0007 13.5835L13.1673 8.16683H26.6673L27.9173 13.5002C27.834 14.6668 26.9173 15.6668 25.6673 15.6668Z" fill="#333333"/>
<rect x="1" y="1" width="38" height="30" rx="7" stroke="#FBC100" stroke-width="2" stroke-dasharray="4 4"/>
</svg>
