<svg width="20" height="20" viewBox="0 0 20 20" fill="none" xmlns="http://www.w3.org/2000/svg">
<path d="M10.2146 5.58776L10.2288 5.60321L10.2443 5.61742C10.2692 5.64037 10.2887 5.66866 10.3012 5.70018L10.301 5.70024L10.3061 5.71206C10.3222 5.74984 10.3311 5.79026 10.3325 5.83126C10.3307 5.87868 10.3207 5.92545 10.3028 5.96945L10.3028 5.96944L10.3012 5.97352C10.2887 6.00504 10.2692 6.03333 10.2443 6.05628L10.2343 6.06546L10.2248 6.07517C10.1962 6.10454 10.1623 6.12835 10.1251 6.14543C10.0868 6.15955 10.0463 6.16655 10.0055 6.16605L9.99695 6.16595L9.98843 6.16613C9.94752 6.16703 9.90682 6.16038 9.86836 6.14655C9.78938 6.10851 9.72546 6.04505 9.68682 5.96642C9.67267 5.92479 9.66562 5.88104 9.666 5.837L9.66611 5.837L9.66598 5.82656C9.66548 5.78574 9.67248 5.74521 9.68661 5.70696C9.70368 5.6697 9.72749 5.63588 9.75686 5.60722L9.76658 5.59775L9.77576 5.58776C9.79871 5.5628 9.827 5.54335 9.85852 5.53086L9.85855 5.53094L9.86685 5.52747C9.90751 5.51051 9.95113 5.50178 9.99518 5.50178C10.0392 5.50178 10.0829 5.51051 10.1235 5.52747L10.1235 5.52755L10.1319 5.53086C10.1634 5.54335 10.1917 5.5628 10.2146 5.58776ZM5.64739 3.48617C6.93557 2.62543 8.45007 2.16602 9.99935 2.16602C11.028 2.16602 12.0467 2.36863 12.997 2.76229C13.9474 3.15595 14.811 3.73295 15.5384 4.46035C16.2657 5.18774 16.8427 6.05128 17.2364 7.00166C17.6301 7.95205 17.8327 8.97066 17.8327 9.99935C17.8327 11.5486 17.3733 13.0631 16.5125 14.3513C15.6518 15.6395 14.4284 16.6435 12.997 17.2364C11.5657 17.8293 9.99066 17.9844 8.47115 17.6822C6.95163 17.3799 5.55586 16.6339 4.46035 15.5384C3.36484 14.4428 2.61879 13.0471 2.31653 11.5276C2.01428 10.008 2.16941 8.43302 2.7623 7.00166C3.35518 5.57031 4.3592 4.34691 5.64739 3.48617ZM6.01777 15.9582C7.19632 16.7457 8.58192 17.166 9.99935 17.166C11.9001 17.166 13.7229 16.411 15.067 15.0669C16.411 13.7229 17.166 11.9001 17.166 9.99935C17.166 8.58192 16.7457 7.19631 15.9582 6.01776C15.1707 4.83921 14.0515 3.92064 12.7419 3.37821C11.4324 2.83578 9.9914 2.69386 8.60121 2.97039C7.21101 3.24692 5.93403 3.92947 4.93175 4.93175C3.92948 5.93403 3.24692 7.211 2.97039 8.6012C2.69386 9.9914 2.83579 11.4324 3.37822 12.7419C3.92064 14.0515 4.83921 15.1707 6.01777 15.9582ZM9.76365 8.93031C9.82616 8.8678 9.91095 8.83268 9.99935 8.83268C10.0878 8.83268 10.1725 8.8678 10.2351 8.93031C10.2976 8.99283 10.3327 9.07761 10.3327 9.16602V14.166C10.3327 14.2544 10.2976 14.3392 10.2351 14.4017C10.1725 14.4642 10.0878 14.4993 9.99935 14.4993C9.91095 14.4993 9.82616 14.4642 9.76365 14.4017C9.70114 14.3392 9.66602 14.2544 9.66602 14.166V9.16602C9.66602 9.07761 9.70114 8.99283 9.76365 8.93031Z" stroke="#333333"/>
</svg>
