<svg width="18" height="20" viewBox="0 0 18 20" fill="none" xmlns="http://www.w3.org/2000/svg">
<path d="M1.25 10.0003C1.25 5.58429 4.72816 2.0332 9 2.0332C13.2715 2.0332 16.75 5.58398 16.75 10.0003C16.75 14.4163 13.2718 17.9674 9 17.9674C4.72846 17.9674 1.25 14.4166 1.25 10.0003ZM1.53906 10.0003C1.53906 14.2127 4.86406 17.6444 9 17.6444C13.1356 17.6444 16.4609 14.213 16.4609 10.0003C16.4609 5.78789 13.1359 2.35619 9 2.35619C4.86434 2.35619 1.53906 5.7876 1.53906 10.0003Z" stroke="#333333"/>
<mask id="path-2-inside-1_7849_47228" fill="white">
<path d="M9 8.62305C8.64403 8.62305 8.35547 8.9192 8.35547 9.28454V13.5443C8.35547 13.9097 8.64403 14.2058 9 14.2058C9.35597 14.2058 9.64453 13.9096 9.64453 13.5443V9.28454C9.64453 8.9192 9.35597 8.62305 9 8.62305Z"/>
</mask>
<path d="M9 7.32305C7.89443 7.32305 7.05547 8.23327 7.05547 9.28454H9.65547C9.65547 9.60513 9.39362 9.92305 9 9.92305V7.32305ZM7.05547 9.28454V13.5443H9.65547V9.28454H7.05547ZM7.05547 13.5443C7.05547 14.5956 7.89443 15.5058 9 15.5058V12.9058C9.39362 12.9058 9.65547 13.2237 9.65547 13.5443H7.05547ZM9 15.5058C10.1057 15.5058 10.9445 14.5955 10.9445 13.5443H8.34453C8.34453 13.2238 8.6063 12.9058 9 12.9058V15.5058ZM10.9445 13.5443V9.28454H8.34453V13.5443H10.9445ZM10.9445 9.28454C10.9445 8.23327 10.1056 7.32305 9 7.32305V9.92305C8.60638 9.92305 8.34453 9.60513 8.34453 9.28454H10.9445Z" fill="#333333" mask="url(#path-2-inside-1_7849_47228)"/>
<path d="M9.21914 6.91841C9.21914 7.06864 9.10478 7.16142 8.99902 7.16142C8.89327 7.16142 8.77891 7.06864 8.77891 6.91841C8.77891 6.76817 8.89327 6.67539 8.99902 6.67539C9.10478 6.67539 9.21914 6.76817 9.21914 6.91841Z" fill="#333333" stroke="#333333" stroke-width="1.3"/>
</svg>
