<svg width="20" height="19" viewBox="0 0 20 19" fill="none" xmlns="http://www.w3.org/2000/svg">
<path d="M17.8578 8.52365H2.14351C1.7962 8.52365 1.46312 8.38568 1.21753 8.1401C0.971952 7.89451 0.833984 7.56143 0.833984 7.21412L0.833984 1.97603C0.833984 1.62872 0.971952 1.29564 1.21753 1.05005C1.46312 0.804471 1.7962 0.666504 2.14351 0.666504L17.8578 0.666504C18.2051 0.666504 18.5382 0.804471 18.7838 1.05005C19.0293 1.29564 19.1673 1.62872 19.1673 1.97603V7.21412C19.1673 7.56143 19.0293 7.89451 18.7838 8.1401C18.5382 8.38568 18.2051 8.52365 17.8578 8.52365ZM2.58002 6.77761H17.4213V2.41254H2.58002V6.77761Z" fill="#333333"/>
<path d="M17.8578 18.1267H2.14351C1.7962 18.1267 1.46312 17.9887 1.21753 17.7431C0.971952 17.4975 0.833984 17.1645 0.833984 16.8171L0.833984 11.5791C0.833984 11.2317 0.971952 10.8987 1.21753 10.6531C1.46312 10.4075 1.7962 10.2695 2.14351 10.2695H17.8578C18.2051 10.2695 18.5382 10.4075 18.7838 10.6531C19.0293 10.8987 19.1673 11.2317 19.1673 11.5791V16.8171C19.1673 17.1645 19.0293 17.4975 18.7838 17.7431C18.5382 17.9887 18.2051 18.1267 17.8578 18.1267ZM2.58002 16.3806H17.4213V12.0156H2.58002V16.3806Z" fill="#333333"/>
</svg>
