<svg width="20" height="20" viewBox="0 0 20 20" fill="none" xmlns="http://www.w3.org/2000/svg">
<path d="M2.50065 7.50016H7.50065V2.50016H2.50065V7.50016ZM0.833984 2.49984C0.833984 1.57954 1.57351 0.833496 2.50033 0.833496H7.50097C8.42127 0.833496 9.16732 1.57302 9.16732 2.49984V7.50048C9.16732 8.42078 8.42779 9.16683 7.50097 9.16683H2.50033C1.58003 9.16683 0.833984 8.4273 0.833984 7.50048V2.49984ZM2.50065 17.5002H7.50065V12.5002H2.50065V17.5002ZM0.833984 12.4998C0.833984 11.5795 1.57351 10.8335 2.50033 10.8335H7.50097C8.42127 10.8335 9.16732 11.573 9.16732 12.4998V17.5005C9.16732 18.4208 8.42779 19.1668 7.50097 19.1668H2.50033C1.58003 19.1668 0.833984 18.4273 0.833984 17.5005V12.4998ZM12.5007 17.5002H17.5006V12.5002H12.5007V17.5002ZM10.834 12.4998C10.834 11.5795 11.5735 10.8335 12.5003 10.8335H17.501C18.4213 10.8335 19.1673 11.573 19.1673 12.4998V17.5005C19.1673 18.4208 18.4278 19.1668 17.501 19.1668H12.5003C11.58 19.1668 10.834 18.4273 10.834 17.5005V12.4998ZM12.5007 7.50016H17.5006V2.50016H12.5007V7.50016ZM10.834 2.49984C10.834 1.57954 11.5735 0.833496 12.5003 0.833496H17.501C18.4213 0.833496 19.1673 1.57302 19.1673 2.49984V7.50048C19.1673 8.42078 18.4278 9.16683 17.501 9.16683H12.5003C11.58 9.16683 10.834 8.4273 10.834 7.50048V2.49984Z" fill="#333333"/>
</svg>
