<svg width="20" height="20" viewBox="0 0 20 20" fill="none" xmlns="http://www.w3.org/2000/svg">
<path d="M18.3084 2.67699C17.2062 1.5855 15.715 0.977147 14.1636 0.985841C12.6124 0.994538 11.1281 1.61948 10.0381 2.72337C8.96217 1.5882 7.47458 0.934262 5.91077 0.908975C4.34716 0.883505 2.83906 1.48897 1.72684 2.58857C0.614835 3.68833 -0.0076162 5.18938 7.03536e-05 6.75341C0.00773199 8.31723 0.644893 9.81229 1.76787 10.9009L9.54667 18.6749C9.6765 18.8064 9.85355 18.8803 10.0383 18.8803C10.223 18.8803 10.4 18.8064 10.5298 18.6749L18.3086 10.9009C19.3921 9.80646 20 8.32878 20 6.78882C20 5.24902 19.392 3.77134 18.3086 2.67699H18.3084Z" fill="#333333"/>
</svg>
