<svg width="21" height="22" viewBox="0 0 21 22" fill="none" xmlns="http://www.w3.org/2000/svg">
<path d="M10.6393 1.5918C5.58318 1.5918 1.47266 5.81049 1.47266 10.9997C1.47266 16.1889 5.58318 20.4076 10.6393 20.4076C15.6955 20.4076 19.806 16.1889 19.806 10.9997C19.806 5.81049 15.6955 1.5918 10.6393 1.5918ZM18.6674 10.4253H11.199V2.76036C15.1937 3.05753 18.3779 6.32545 18.6674 10.4253ZM7.76388 16.2879L2.59195 10.9997C2.59195 10.4649 2.64984 9.93023 2.74636 9.43508L8.28495 15.1194L7.76388 16.2879ZM8.74816 13.9706L3.09378 8.16742C3.24818 7.75142 3.42183 7.35533 3.61486 6.97898L9.26925 12.7822L8.74816 13.9706ZM5.0429 5.07767L10.0797 10.2669V10.8808L9.75169 11.6335L4.25169 5.98875C4.48323 5.67182 4.75341 5.3748 5.04295 5.0776L5.0429 5.07767ZM10.0797 6.91971V8.6428L5.89202 4.34488C6.22008 4.10725 6.56753 3.8695 6.93406 3.67151L10.0797 6.91971ZM8.03402 3.19616C8.69013 2.95853 9.36564 2.81981 10.0796 2.78016V5.31534L8.03402 3.19616ZM2.7849 12.8219L7.26209 17.4169L6.87616 18.3082C4.84981 17.1991 3.32529 15.1985 2.78494 12.8219L2.7849 12.8219ZM10.6393 19.2589C9.67438 19.2589 8.76736 19.0807 7.9182 18.7638L11.006 11.5741H18.6674C18.3778 15.8523 14.8849 19.2589 10.6393 19.2589H10.6393Z" fill="#333333"/>
</svg>
