<svg width="55" height="54" viewBox="0 0 55 54" fill="none" xmlns="http://www.w3.org/2000/svg">
<path d="M42.2451 8.23453C34.318 0.212059 21.5099 0.276903 13.5828 8.29937C5.65575 16.3218 5.59999 29.3146 13.5256 37.3361L27.8489 51.75L42.2001 37.2227C50.1276 29.1993 50.1712 16.258 42.2451 8.23453ZM27.887 40.2442C18.2995 40.2442 10.526 32.3777 10.526 22.6732C10.526 12.9662 18.3 5.09821 27.887 5.09821C37.4775 5.09821 45.251 12.9662 45.251 22.6732C45.2476 32.3777 37.4775 40.2442 27.887 40.2442Z" fill="#333333"/>
<path d="M26.9227 10.1745C27.6647 9.53146 28.9671 9.74728 29.3877 10.6645C30.2407 12.8034 31.0785 14.9492 31.926 17.0896C31.9407 17.1619 32.0077 17.1871 32.0742 17.1871C34.1954 17.3337 36.3156 17.5084 38.4372 17.6623C39.0451 17.6752 39.6487 18.0143 39.924 18.5736C40.2644 19.2018 40.15 20.073 39.5929 20.5378C37.8821 21.9614 36.1869 23.4043 34.4805 24.8324C34.4326 24.8735 34.3852 24.9161 34.3529 24.9705C34.8351 27.0946 35.3751 29.2082 35.8798 31.3278C36.2618 32.3911 35.3663 33.6449 34.2414 33.5613C33.853 33.5563 33.5141 33.3425 33.2045 33.1276C31.5318 32.0579 29.8582 30.9877 28.1836 29.9195C28.0408 29.8309 27.9063 29.72 27.7458 29.6681C25.8477 30.8244 23.9789 32.0337 22.0857 33.2004C21.5653 33.5147 20.8737 33.5098 20.3626 33.1781C19.8232 32.8534 19.4921 32.1837 19.6187 31.552C20.1641 29.2864 20.7779 27.0297 21.2987 24.7597C19.7606 23.4197 18.1994 22.1074 16.6539 20.7769C16.3042 20.4893 15.9242 20.1893 15.7726 19.7423C15.4014 18.8439 15.9883 17.6732 16.9611 17.5331C19.2754 17.3351 21.6059 17.252 23.9144 17.0372C24.713 15.1062 25.4809 13.1598 26.2708 11.2229C26.418 10.8353 26.5872 10.4329 26.9227 10.1745Z" fill="#333333"/>
<rect x="10.2812" y="4.72461" width="35.214" height="35.64" rx="17.607" fill="#FBC100"/>
<path d="M37.1809 25.122L34.8577 28.8775L30.2114 26.3002V31.4548H25.5651V26.3002L20.9188 28.8775L18.5957 25.122L23.3194 22.5448L18.6731 19.9675L20.9188 16.212L25.5651 18.7893V13.6348H30.2114V18.7893L34.8577 16.212L37.1034 19.9675L32.4572 22.5448L37.1809 25.122Z" fill="black"/>
</svg>
