<svg width="24" height="24" viewBox="0 0 24 24" fill="none" xmlns="http://www.w3.org/2000/svg">
    <path d="M12 5C10.6739 5 9.40215 5.52678 8.46447 6.46447C7.52678 7.40215 7 8.67392 7 10C7 11.3261 7.52678 12.5979 8.46447 13.5355C9.40215 14.4732 10.6739 15 12 15C13.3261 15 14.5979 14.4732 15.5355 13.5355C16.4732 12.5979 17 11.3261 17 10C17 8.67392 16.4732 7.40215 15.5355 6.46447C14.5979 5.52678 13.3261 5 12 5ZM9 10C9 9.20435 9.31607 8.44129 9.87868 7.87868C10.4413 7.31607 11.2044 7 12 7C12.7956 7 13.5587 7.31607 14.1213 7.87868C14.6839 8.44129 15 9.20435 15 10C15 10.7956 14.6839 11.5587 14.1213 12.1213C13.5587 12.6839 12.7956 13 12 13C11.2044 13 10.4413 12.6839 9.87868 12.1213C9.31607 11.5587 9 10.7956 9 10Z" fill="#333333"/>
    <path d="M12 1C9.61305 1 7.32387 1.94821 5.63604 3.63604C3.94821 5.32387 3 7.61305 3 10C3 12.514 4.136 14.848 5.699 16.942C7.264 19.041 9.33 20.992 11.342 22.752C11.5242 22.9112 11.758 22.999 12 22.999C12.242 22.999 12.4758 22.9112 12.658 22.752C14.67 20.992 16.736 19.041 18.302 16.942C19.864 14.848 21 12.514 21 10C21 7.61305 20.0518 5.32387 18.364 3.63604C16.6761 1.94821 14.3869 1 12 1ZM5 10C5 8.14348 5.7375 6.36301 7.05025 5.05025C8.36301 3.7375 10.1435 3 12 3C13.8565 3 15.637 3.7375 16.9497 5.05025C18.2625 6.36301 19 8.14348 19 10C19 11.904 18.136 13.82 16.698 15.746C15.423 17.456 13.753 19.099 12 20.666C10.247 19.099 8.577 17.456 7.301 15.746C5.864 13.82 5 11.904 5 10Z" fill="#333333"/>
</svg>
