<svg width="24" height="24" viewBox="0 0 24 24" fill="none" xmlns="http://www.w3.org/2000/svg">
    <path d="M17.25 9V6.5325C17.248 5.19841 16.7172 3.91952 15.7738 2.97618C14.8305 2.03283 13.5516 1.50198 12.2175 1.5H11.7825C10.4484 1.50198 9.16952 2.03283 8.22618 2.97618C7.28283 3.91952 6.75198 5.19841 6.75 6.5325V9C6.15326 9 5.58097 9.23705 5.15901 9.65901C4.73705 10.081 4.5 10.6533 4.5 11.25V18.225C4.50198 19.3582 4.95302 20.4444 5.75431 21.2457C6.5556 22.047 7.64181 22.498 8.775 22.5H15.225C16.3582 22.498 17.4444 22.047 18.2457 21.2457C19.047 20.4444 19.498 19.3582 19.5 18.225V11.25C19.5 10.6533 19.2629 10.081 18.841 9.65901C18.419 9.23705 17.8467 9 17.25 9ZM8.25 6.5325C8.25 5.59562 8.62217 4.69712 9.28465 4.03465C9.94712 3.37217 10.8456 3 11.7825 3H12.2175C13.1544 3 14.0529 3.37217 14.7154 4.03465C15.3778 4.69712 15.75 5.59562 15.75 6.5325V9H8.25V6.5325ZM18 18.225C18 18.961 17.7076 19.6668 17.1872 20.1872C16.6668 20.7076 15.961 21 15.225 21H8.775C8.03902 21 7.33319 20.7076 6.81278 20.1872C6.29237 19.6668 6 18.961 6 18.225V11.25C6 11.0511 6.07902 10.8603 6.21967 10.7197C6.36032 10.579 6.55109 10.5 6.75 10.5H17.25C17.4489 10.5 17.6397 10.579 17.7803 10.7197C17.921 10.8603 18 11.0511 18 11.25V18.225Z" fill="#BABAC0"/>
    <path d="M12.75 15.5393V17.9993C12.75 18.1982 12.671 18.389 12.5303 18.5296C12.3897 18.6703 12.1989 18.7493 12 18.7493C11.8011 18.7493 11.6103 18.6703 11.4697 18.5296C11.329 18.389 11.25 18.1982 11.25 17.9993V15.5393C10.964 15.3742 10.7405 15.1193 10.6142 14.8143C10.4878 14.5092 10.4656 14.171 10.5511 13.852C10.6366 13.5331 10.8249 13.2512 11.0869 13.0502C11.3488 12.8492 11.6698 12.7402 12 12.7402C12.3302 12.7402 12.6512 12.8492 12.9131 13.0502C13.1751 13.2512 13.3634 13.5331 13.4489 13.852C13.5344 14.171 13.5122 14.5092 13.3858 14.8143C13.2595 15.1193 13.036 15.3742 12.75 15.5393Z" fill="#BABAC0"/>
</svg>
