<svg width="34" height="26" viewBox="0 0 34 26" fill="none" xmlns="http://www.w3.org/2000/svg">
<g clip-path="url(#clip0_13587_49329)">
<path d="M32 0H2C0.89543 0 0 0.89543 0 2V24C0 25.1046 0.89543 26 2 26H32C33.1046 26 34 25.1046 34 24V2C34 0.89543 33.1046 0 32 0Z" fill="white"/>
<path d="M9.18167 21.9108V20.7194C9.18167 20.2627 8.90555 19.9648 8.4322 19.9648C8.19553 19.9648 7.93913 20.0442 7.76162 20.3024C7.62356 20.084 7.42633 19.9648 7.13049 19.9648C6.93326 19.9648 6.73603 20.0244 6.57825 20.2428V20.0045H6.16406V21.9108H6.57825V20.8584C6.57825 20.5208 6.75575 20.3619 7.03187 20.3619C7.30799 20.3619 7.44605 20.5407 7.44605 20.8584V21.9108H7.86024V20.8584C7.86024 20.5208 8.05747 20.3619 8.31386 20.3619C8.58998 20.3619 8.72805 20.5407 8.72805 20.8584V21.9108H9.18167ZM15.3155 20.0045H14.6449V19.4287H14.2308V20.0045H13.856V20.3818H14.2308V21.2555C14.2308 21.6923 14.4083 21.9505 14.8816 21.9505C15.0591 21.9505 15.2563 21.8909 15.3944 21.8115L15.2761 21.4541C15.1577 21.5335 15.0197 21.5533 14.9211 21.5533C14.7238 21.5533 14.6449 21.4342 14.6449 21.2356V20.3818H15.3155V20.0045ZM18.8262 19.9648C18.5895 19.9648 18.4317 20.084 18.3331 20.2428V20.0045H17.9189V21.9108H18.3331V20.8385C18.3331 20.5208 18.4712 20.3421 18.7276 20.3421C18.8065 20.3421 18.9051 20.3619 18.984 20.3818L19.1023 19.9847C19.0234 19.9648 18.9051 19.9648 18.8262 19.9648ZM13.5207 20.1634C13.3235 20.0244 13.0474 19.9648 12.7515 19.9648C12.2782 19.9648 11.9626 20.2031 11.9626 20.5804C11.9626 20.8981 12.1993 21.0768 12.6135 21.1363L12.8107 21.1562C13.0277 21.1959 13.146 21.2555 13.146 21.3548C13.146 21.4938 12.9882 21.593 12.7121 21.593C12.436 21.593 12.219 21.4938 12.081 21.3945L11.8837 21.7122C12.1007 21.871 12.3965 21.9505 12.6924 21.9505C13.2446 21.9505 13.5602 21.6923 13.5602 21.3349C13.5602 20.9974 13.3038 20.8186 12.9093 20.7591L12.7121 20.7392C12.5346 20.7194 12.3965 20.6796 12.3965 20.5605C12.3965 20.4215 12.5346 20.3421 12.7515 20.3421C12.9882 20.3421 13.2249 20.4414 13.3432 20.5009L13.5207 20.1634ZM24.5261 19.9648C24.2894 19.9648 24.1317 20.084 24.033 20.2428V20.0045H23.6189V21.9108H24.033V20.8385C24.033 20.5208 24.1711 20.3421 24.4275 20.3421C24.5064 20.3421 24.605 20.3619 24.6839 20.3818L24.8022 19.9847C24.7234 19.9648 24.605 19.9648 24.5261 19.9648ZM19.2404 20.9576C19.2404 21.5335 19.6348 21.9505 20.2462 21.9505C20.5224 21.9505 20.7196 21.8909 20.9168 21.732L20.7196 21.3945C20.5618 21.5136 20.404 21.5732 20.2265 21.5732C19.8912 21.5732 19.6546 21.3349 19.6546 20.9576C19.6546 20.6002 19.8912 20.3619 20.2265 20.3421C20.404 20.3421 20.5618 20.4017 20.7196 20.5208L20.9168 20.1832C20.7196 20.0244 20.5224 19.9648 20.2462 19.9648C19.6348 19.9648 19.2404 20.3818 19.2404 20.9576ZM23.0666 20.9576V20.0045H22.6524V20.2428C22.5144 20.0641 22.3172 19.9648 22.0608 19.9648C21.5282 19.9648 21.1141 20.3818 21.1141 20.9576C21.1141 21.5335 21.5282 21.9505 22.0608 21.9505C22.3369 21.9505 22.5341 21.8512 22.6524 21.6725V21.9108H23.0666V20.9576ZM21.548 20.9576C21.548 20.6201 21.7649 20.3421 22.1199 20.3421C22.4552 20.3421 22.6919 20.6002 22.6919 20.9576C22.6919 21.2952 22.4552 21.5732 22.1199 21.5732C21.7649 21.5533 21.548 21.2952 21.548 20.9576ZM16.5975 19.9648C16.0453 19.9648 15.6508 20.3619 15.6508 20.9576C15.6508 21.5533 16.0453 21.9505 16.6172 21.9505C16.8933 21.9505 17.1695 21.871 17.3864 21.6923L17.1892 21.3945C17.0314 21.5136 16.8342 21.593 16.6369 21.593C16.3806 21.593 16.1242 21.4739 16.065 21.1363H17.4653V20.9775C17.485 20.3619 17.13 19.9648 16.5975 19.9648ZM16.5975 20.3222C16.8539 20.3222 17.0314 20.4811 17.0709 20.7789H16.0847C16.1242 20.5208 16.3017 20.3222 16.5975 20.3222ZM26.8732 20.9576V19.25H26.459V20.2428C26.3209 20.0641 26.1237 19.9648 25.8673 19.9648C25.3348 19.9648 24.9206 20.3818 24.9206 20.9576C24.9206 21.5335 25.3348 21.9505 25.8673 21.9505C26.1434 21.9505 26.3406 21.8512 26.459 21.6725V21.9108H26.8732V20.9576ZM25.3545 20.9576C25.3545 20.6201 25.5714 20.3421 25.9264 20.3421C26.2617 20.3421 26.4984 20.6002 26.4984 20.9576C26.4984 21.2952 26.2617 21.5732 25.9264 21.5732C25.5714 21.5533 25.3545 21.2952 25.3545 20.9576ZM11.509 20.9576V20.0045H11.0948V20.2428C10.9567 20.0641 10.7595 19.9648 10.5031 19.9648C9.97059 19.9648 9.55641 20.3818 9.55641 20.9576C9.55641 21.5335 9.97059 21.9505 10.5031 21.9505C10.7792 21.9505 10.9765 21.8512 11.0948 21.6725V21.9108H11.509V20.9576ZM9.97059 20.9576C9.97059 20.6201 10.1876 20.3421 10.5426 20.3421C10.8779 20.3421 11.1145 20.6002 11.1145 20.9576C11.1145 21.2952 10.8779 21.5732 10.5426 21.5732C10.1876 21.5533 9.97059 21.2952 9.97059 20.9576Z" fill="black"/>
<path d="M19.5956 5.5293H13.3828V16.7681H19.5956V5.5293Z" fill="#FF5F00"/>
<path d="M13.7767 11.1483C13.7767 8.86485 14.8417 6.83948 16.4787 5.52895C15.2756 4.57584 13.757 4 12.1003 4C8.17539 4 5 7.1969 5 11.1483C5 15.0998 8.17539 18.2967 12.1003 18.2967C13.757 18.2967 15.2756 17.7208 16.4787 16.7677C14.8417 15.4771 13.7767 13.4318 13.7767 11.1483Z" fill="#EB001B"/>
<path d="M27.9768 11.1483C27.9768 15.0998 24.8014 18.2967 20.8765 18.2967C19.2198 18.2967 17.7011 17.7208 16.498 16.7677C18.1548 15.4572 19.2001 13.4318 19.2001 11.1483C19.2001 8.86485 18.135 6.83948 16.498 5.52895C17.7011 4.57584 19.2198 4 20.8765 4C24.8014 4 27.9768 7.21676 27.9768 11.1483Z" fill="#F79E1B"/>
</g>
<defs>
<clipPath id="clip0_13587_49329">
<rect width="34" height="26" fill="white"/>
</clipPath>
</defs>
</svg>
