<svg width="21" height="22" viewBox="0 0 21 22" fill="none" xmlns="http://www.w3.org/2000/svg">
<path d="M10.909 4.95117C9.86708 4.95117 8.86785 5.37594 8.13112 6.1321C7.39439 6.88826 6.98047 7.91375 6.98047 8.98309C6.98047 10.0524 7.39435 11.078 8.13112 11.8341C8.86789 12.5902 9.86708 13.015 10.909 13.015C11.9509 13.015 12.9502 12.5902 13.6869 11.8341C14.4236 11.0779 14.8375 10.0524 14.8375 8.98309C14.8365 7.91406 14.4223 6.88914 13.6857 6.13329C12.9493 5.37729 11.9506 4.95221 10.909 4.95117ZM10.909 11.671C10.2144 11.671 9.5482 11.3878 9.05713 10.8837C8.56591 10.3797 8.28998 9.69601 8.28998 8.98309C8.28998 8.27017 8.56591 7.58647 9.05713 7.08248C9.5482 6.57834 10.2144 6.29515 10.909 6.29515C11.6036 6.29515 12.2698 6.57834 12.7609 7.08248C13.2521 7.58647 13.528 8.27017 13.528 8.98309C13.528 9.69601 13.2521 10.3797 12.7609 10.8837C12.2698 11.3878 11.6036 11.671 10.909 11.671Z" fill="#333333"/>
<path d="M10.91 1.5918C8.82686 1.59405 6.82989 2.44438 5.3565 3.95619C3.88345 5.46801 3.0549 7.51772 3.05273 9.65579C3.05273 14.0022 9.74622 20.4076 10.9098 20.4076C12.0734 20.4076 18.7669 14.0022 18.7669 9.65579C18.7647 7.51788 17.9362 5.46836 16.4631 3.95619C14.9901 2.44438 12.9929 1.59402 10.9097 1.5918H10.91ZM10.91 19.0105C9.63581 18.235 4.3624 12.9914 4.3624 9.65564C4.3624 7.87338 5.05225 6.16415 6.2802 4.90412C7.508 3.64385 9.1734 2.93585 10.9099 2.93585C12.6464 2.93585 14.3119 3.64385 15.5396 4.90412C16.7675 6.16423 17.4574 7.87345 17.4574 9.65564C17.4574 12.9914 12.1838 18.2348 10.9098 19.0105H10.91Z" fill="#333333"/>
</svg>
