<svg width="21" height="20" viewBox="0 0 21 20" fill="none" xmlns="http://www.w3.org/2000/svg">
<path fill-rule="evenodd" clip-rule="evenodd" d="M7.49126 4.22947C4.05926 4.61264 1.38672 7.52764 1.38672 11.0618C1.38672 14.8564 4.46718 17.9368 8.26172 17.9368C10.4241 17.9368 12.3546 16.9363 13.6155 15.3734C17.048 14.9893 19.7201 12.0748 19.7201 8.54102C19.7201 4.74647 16.6396 1.66602 12.8451 1.66602C10.6822 1.66602 8.75168 2.66656 7.49126 4.22947ZM8.26172 5.10352C11.5503 5.10352 14.2201 7.77331 14.2201 11.0618C14.2201 14.3504 11.5503 17.0202 8.26172 17.0202C4.97318 17.0202 2.30339 14.3504 2.30339 11.0618C2.30339 7.77331 4.97318 5.10352 8.26172 5.10352ZM14.3186 14.3156C16.8953 13.6592 18.8034 11.3213 18.8034 8.54102C18.8034 5.25247 16.1336 2.58268 12.8451 2.58268C11.2647 2.58268 9.82738 3.19914 8.76039 4.20472C9.17426 4.23452 9.57805 4.30097 9.96855 4.40089C10.7848 3.83256 11.7762 3.49935 12.8451 3.49935C15.6276 3.49935 17.8867 5.75847 17.8867 8.54102C17.8867 10.6301 16.613 12.4245 14.8008 13.1885C14.6733 13.5808 14.5111 13.9576 14.3186 14.3156ZM15.0712 12.0133C16.2129 11.2796 16.9701 9.99806 16.9701 8.54102C16.9701 6.26447 15.1216 4.41602 12.8451 4.41602C12.2231 4.41602 11.6332 4.55397 11.1038 4.80102C13.4821 5.8836 15.1367 8.28114 15.1367 11.0618C15.1367 11.385 15.1143 11.7026 15.0712 12.0133Z" fill="#333333"/>
<path d="M11.6374 12.0475L10.804 13.4525L9.13737 12.4883V14.4167H7.4707V12.4883L5.80404 13.4525L4.9707 12.0475L6.66515 11.0833L4.99848 10.1191L5.80404 8.71419L7.4707 9.67837V7.75H9.13737V9.67837L10.804 8.71419L11.6096 10.1191L9.94293 11.0833L11.6374 12.0475Z" fill="#333333"/>
</svg>
