<svg width="20" height="20" viewBox="0 0 20 20" fill="none" xmlns="http://www.w3.org/2000/svg">
    <path d="M18.4614 7.40512H1.53837C1.42509 7.40512 1.33325 7.31328 1.33325 7.2C1.33325 7.08672 1.4251 6.99487 1.53837 6.99487H18.4614C18.5747 6.99487 18.6666 7.08671 18.6666 7.2C18.6666 7.31327 18.5747 7.40512 18.4614 7.40512ZM7.71528 11.1658H5.29904C5.18575 11.1658 5.09392 11.074 5.09392 10.9607C5.09392 10.8474 5.18576 10.7556 5.29904 10.7556H7.71528C7.82857 10.7556 7.9204 10.8474 7.9204 10.9607C7.9204 11.074 7.82856 11.1658 7.71528 11.1658Z" stroke="#333333"/>
    <path d="M4.35889 3.49463L4.358 3.49463C2.83209 3.49674 1.59561 4.73316 1.59351 6.25896V6.25986L1.59351 13.7814L1.59351 13.7823C1.59561 15.3082 2.83203 16.5447 4.35784 16.5468H4.35873L15.6409 16.5468L15.6418 16.5468C17.1677 16.5447 18.4042 15.3082 18.4063 13.7824V13.7815L18.4063 6.26001L18.4063 6.25912C18.4042 4.73322 17.1678 3.49674 15.642 3.49463H15.6411H15.6409L4.35889 3.49463ZM15.6404 16.657H4.3596C2.77183 16.6553 1.48519 15.3687 1.48325 13.7812V6.26037C1.48519 4.67276 2.77168 3.38631 4.35904 3.38437H15.6406C17.2283 3.38631 18.5148 4.673 18.5166 6.26053V13.7807C18.5148 15.3686 17.2281 16.6553 15.6404 16.657Z" stroke="#333333" stroke-width="1.3"/>
</svg>
