<svg width="21" height="22" viewBox="0 0 21 22" fill="none" xmlns="http://www.w3.org/2000/svg">
<path d="M17.9176 4.1582H3.38301C2.28217 4.1582 1.38672 5.07722 1.38672 6.20702V16.6489C1.38672 17.7787 2.28217 18.6977 3.38301 18.6977H17.9176C19.0183 18.6977 19.9138 17.7787 19.9138 16.6489V6.20702C19.9138 5.07722 19.0183 4.1582 17.9176 4.1582V4.1582ZM3.38301 5.27234H17.9176C18.4197 5.27234 18.8282 5.69159 18.8282 6.20702V7.73823H2.47229V6.20702C2.47229 5.69159 2.88079 5.27234 3.38301 5.27234ZM17.9176 17.5835H3.38301C2.88079 17.5835 2.47229 17.1643 2.47229 16.6489V8.85237H18.8282V16.6489C18.8282 17.1643 18.4197 17.5835 17.9176 17.5835Z" fill="#333333"/>
<path d="M16.4634 11.6172H11.8123C11.5127 11.6172 11.2695 11.8667 11.2695 12.1743C11.2695 12.4819 11.5127 12.7313 11.8123 12.7313H16.4634C16.7631 12.7313 17.0062 12.4819 17.0062 12.1743C17.0062 11.8667 16.7631 11.6172 16.4634 11.6172Z" fill="#333333"/>
<path d="M16.4633 14.5996H13.5565C13.2567 14.5996 13.0137 14.849 13.0137 15.1567C13.0137 15.4642 13.2567 15.7137 13.5565 15.7137H16.4633C16.763 15.7137 17.0061 15.4642 17.0061 15.1567C17.0061 14.849 16.763 14.5996 16.4633 14.5996Z" fill="#333333"/>
<path d="M8.12638 11.7804C8.02461 11.6759 7.88651 11.6172 7.74262 11.6172H4.83575C4.53595 11.6172 4.29297 11.8667 4.29297 12.1743V15.1578C4.29297 15.4653 4.53595 15.7148 4.83575 15.7148H8.90536C9.20517 15.7148 9.44815 15.4653 9.44815 15.1578V13.3677C9.44815 13.2199 9.3909 13.0782 9.28913 12.9737L8.12638 11.7804ZM8.36258 14.6007H5.37854V12.7313H7.51773L8.36258 13.5984V14.6007Z" fill="#333333"/>
</svg>
