<svg width="20" height="20" viewBox="0 0 20 20" fill="none" xmlns="http://www.w3.org/2000/svg">
    <g clip-path="url(#clip0_490_3034)">
        <path d="M17.429 6.5848V6.0848H16.929H2.17457H1.67457V6.5848L1.67457 12.1736L1.67457 12.1743C1.67647 13.5604 2.79965 14.6837 4.1857 14.6856H4.18638H7.76337C7.85761 14.6856 7.93402 14.762 7.93402 14.8562C7.93402 14.9504 7.8576 15.0269 7.76337 15.0269H4.18708C2.61171 15.0251 1.33512 13.7486 1.33325 12.1735V5.019C1.33325 3.44368 2.61031 2.16663 4.18563 2.16663H14.9167C16.4921 2.1685 17.7686 3.44513 17.7703 5.02027V8.59676C17.7703 8.691 17.6939 8.76741 17.5996 8.76741C17.5054 8.76741 17.429 8.69099 17.429 8.59676V6.5848ZM16.929 5.74348H17.429V5.24348V5.01994V5.01925C17.4271 3.63311 16.3039 2.50988 14.9179 2.50798H14.9172H4.18563C2.7988 2.50798 1.67455 3.63222 1.67455 5.01906V5.01999V5.24348V5.74348H2.17455H16.929ZM5.08074 9.66162C4.98649 9.66162 4.91009 9.58521 4.91009 9.49097C4.91009 9.39673 4.9865 9.32032 5.08074 9.32032H6.86916C6.9634 9.32032 7.0398 9.39672 7.0398 9.49097C7.0398 9.58521 6.96339 9.66162 6.86916 9.66162H5.08074Z" stroke="#333333"/>
        <path d="M16.4501 16.8542V18.7496H15.5501V16.8542V15.7272L14.5746 16.2915L12.9311 17.2423L12.4968 16.51L14.1582 15.5646L15.1429 15.0043L14.1623 14.437L12.5227 13.4885L12.9394 12.7617L14.5746 13.7077L15.5501 14.272V13.1451V11.2496H16.4501V13.1451V14.272L17.4256 13.7077L19.0608 12.7617L19.4775 13.4885L17.8379 14.437L16.8573 15.0043L17.842 15.5646L19.5034 16.51L19.069 17.2423L17.4256 16.2915L16.4501 15.7272V16.8542Z" stroke="#333333" stroke-width="1.3"/>
    </g>
    <defs>
        <clipPath id="clip0_490_3034">
            <rect width="20" height="20" fill="white"/>
        </clipPath>
    </defs>
</svg>
