<svg width="25" height="24" viewBox="0 0 25 24" fill="none" xmlns="http://www.w3.org/2000/svg">
<mask id="mask0_63_4939" style="mask-type:luminance" maskUnits="userSpaceOnUse" x="2" y="2" width="21" height="20">
<path fill-rule="evenodd" clip-rule="evenodd" d="M2.01953 12C2.01953 6.48 6.49953 2 12.0195 2C17.5395 2 22.0195 6.48 22.0195 12C22.0195 17.52 17.5395 22 12.0195 22C6.49953 22 2.01953 17.52 2.01953 12ZM4.01953 12C4.01953 16.42 7.59953 20 12.0195 20C16.4395 20 20.0195 16.42 20.0195 12C20.0195 7.58 16.4395 4 12.0195 4C7.59953 4 4.01953 7.58 4.01953 12Z" fill="white"/>
</mask>
<g mask="url(#mask0_63_4939)">
<rect x="0.0195312" width="24" height="24" fill="#BABAC0"/>
</g>
</svg>
