<svg width="20" height="20" viewBox="0 0 20 20" fill="none" xmlns="http://www.w3.org/2000/svg">
    <path d="M3.75 13H4.25V12.5V8.75C4.25 6.16927 5.96046 3.9789 8.30861 3.25467L8.71895 3.12811L8.65582 2.70336C8.64514 2.63154 8.63777 2.59229 8.63292 2.56647C8.62722 2.53612 8.625 2.52432 8.625 2.5C8.625 1.74239 9.24239 1.125 10 1.125C10.7576 1.125 11.375 1.74239 11.375 2.5C11.375 2.52432 11.3728 2.53612 11.3671 2.56647C11.3622 2.59229 11.3549 2.63154 11.3442 2.70336L11.281 3.12814L11.6914 3.25468C14.0401 3.9789 15.75 6.16922 15.75 8.75V12.5V13H16.25C17.0076 13 17.625 13.6174 17.625 14.375C17.625 15.1326 17.0076 15.75 16.25 15.75H13.6229C13.6243 15.7085 13.625 15.6668 13.625 15.625C13.625 15.583 13.6227 15.5413 13.618 15.5H16.25C16.8705 15.5 17.375 14.9955 17.375 14.375C17.375 13.7545 16.8705 13.25 16.25 13.25H15.625C15.5918 13.25 15.5601 13.2368 15.5366 13.2134C15.5132 13.1899 15.5 13.1582 15.5 13.125V8.75C15.5 5.71698 13.033 3.25 10 3.25C6.96698 3.25 4.5 5.71698 4.5 8.75V13.125C4.5 13.1582 4.48683 13.1899 4.46339 13.2134C4.43995 13.2368 4.40815 13.25 4.375 13.25H3.75C3.12948 13.25 2.625 13.7545 2.625 14.375C2.625 14.9955 3.12948 15.5 3.75 15.5H6.38196C6.37735 15.5413 6.375 15.583 6.375 15.625C6.375 15.6668 6.37571 15.7085 6.37712 15.75H3.75C2.99239 15.75 2.375 15.1326 2.375 14.375C2.375 13.6174 2.99239 13 3.75 13ZM12.625 15.625C12.625 15.6669 12.624 15.7086 12.6221 15.75H12.3718C12.3739 15.7086 12.375 15.6669 12.375 15.625C12.375 15.5918 12.3882 15.5601 12.4116 15.5366C12.4351 15.5132 12.4668 15.5 12.5 15.5C12.5332 15.5 12.5649 15.5132 12.5884 15.5366C12.6118 15.5601 12.625 15.5918 12.625 15.625ZM8.61804 15.5H11.382C11.3773 15.5413 11.375 15.583 11.375 15.625C11.375 15.6671 11.3731 15.7088 11.3694 15.75H8.63064C8.62691 15.7088 8.625 15.6671 8.625 15.625C8.625 15.583 8.62265 15.5413 8.61804 15.5ZM7.41161 15.5366C7.43505 15.5132 7.46685 15.5 7.5 15.5C7.53315 15.5 7.56495 15.5132 7.58839 15.5366C7.61183 15.5601 7.625 15.5918 7.625 15.625C7.625 15.6669 7.62609 15.7086 7.62825 15.75H7.37794C7.37599 15.7086 7.375 15.6669 7.375 15.625C7.375 15.5918 7.38817 15.5601 7.41161 15.5366ZM10 18.25C8.95532 18.25 8.05084 17.636 7.62865 16.75H7.90861C8.31017 17.4937 9.09691 18 10 18C10.9031 18 11.6898 17.4937 12.0914 16.75H12.3714C11.9492 17.636 11.0447 18.25 10 18.25ZM8.88036 2.57675C8.88081 2.57998 8.88127 2.58309 8.88173 2.58605L8.91077 3.0795L9.42807 3.02887C9.61799 3.01029 9.80854 3 10 3C10.1915 3 10.3827 3.01029 10.5718 3.02886L11.1206 3.08273V2.56883C11.1229 2.55062 11.125 2.52713 11.125 2.5C11.125 1.87948 10.6205 1.375 10 1.375C9.37948 1.375 8.875 1.87948 8.875 2.5C8.875 2.53183 8.8778 2.55833 8.88036 2.57675ZM11.1119 2.61939L11.1124 2.61685C11.112 2.6193 11.1115 2.62121 11.1119 2.61939Z" stroke="#333333"/>
</svg>
