<svg width="24" height="24" viewBox="0 0 24 24" fill="none" xmlns="http://www.w3.org/2000/svg">
<path d="M12.4785 20.6004C12.1445 20.4535 11.8105 20.3066 11.4765 20.1597C10.6757 19.8068 9.87502 19.4538 9.07193 19.1008C8.10775 18.6744 7.14121 18.2503 6.17703 17.8239C5.33841 17.4544 4.50215 17.0848 3.66353 16.7176C3.25844 16.5399 2.85571 16.3504 2.44587 16.1798C2.43877 16.1775 2.43403 16.1751 2.42929 16.1727C2.58564 16.4452 2.742 16.7176 2.89835 16.99C2.89835 16.6229 2.89835 16.2557 2.89835 15.8861C2.89835 15.0025 2.89835 14.1212 2.89835 13.2376C2.89835 12.1739 2.89835 11.1102 2.89835 10.0465C2.89835 9.12737 2.89835 8.20584 2.89835 7.28667C2.89835 6.83656 2.90783 6.38645 2.89835 5.93871C2.89835 5.93161 2.89835 5.92687 2.89835 5.91976C2.42218 6.1922 1.94838 6.46463 1.47222 6.73706C1.80625 6.88394 2.14027 7.03082 2.4743 7.1777C3.27502 7.53067 4.07574 7.88365 4.87882 8.23663C5.843 8.66305 6.80955 9.0871 7.77373 9.51352C8.61235 9.88308 9.4486 10.2526 10.2872 10.6198C10.6923 10.7975 11.095 10.987 11.5049 11.1576C11.512 11.16 11.5167 11.1623 11.5215 11.1647C11.3651 10.8923 11.2088 10.6198 11.0524 10.3474C11.0524 10.7146 11.0524 11.0818 11.0524 11.4513C11.0524 12.335 11.0524 13.2162 11.0524 14.0999C11.0524 15.1636 11.0524 16.2272 11.0524 17.2909C11.0524 18.2101 11.0524 19.1316 11.0524 20.0508C11.0524 20.5009 11.0453 20.951 11.0524 21.3987C11.0524 21.4058 11.0524 21.4106 11.0524 21.4177C11.0524 21.9128 11.4883 22.389 12 22.3653C12.5141 22.3416 12.9476 21.9483 12.9476 21.4177C12.9476 21.0505 12.9476 20.6833 12.9476 20.3137C12.9476 19.4301 12.9476 18.5488 12.9476 17.6652C12.9476 16.6015 12.9476 15.5379 12.9476 14.4742C12.9476 13.555 12.9476 12.6335 12.9476 11.7143C12.9476 11.2642 12.9547 10.8141 12.9476 10.3664C12.9476 10.3592 12.9476 10.3545 12.9476 10.3474C12.9476 10.0442 12.7747 9.66039 12.4785 9.5301C12.1445 9.38322 11.8105 9.23635 11.4765 9.08947C10.6757 8.73649 9.87502 8.38351 9.07193 8.03053C8.10775 7.60411 7.14121 7.18006 6.17703 6.75365C5.33841 6.38408 4.50215 6.01452 3.66353 5.64733C3.25844 5.46729 2.85097 5.28961 2.44587 5.10957C2.44113 5.1072 2.43403 5.10483 2.42929 5.10246C2.28241 5.01718 2.12132 4.97454 1.95075 4.97217C1.78019 4.97217 1.62146 5.01481 1.47222 5.10246C1.1832 5.27066 1.00316 5.58574 1.00316 5.91976C1.00316 6.28696 1.00316 6.65415 1.00316 7.02371C1.00316 7.90734 1.00316 8.78861 1.00316 9.67224C1.00316 10.7359 1.00316 11.7996 1.00316 12.8633C1.00316 13.7824 1.00316 14.704 1.00316 15.6231C1.00316 16.0732 0.996052 16.5234 1.00316 16.9711C1.00316 16.9782 1.00316 16.9829 1.00316 16.99C1.00316 17.2933 1.17609 17.6771 1.47222 17.8073C1.80625 17.9542 2.14027 18.1011 2.4743 18.248C3.27502 18.601 4.07574 18.9539 4.87882 19.3069C5.843 19.7333 6.80955 20.1574 7.77373 20.5838C8.61235 20.9534 9.4486 21.3229 10.2872 21.6901C10.6923 21.8702 11.0998 22.0478 11.5049 22.2279C11.5096 22.2302 11.5167 22.2326 11.5215 22.235C11.7631 22.3416 11.9858 22.4032 12.2511 22.3297C12.4714 22.2681 12.7083 22.1 12.8173 21.8938C12.9334 21.6735 12.9926 21.4082 12.9121 21.1642C12.8434 20.9486 12.6989 20.6975 12.4785 20.6004Z" fill="#BABAC0"/>
<path d="M21.5703 16.1727C21.2363 16.3196 20.9022 16.4665 20.5682 16.6134C19.7675 16.9664 18.9668 17.3193 18.1637 17.6723C17.1995 18.0987 16.233 18.5228 15.2688 18.9492C14.4302 19.3188 13.5939 19.6883 12.7553 20.0555C12.3502 20.2332 11.9404 20.4061 11.5376 20.5933C11.5329 20.5956 11.5258 20.598 11.521 20.6004C11.9972 20.8728 12.471 21.1452 12.9472 21.4177C12.9472 21.0505 12.9472 20.6833 12.9472 20.3137C12.9472 19.4301 12.9472 18.5488 12.9472 17.6652C12.9472 16.6015 12.9472 15.5379 12.9472 14.4742C12.9472 13.555 12.9472 12.6335 12.9472 11.7143C12.9472 11.2642 12.9567 10.8141 12.9472 10.3664C12.9472 10.3592 12.9472 10.3545 12.9472 10.3474C12.7908 10.6198 12.6345 10.8923 12.4781 11.1647C12.8121 11.0178 13.1462 10.8709 13.4802 10.7241C14.2809 10.3711 15.0816 10.0181 15.8847 9.66513C16.8489 9.23872 17.8154 8.81467 18.7796 8.38825C19.6182 8.01869 20.4545 7.64912 21.2931 7.28193C21.6982 7.10426 22.1081 6.93132 22.5108 6.74417C22.5155 6.7418 22.5226 6.73943 22.5274 6.73706C22.0512 6.46463 21.5774 6.1922 21.1012 5.91976C21.1012 6.28696 21.1012 6.65415 21.1012 7.02371C21.1012 7.90734 21.1012 8.78861 21.1012 9.67224C21.1012 10.7359 21.1012 11.7996 21.1012 12.8633C21.1012 13.7824 21.1012 14.704 21.1012 15.6231C21.1012 16.0732 21.0941 16.5234 21.1012 16.9711C21.1012 16.9782 21.1012 16.9829 21.1012 16.99C21.1012 17.4852 21.5371 17.9613 22.0488 17.9376C22.5629 17.9139 22.9964 17.5207 22.9964 16.99C22.9964 16.6229 22.9964 16.2557 22.9964 15.8861C22.9964 15.0025 22.9964 14.1212 22.9964 13.2376C22.9964 12.1739 22.9964 11.1102 22.9964 10.0465C22.9964 9.12737 22.9964 8.20584 22.9964 7.28667C22.9964 6.83656 23.0035 6.38645 22.9964 5.93871C22.9964 5.93161 22.9964 5.92687 22.9964 5.91976C22.9964 5.58574 22.8164 5.27066 22.5274 5.10246C22.3805 5.01718 22.2194 4.97454 22.0488 4.97217C21.8783 4.97217 21.7195 5.01481 21.5703 5.10246C21.2363 5.24934 20.9022 5.39622 20.5682 5.54309C19.7675 5.89607 18.9668 6.24905 18.1637 6.60203C17.1995 7.02845 16.233 7.4525 15.2688 7.87892C14.4302 8.24848 13.5939 8.61804 12.7553 8.98523C12.3502 9.16291 11.938 9.33111 11.5376 9.52299C11.5329 9.52536 11.5258 9.52773 11.521 9.5301C11.2249 9.66039 11.052 10.0442 11.052 10.3474C11.052 10.7146 11.052 11.0818 11.052 11.4513C11.052 12.335 11.052 13.2162 11.052 14.0999C11.052 15.1636 11.052 16.2272 11.052 17.2909C11.052 18.2101 11.052 19.1316 11.052 20.0508C11.052 20.5009 11.0449 20.951 11.052 21.3987C11.052 21.4058 11.052 21.4106 11.052 21.4177C11.052 21.7517 11.232 22.0668 11.521 22.235C11.6679 22.3203 11.829 22.3629 11.9996 22.3653C12.1701 22.3653 12.3289 22.3226 12.4781 22.235C12.8121 22.0881 13.1462 21.9412 13.4802 21.7943C14.2809 21.4414 15.0816 21.0884 15.8847 20.7354C16.8489 20.309 17.8154 19.8849 18.7796 19.4585C19.6182 19.089 20.4545 18.7194 21.2931 18.3522C21.6982 18.1745 22.1104 18.0063 22.5108 17.8145C22.5155 17.8121 22.5226 17.8097 22.5274 17.8073C22.7311 17.7173 22.9064 17.4449 22.9633 17.2412C23.0249 17.0137 22.9964 16.7129 22.8685 16.5115C22.7382 16.3101 22.5439 16.1301 22.3023 16.0756C22.2194 16.0638 22.1341 16.0519 22.0512 16.0424C21.8783 16.0448 21.7195 16.0875 21.5703 16.1727Z" fill="#BABAC0"/>
<path d="M21.5701 5.10269C21.2361 5.24957 20.902 5.39645 20.568 5.54332C19.7673 5.8963 18.9666 6.24928 18.1635 6.60226C17.1993 7.02868 16.2328 7.45273 15.2686 7.87915C14.43 8.24871 13.5937 8.61827 12.7551 8.98546C12.35 9.16314 11.9402 9.33607 11.5374 9.52322C11.5327 9.52559 11.5256 9.52796 11.5208 9.53033C11.8407 9.53033 12.1581 9.53033 12.4779 9.53033C12.1439 9.38345 11.8099 9.23658 11.4758 9.0897C10.6751 8.73672 9.87439 8.38374 9.07131 8.03076C8.10713 7.60434 7.14058 7.18029 6.1764 6.75388C5.33778 6.38432 4.50153 6.01475 3.66291 5.64756C3.25781 5.46989 2.85508 5.28037 2.44525 5.1098C2.43814 5.10743 2.4334 5.10506 2.42866 5.10269C2.35286 5.68073 2.27705 6.25639 2.20124 6.83442C2.53527 6.70176 2.8693 6.57147 3.20332 6.4388C4.00167 6.12373 4.80239 5.80865 5.60074 5.49121C6.56729 5.1098 7.53383 4.72839 8.50038 4.34699C9.339 4.01533 10.1776 3.68367 11.0162 3.35438C11.4213 3.19329 11.8335 3.04641 12.2339 2.87348C12.2386 2.87111 12.2457 2.86874 12.2505 2.86637C12.0823 2.86637 11.9141 2.86637 11.7459 2.86637C12.0799 2.99903 12.4139 3.12933 12.748 3.26199C13.5463 3.57706 14.347 3.89214 15.1454 4.20958C16.1119 4.59099 17.0785 4.9724 18.045 5.35381C18.8837 5.68546 19.7223 6.01712 20.5609 6.34641C20.966 6.5075 21.3687 6.68044 21.7786 6.82732C21.7833 6.82969 21.7904 6.83205 21.7951 6.83442C22.0107 6.91971 22.3353 6.85101 22.5248 6.73966C22.7214 6.62358 22.9086 6.39853 22.9607 6.17348C23.0152 5.93184 23.0033 5.65941 22.8659 5.44383C22.8162 5.37986 22.7664 5.3159 22.7167 5.25194C22.5982 5.13349 22.4585 5.05294 22.2974 5.00793C21.9633 4.87527 21.6293 4.74498 21.2953 4.61231C20.4922 4.29487 19.6891 3.97742 18.8884 3.66235C17.9195 3.27857 16.9482 2.89717 15.9793 2.51339C15.143 2.1841 14.3068 1.85244 13.4705 1.52315C13.0702 1.36443 12.6722 1.19386 12.2647 1.04699C12.0065 0.954595 11.8122 1.01619 11.5943 1.10147C11.3858 1.18439 11.1773 1.2673 10.9689 1.34785C10.2132 1.64634 9.45508 1.94483 8.69938 2.24332C7.7352 2.62473 6.76865 3.00614 5.80447 3.38755C4.93268 3.73105 4.06327 4.07455 3.19148 4.42042C2.71531 4.60757 2.23915 4.79709 1.76535 4.98424C1.74403 4.99372 1.72271 5.00083 1.69902 5.0103C1.5474 5.06953 1.39815 5.13586 1.27971 5.25431C1.13046 5.40355 1.04754 5.59307 1.01912 5.79918C0.995427 5.97211 1.01675 6.12847 1.08308 6.28956C1.15652 6.46249 1.29392 6.66386 1.47159 6.74203C1.80799 6.88891 2.14439 7.03816 2.47841 7.18503C3.28387 7.54038 4.08932 7.89573 4.89478 8.25108C5.8637 8.6775 6.83261 9.10391 7.80153 9.5327C8.63541 9.89989 9.4693 10.2671 10.3055 10.6366C10.7059 10.812 11.1063 10.992 11.5066 11.1649C11.5114 11.1673 11.5137 11.1673 11.5185 11.1697H11.5208C11.5966 11.2005 11.6725 11.2336 11.7483 11.2644C11.8738 11.3047 11.9994 11.3094 12.1273 11.281C12.26 11.2621 12.3713 11.2147 12.4945 11.1626C12.5371 11.1436 12.5821 11.1247 12.6248 11.1057C12.8333 11.0133 13.0394 10.9233 13.2478 10.8309C14.0035 10.4969 14.7616 10.1652 15.5173 9.83119C16.4815 9.40714 17.4457 8.98073 18.4099 8.55668C19.284 8.17053 20.1582 7.78676 21.0323 7.40061C21.5109 7.18977 21.987 6.97893 22.4656 6.77046C22.4869 6.76098 22.5082 6.75151 22.5319 6.74203C22.7356 6.65201 22.9109 6.37958 22.9678 6.17584C23.0294 5.94842 23.001 5.64756 22.873 5.4462C22.7427 5.24483 22.5485 5.06479 22.3068 5.0103C22.2239 4.99846 22.1386 4.98661 22.0557 4.97714C21.8781 4.97477 21.7193 5.01741 21.5701 5.10269Z" fill="#BABAC0"/>
<path d="M16.3164 8.00704C16.3164 8.90962 16.3164 9.81221 16.3164 10.7124C16.3164 10.8403 16.3164 10.9659 16.3164 11.0938C16.3164 11.5889 16.7523 12.0651 17.264 12.0414C17.7781 12.0177 18.2116 11.6245 18.2116 11.0938C18.2116 10.1912 18.2116 9.28866 18.2116 8.38844C18.2116 8.26052 18.2116 8.13496 18.2116 8.00704C18.2116 7.51192 17.7757 7.03575 17.264 7.05944C16.7499 7.08076 16.3164 7.47402 16.3164 8.00704Z" fill="#BABAC0"/>
<path d="M6.96315 4.78523C7.29718 4.92263 7.62883 5.06003 7.96286 5.19743C8.76358 5.52672 9.56193 5.85601 10.3626 6.1853C11.3316 6.58329 12.2981 6.98128 13.267 7.37927C14.1033 7.72277 14.9395 8.06864 15.7782 8.41215C16.1832 8.57798 16.586 8.75802 16.9982 8.91437C17.0029 8.91674 17.01 8.91911 17.0148 8.92148C17.2256 9.00913 17.5573 8.93569 17.7444 8.82672C17.941 8.71064 18.1282 8.48558 18.1803 8.26053C18.2348 8.01889 18.2229 7.74646 18.0855 7.53088C18.0358 7.46692 17.986 7.40296 17.9363 7.33899C17.8179 7.22055 17.6781 7.14 17.517 7.09499C17.183 6.95759 16.8513 6.82019 16.5173 6.68279C15.7166 6.3535 14.9182 6.02421 14.1175 5.69492C13.1486 5.29693 12.182 4.89894 11.2131 4.50095C10.3769 4.15744 9.54061 3.81157 8.70199 3.46807C8.29689 3.30224 7.89416 3.1222 7.48196 2.96584C7.47722 2.96347 7.47011 2.96111 7.46537 2.95874C7.25453 2.87108 6.92288 2.94452 6.73573 3.0535C6.5391 3.16958 6.35195 3.39463 6.29983 3.61968C6.24534 3.86132 6.25719 4.13375 6.39459 4.34933C6.44434 4.4133 6.49409 4.47726 6.54384 4.54122C6.66229 4.65967 6.80206 4.74022 6.96315 4.78523Z" fill="#BABAC0"/>
</svg>
