<svg width="20" height="20" viewBox="0 0 20 20" fill="none" xmlns="http://www.w3.org/2000/svg">
<g id="paperclip">
<path id="Vector" d="M12.5 5.83335L7.08334 11.25C6.75182 11.5815 6.56557 12.0312 6.56557 12.5C6.56557 12.9689 6.75182 13.4185 7.08334 13.75C7.41486 14.0815 7.8645 14.2678 8.33334 14.2678C8.80218 14.2678 9.25182 14.0815 9.58334 13.75L15 8.33335C15.663 7.67031 16.0355 6.77104 16.0355 5.83335C16.0355 4.89567 15.663 3.9964 15 3.33335C14.337 2.67031 13.4377 2.29782 12.5 2.29782C11.5623 2.29782 10.663 2.67031 10 3.33335L4.58334 8.75002C3.58878 9.74458 3.03004 11.0935 3.03004 12.5C3.03004 13.9065 3.58878 15.2555 4.58334 16.25C5.5779 17.2446 6.92682 17.8033 8.33334 17.8033C9.73986 17.8033 11.0888 17.2446 12.0833 16.25L17.5 10.8334" stroke="#333333" stroke-width="1.8" stroke-linecap="round" stroke-linejoin="round"/>
</g>
</svg>
