<svg width="24" height="25" viewBox="0 0 24 25" fill="none" xmlns="http://www.w3.org/2000/svg">
<path d="M20.8371 4.43945H3.39554C2.07454 4.43945 1 5.514 1 6.835V19.0439C1 20.3649 2.07454 21.4395 3.39554 21.4395H20.8371C22.1579 21.4395 23.2324 20.3649 23.2324 19.0439V6.835C23.2324 5.514 22.1579 4.43945 20.8371 4.43945V4.43945ZM3.39554 5.74214H20.8371C21.4396 5.74214 21.9298 6.23234 21.9298 6.835V8.62534H2.30268V6.835C2.30268 6.23234 2.79288 5.74214 3.39554 5.74214ZM20.8371 20.1368H3.39554C2.79288 20.1368 2.30268 19.6466 2.30268 19.0439V9.92802H21.9298V19.0439C21.9298 19.6466 21.4396 20.1368 20.8371 20.1368Z" fill="#333333"/>
<path d="M19.0921 13.1602H13.5107C13.1511 13.1602 12.8594 13.4519 12.8594 13.8115C12.8594 14.1713 13.1511 14.4628 13.5107 14.4628H19.0921C19.4517 14.4628 19.7434 14.1713 19.7434 13.8115C19.7434 13.4519 19.4517 13.1602 19.0921 13.1602Z" fill="#333333"/>
<path d="M19.0927 16.6484H15.6045C15.2447 16.6484 14.9531 16.94 14.9531 17.2998C14.9531 17.6594 15.2447 17.9511 15.6045 17.9511H19.0927C19.4523 17.9511 19.744 17.6594 19.744 17.2998C19.744 16.94 19.4523 16.6484 19.0927 16.6484Z" fill="#333333"/>
<path d="M9.08838 13.351C8.96625 13.2289 8.80053 13.1602 8.62786 13.1602H5.13962C4.77986 13.1602 4.48828 13.4519 4.48828 13.8115V17.2999C4.48828 17.6595 4.77986 17.9512 5.13962 17.9512H10.0232C10.3829 17.9512 10.6745 17.6595 10.6745 17.2999V15.207C10.6745 15.0341 10.6058 14.8684 10.4837 14.7463L9.08838 13.351ZM9.37181 16.6486H5.79096V14.4628H8.35799L9.37181 15.4767V16.6486Z" fill="#333333"/>
</svg>
