<svg width="24" height="24" viewBox="0 0 24 24" fill="none" xmlns="http://www.w3.org/2000/svg">
    <path d="M3 19V21C3 21.2652 3.10536 21.5196 3.29289 21.7071C3.48043 21.8946 3.73478 22 4 22H20C20.2652 22 20.5196 21.8946 20.7071 21.7071C20.8946 21.5196 21 21.2652 21 21V19C20.9979 17.1441 20.2597 15.3649 18.9474 14.0526C17.6351 12.7403 15.8559 12.0021 14 12H10C8.14413 12.0021 6.36489 12.7403 5.05259 14.0526C3.7403 15.3649 3.00212 17.1441 3 19ZM10 14H14C15.3256 14.0016 16.5964 14.5289 17.5338 15.4662C18.4711 16.4036 18.9984 17.6744 19 19V20H5V19C5.00159 17.6744 5.52888 16.4036 6.46622 15.4662C7.40356 14.5289 8.67441 14.0016 10 14ZM16.5 6.5C16.5 5.60999 16.2361 4.73996 15.7416 3.99994C15.2471 3.25991 14.5443 2.68314 13.7221 2.34254C12.8998 2.00195 11.995 1.91283 11.1221 2.08647C10.2492 2.2601 9.44736 2.68868 8.81802 3.31802C8.18868 3.94736 7.7601 4.74918 7.58647 5.6221C7.41283 6.49501 7.50195 7.39981 7.84254 8.22208C8.18314 9.04434 8.75991 9.74715 9.49993 10.2416C10.24 10.7361 11.11 11 12 11C13.1931 10.9987 14.3369 10.5241 15.1805 9.68052C16.0241 8.83689 16.4987 7.69307 16.5 6.5ZM9.5 6.5C9.5 6.00555 9.64662 5.5222 9.92133 5.11108C10.196 4.69995 10.5865 4.37952 11.0433 4.1903C11.5001 4.00108 12.0028 3.95158 12.4877 4.04804C12.9727 4.1445 13.4181 4.3826 13.7678 4.73223C14.1174 5.08187 14.3555 5.52732 14.452 6.01228C14.5484 6.49723 14.4989 6.9999 14.3097 7.45671C14.1205 7.91353 13.8 8.30397 13.3889 8.57868C12.9778 8.85338 12.4945 9 12 9C11.3372 8.99921 10.7018 8.73556 10.2331 8.26689C9.76444 7.79822 9.50079 7.1628 9.5 6.5Z" fill="#333333"/>
</svg>
