<svg width="21" height="20" viewBox="0 0 21 20" fill="none" xmlns="http://www.w3.org/2000/svg">
<path d="M18.85 14.1442V16.6532C18.8509 16.8862 18.8032 17.1167 18.7098 17.3301C18.6166 17.5435 18.4797 17.7351 18.308 17.8926C18.1364 18.0501 17.9338 18.17 17.7132 18.2445C17.4926 18.3191 17.2587 18.3469 17.0267 18.3259C14.4532 18.0462 11.9811 17.1669 9.80915 15.7584C7.78842 14.4743 6.0752 12.7611 4.79114 10.7404C3.37771 8.55852 2.49811 6.07442 2.22359 3.48932C2.20268 3.25804 2.23017 3.02495 2.30429 2.80488C2.37841 2.5848 2.49754 2.38258 2.6541 2.21107C2.81066 2.03956 3.00121 1.90254 3.21363 1.80872C3.42605 1.71489 3.65568 1.66632 3.8879 1.6661H6.39691C6.80278 1.6621 7.19627 1.80583 7.50402 2.07049C7.81176 2.33515 8.01277 2.70269 8.06958 3.1046C8.17547 3.90754 8.37187 4.69592 8.65501 5.4547C8.76754 5.75405 8.79189 6.07937 8.72518 6.39214C8.65848 6.7049 8.50352 6.99198 8.27866 7.21937L7.21651 8.28152C8.40709 10.3753 10.1407 12.1089 12.2345 13.2996L13.2967 12.2374C13.524 12.0125 13.8112 11.8576 14.1239 11.7909C14.4367 11.7242 14.762 11.7485 15.0614 11.861C15.8201 12.1441 16.6085 12.3406 17.4114 12.4465C17.8177 12.5038 18.1888 12.7084 18.454 13.0215C18.7192 13.3345 18.8601 13.734 18.85 14.1442Z" stroke="#333333" stroke-width="1.5" stroke-linecap="round" stroke-linejoin="round"/>
</svg>
