<svg width="20" height="20" viewBox="0 0 20 20" fill="none" xmlns="http://www.w3.org/2000/svg">
<path d="M15.5158 3.05048C12.5368 0.0791913 7.72368 0.103208 4.74476 3.07449C1.76584 6.04578 1.74489 10.8579 4.72326 13.8288L10.1058 19.1673L15.4989 13.7868C18.478 10.8152 18.4943 6.02213 15.5158 3.05048ZM10.1202 14.9059C6.51726 14.9059 3.59605 11.9924 3.59605 8.39813C3.59605 4.80296 6.51744 1.88888 10.1202 1.88888C13.7241 1.88888 16.6454 4.80296 16.6454 8.39813C16.6441 11.9924 13.7241 14.9059 10.1202 14.9059Z" fill="#333333"/>
<path d="M9.75775 3.76781C10.0366 3.52966 10.526 3.6096 10.6841 3.94931C11.0046 4.7415 11.3194 5.53625 11.638 6.32898C11.6435 6.35575 11.6686 6.3651 11.6936 6.3651C12.4908 6.41937 13.2875 6.48408 14.0848 6.5411C14.3132 6.54587 14.54 6.67145 14.6435 6.87862C14.7714 7.11127 14.7284 7.43393 14.5191 7.60608C13.8762 8.13335 13.2392 8.66777 12.5979 9.19668C12.5799 9.2119 12.5621 9.22767 12.5499 9.24783C12.7312 10.0345 12.9341 10.8174 13.1237 11.6024C13.2673 11.9962 12.9308 12.4606 12.508 12.4296C12.3621 12.4278 12.2347 12.3486 12.1184 12.269C11.4898 11.8728 10.8609 11.4764 10.2316 11.0808C10.1779 11.048 10.1274 11.0069 10.0671 10.9877C9.35378 11.4159 8.6515 11.8638 7.94004 12.2959C7.74449 12.4124 7.4846 12.4105 7.29254 12.2877C7.08982 12.1674 6.96539 11.9194 7.01299 11.6854C7.21792 10.8463 7.44858 10.0105 7.64432 9.16973C7.06629 8.67345 6.47962 8.18743 5.89884 7.69463C5.76743 7.58812 5.62462 7.47702 5.56764 7.31147C5.42814 6.97872 5.6487 6.54513 6.01426 6.49325C6.88397 6.41992 7.75974 6.38912 8.62724 6.30955C8.92738 5.59437 9.21593 4.8735 9.51276 4.15611C9.56808 4.01256 9.63167 3.86351 9.75775 3.76781Z" fill="#333333"/>
<rect x="3.50391" y="1.75" width="13.2331" height="13.2" rx="6.6" fill="#FBC100"/>
<path d="M13.613 9.30533L12.74 10.6962L10.994 9.74169V11.6508H9.24796V9.74169L7.50192 10.6962L6.62891 9.30533L8.40404 8.35078L6.65801 7.39624L7.50192 6.00533L9.24796 6.95987V5.05078H10.994V6.95987L12.74 6.00533L13.5839 7.39624L11.8379 8.35078L13.613 9.30533Z" fill="#333333"/>
</svg>
