<svg width="42" height="42" viewBox="0 0 42 42" fill="none" xmlns="http://www.w3.org/2000/svg">
<rect x="4" y="4" width="34" height="34" rx="17" fill="#F7F7F7"/>
<path d="M27.0383 20.6127C27.0005 20.552 26.948 20.502 26.8855 20.4672C26.8231 20.4324 26.7528 20.4142 26.6813 20.4141H15.3187C15.2472 20.4142 15.1769 20.4324 15.1145 20.4672C15.052 20.502 14.9995 20.552 14.9617 20.6127L12.8135 24.0624C12.7739 24.1261 12.752 24.1993 12.7501 24.2742C12.7483 24.3492 12.7665 24.4233 12.8029 24.4889C12.8393 24.5545 12.8925 24.6092 12.9571 24.6473C13.0218 24.6854 13.0954 24.7055 13.1704 24.7056H15.0223V27.6906C15.0232 28.0355 15.1606 28.366 15.4045 28.6099C15.6484 28.8538 15.9789 28.9912 16.3238 28.9921H25.6745C26.02 28.9916 26.3512 28.8542 26.5955 28.6099C26.8398 28.3656 26.9772 28.0344 26.9777 27.6889V24.7056H28.8296C28.9046 24.7055 28.9782 24.6854 29.0429 24.6473C29.1075 24.6092 29.1607 24.5545 29.1971 24.4889C29.2335 24.4233 29.2517 24.3492 29.2499 24.2742C29.248 24.1993 29.2261 24.1261 29.1865 24.0624L27.0383 20.6127ZM13.928 23.8638L15.5527 21.2559H20.2415L18.6169 23.8638H13.928ZM20.5783 28.1502H16.3238C16.2014 28.1502 16.0841 28.1016 15.9976 28.0151C15.9111 27.9286 15.8625 27.8113 15.8625 27.6889V24.7056H18.8509C18.9223 24.7055 18.9926 24.6872 19.0551 24.6525C19.1175 24.6177 19.1701 24.5676 19.2078 24.5069L20.5783 22.3081V28.1502ZM26.1342 27.6889C26.1342 27.811 26.0858 27.9281 25.9996 28.0145C25.9135 28.101 25.7966 28.1498 25.6745 28.1502H21.4201V22.3081L22.7888 24.5086C22.8266 24.5693 22.8791 24.6194 22.9416 24.6541C23.004 24.6889 23.0743 24.7072 23.1458 24.7073H26.1342V27.6889ZM23.3815 23.8638L21.7568 21.2559H26.4456L28.0703 23.8638H23.3815Z" fill="#333333"/>
<path d="M20.5023 19.2106C20.6039 19.2109 20.7045 19.1911 20.7984 19.1524C20.8923 19.1137 20.9776 19.0568 21.0495 18.985L23.7634 16.271C23.9084 16.1258 23.9898 15.929 23.9898 15.7239C23.9898 15.5187 23.9084 15.3219 23.7634 15.1767L23.1489 14.5622C23.004 14.4173 22.8075 14.3359 22.6026 14.3359C22.3977 14.3359 22.2012 14.4173 22.0563 14.5622L20.504 16.1145L19.945 15.5555C19.8732 15.4835 19.7879 15.4264 19.694 15.3874C19.6002 15.3485 19.4995 15.3284 19.3978 15.3284C19.2962 15.3284 19.1955 15.3485 19.1016 15.3874C19.0077 15.4264 18.9225 15.4835 18.8507 15.5555L18.2361 16.17C18.0912 16.3152 18.0098 16.512 18.0098 16.7172C18.0098 16.9224 18.0912 17.1192 18.2361 17.2644L19.9568 18.985C20.0284 19.0566 20.1135 19.1134 20.2071 19.1521C20.3007 19.1908 20.401 19.2107 20.5023 19.2106ZM19.3962 16.1953L20.206 17.0034C20.2451 17.0426 20.2915 17.0737 20.3426 17.0949C20.3938 17.1161 20.4486 17.1271 20.504 17.1271C20.5593 17.1271 20.6142 17.1161 20.6653 17.0949C20.7164 17.0737 20.7629 17.0426 20.802 17.0034L22.6034 15.2019L23.1203 15.7239L20.5023 18.3402L18.8776 16.7155L19.3962 16.1953Z" fill="black"/>
<path d="M25.6504 16.542C25.6504 16.6536 25.6947 16.7607 25.7737 16.8396C25.8526 16.9186 25.9597 16.9629 26.0713 16.9629H27.0141C27.1257 16.9629 27.2328 16.9186 27.3117 16.8396C27.3907 16.7607 27.435 16.6536 27.435 16.542C27.435 16.4304 27.3907 16.3233 27.3117 16.2444C27.2328 16.1654 27.1257 16.1211 27.0141 16.1211H26.0713C25.9597 16.1211 25.8526 16.1654 25.7737 16.2444C25.6947 16.3233 25.6504 16.4304 25.6504 16.542Z" fill="black"/>
<path d="M24.9652 18.7917L25.6387 19.4651C25.6778 19.5043 25.7243 19.5353 25.7754 19.5565C25.8265 19.5777 25.8813 19.5886 25.9367 19.5886C25.992 19.5886 26.0468 19.5777 26.098 19.5565C26.1491 19.5353 26.1955 19.5043 26.2347 19.4651C26.2738 19.426 26.3048 19.3796 26.326 19.3284C26.3472 19.2773 26.3581 19.2225 26.3581 19.1671C26.3581 19.1118 26.3472 19.057 26.326 19.0059C26.3048 18.9547 26.2738 18.9083 26.2347 18.8691L25.5612 18.1957C25.5221 18.1566 25.4756 18.1255 25.4245 18.1043C25.3734 18.0832 25.3186 18.0723 25.2632 18.0723C25.2079 18.0723 25.1531 18.0832 25.102 18.1043C25.0508 18.1255 25.0044 18.1566 24.9652 18.1957C24.9261 18.2348 24.8951 18.2813 24.8739 18.3324C24.8527 18.3836 24.8418 18.4384 24.8418 18.4937C24.8418 18.549 24.8527 18.6038 24.8739 18.655C24.8951 18.7061 24.9261 18.7526 24.9652 18.7917Z" fill="black"/>
<path d="M25.6328 13.6234L24.9594 14.2969C24.9202 14.336 24.8892 14.3825 24.868 14.4336C24.8468 14.4847 24.8359 14.5395 24.8359 14.5949C24.8359 14.6502 24.8468 14.705 24.868 14.7562C24.8892 14.8073 24.9202 14.8537 24.9594 14.8929C24.9985 14.932 25.045 14.9631 25.0961 14.9842C25.1472 15.0054 25.202 15.0163 25.2574 15.0163C25.3127 15.0163 25.3675 15.0054 25.4186 14.9842C25.4698 14.9631 25.5162 14.932 25.5554 14.8929L26.2288 14.2194C26.3078 14.1404 26.3522 14.0332 26.3522 13.9214C26.3522 13.8097 26.3078 13.7025 26.2288 13.6234C26.1897 13.5843 26.1432 13.5533 26.0921 13.5321C26.041 13.5109 25.9862 13.5 25.9308 13.5C25.819 13.5 25.7118 13.5444 25.6328 13.6234Z" fill="black"/>
<path d="M14.5625 16.542C14.5625 16.6536 14.6068 16.7607 14.6858 16.8396C14.7647 16.9186 14.8718 16.9629 14.9834 16.9629H15.9262C16.0379 16.9629 16.1449 16.9186 16.2238 16.8396C16.3028 16.7607 16.3471 16.6536 16.3471 16.542C16.3471 16.4304 16.3028 16.3233 16.2238 16.2444C16.1449 16.1654 16.0379 16.1211 15.9262 16.1211H14.9834C14.8718 16.1211 14.7647 16.1654 14.6858 16.2444C14.6068 16.3233 14.5625 16.4304 14.5625 16.542Z" fill="black"/>
<path d="M16.3659 13.6234C16.2869 13.5444 16.1797 13.5 16.0679 13.5C15.9561 13.5 15.849 13.5444 15.7699 13.6234C15.6909 13.7025 15.6465 13.8097 15.6465 13.9214C15.6465 14.0332 15.6909 14.1404 15.7699 14.2194L16.4434 14.8929C16.5224 14.9719 16.6296 15.0163 16.7414 15.0163C16.8531 15.0163 16.9603 14.9719 17.0394 14.8929C17.1184 14.8138 17.1628 14.7066 17.1628 14.5949C17.1628 14.4831 17.1184 14.3759 17.0394 14.2969L16.3659 13.6234Z" fill="black"/>
<path d="M16.4375 18.1977L15.7641 18.8711C15.7249 18.9102 15.6939 18.9567 15.6727 19.0078C15.6515 19.059 15.6406 19.1138 15.6406 19.1691C15.6406 19.2809 15.685 19.3881 15.7641 19.4671C15.8431 19.5461 15.9503 19.5905 16.0621 19.5905C16.1738 19.5905 16.281 19.5461 16.3601 19.4671L17.0335 18.7937C17.0726 18.7545 17.1037 18.7081 17.1249 18.6569C17.146 18.6058 17.1569 18.551 17.1569 18.4957C17.1569 18.4403 17.146 18.3855 17.1249 18.3344C17.1037 18.2832 17.0726 18.2368 17.0335 18.1977C16.9944 18.1585 16.9479 18.1275 16.8968 18.1063C16.8456 18.0851 16.7908 18.0742 16.7355 18.0742C16.6802 18.0742 16.6254 18.0851 16.5742 18.1063C16.5231 18.1275 16.4766 18.1585 16.4375 18.1977Z" fill="black"/>
</svg>
