<svg width="20" height="20" viewBox="0 0 20 20" fill="none" xmlns="http://www.w3.org/2000/svg">
    <path d="M11.2731 17.657L11.2732 17.6573C11.2898 17.7075 11.3215 17.7512 11.3639 17.7827L11.0656 18.184L11.3639 17.7827C11.4049 17.8132 11.4539 17.8308 11.5048 17.8333L11.5165 17.8333C11.5167 17.8333 11.5169 17.8333 11.5171 17.8333C11.5682 17.8331 11.6182 17.8176 11.6605 17.7889C11.7029 17.7601 11.7358 17.7194 11.7549 17.6719L11.2731 17.657ZM11.2731 17.657L9.10649 11.1565L9.03674 10.9472L8.83515 10.8577L2.32022 7.96306L2.31989 7.96292C2.2727 7.94199 2.23288 7.90736 2.20561 7.86353C2.17834 7.81969 2.16488 7.76867 2.16696 7.71709C2.16904 7.66551 2.18658 7.61574 2.21729 7.57424C2.24801 7.53275 2.29048 7.50144 2.33921 7.48439L17.4902 2.18154L17.4911 2.18124C17.5378 2.1648 17.5882 2.16217 17.6364 2.17366C17.6845 2.18516 17.7284 2.2103 17.7626 2.24606L18.1232 1.90082L17.7626 2.24606C17.7969 2.28183 17.8201 2.32671 17.8295 2.37532C17.8389 2.42394 17.834 2.47423 17.8156 2.52017L17.8153 2.52085L11.755 17.6716L11.2731 17.657ZM4.31557 7.33976L3.12468 7.75661L4.27785 8.26865L9.35308 10.5222C9.35316 10.5222 9.35323 10.5223 9.35331 10.5223C9.38601 10.5369 9.41531 10.5581 9.43933 10.5847C9.46342 10.6113 9.48167 10.6427 9.49293 10.6767L9.49334 10.678L11.1115 15.5339L11.5433 16.8296L12.0501 15.5614L16.7204 3.8754L17.1283 2.85481L16.0909 3.21792L4.31557 7.33976Z" stroke="#333333"/>
</svg>
