<svg width="20" height="22" viewBox="0 0 20 22" fill="none" xmlns="http://www.w3.org/2000/svg">
<path d="M10.3563 4.95117C9.31435 4.95117 8.31512 5.37594 7.57838 6.1321C6.84165 6.88826 6.42773 7.91375 6.42773 8.98309C6.42773 10.0524 6.84162 11.078 7.57838 11.8341C8.31515 12.5902 9.31435 13.015 10.3563 13.015C11.3982 13.015 12.3974 12.5902 13.1342 11.8341C13.8709 11.0779 14.2848 10.0524 14.2848 8.98309C14.2838 7.91406 13.8696 6.88914 13.133 6.13329C12.3965 5.37729 11.3979 4.95221 10.3563 4.95117ZM10.3563 11.671C9.66163 11.671 8.99546 11.3878 8.5044 10.8837C8.01318 10.3797 7.73725 9.69601 7.73725 8.98309C7.73725 8.27017 8.01318 7.58647 8.5044 7.08248C8.99546 6.57834 9.66163 6.29515 10.3563 6.29515C11.0509 6.29515 11.7171 6.57834 12.2081 7.08248C12.6994 7.58647 12.9753 8.27017 12.9753 8.98309C12.9753 9.69601 12.6994 10.3797 12.2081 10.8837C11.7171 11.3878 11.0509 11.671 10.3563 11.671Z" fill="#333333"/>
<path d="M10.3572 1.5918C8.27413 1.59405 6.27716 2.44438 4.80377 3.95619C3.33072 5.46801 2.50217 7.51772 2.5 9.65579C2.5 14.0022 9.19348 20.4076 10.3571 20.4076C11.5207 20.4076 18.2142 14.0022 18.2142 9.65579C18.212 7.51788 17.3834 5.46836 15.9104 3.95619C14.4373 2.44438 12.4402 1.59402 10.3569 1.5918H10.3572ZM10.3572 19.0105C9.08307 18.235 3.80966 12.9914 3.80966 9.65564C3.80966 7.87338 4.49951 6.16415 5.72746 4.90412C6.95526 3.64385 8.62066 2.93585 10.3572 2.93585C12.0936 2.93585 13.7591 3.64385 14.9868 4.90412C16.2148 6.16423 16.9046 7.87345 16.9046 9.65564C16.9046 12.9914 11.631 18.2348 10.3571 19.0105H10.3572Z" fill="#333333"/>
</svg>
