<svg width="12" height="12" viewBox="0 0 12 12" fill="none" xmlns="http://www.w3.org/2000/svg">
<path d="M10.3561 4.84473H7.14391V1.63254C7.14391 1.00859 6.6355 0.488634 6 0.500189C5.37605 0.500189 4.86765 1.00859 4.85609 1.6441V4.85628H1.64391C1.01996 4.85628 0.5 5.36468 0.5 6.00019C0.5 6.31216 0.627101 6.60103 0.835084 6.80901C1.04307 7.017 1.32038 7.1441 1.64391 7.1441H4.85609V10.3563C4.85609 10.6683 4.98319 10.9571 5.19118 11.1651C5.39916 11.3731 5.67647 11.5002 6 11.5002C6.62395 11.5002 7.13235 10.9918 7.14391 10.3563V7.1441H10.3561C10.98 7.1441 11.5 6.63569 11.5 6.00019C11.4884 5.36468 10.98 4.85628 10.3561 4.84473Z" fill="#333333"/>
</svg>
