<svg width="40" height="32" viewBox="0 0 40 32" fill="none" xmlns="http://www.w3.org/2000/svg">
<g clip-path="url(#clip0_10954_38142)">
<path d="M20 7.75C18.3683 7.75 16.7733 8.23385 15.4165 9.14038C14.0598 10.0469 13.0024 11.3354 12.378 12.8429C11.7536 14.3503 11.5902 16.0091 11.9085 17.6095C12.2269 19.2098 13.0126 20.6798 14.1664 21.8336C15.3202 22.9874 16.7902 23.7731 18.3905 24.0915C19.9908 24.4098 21.6496 24.2464 23.1571 23.622C24.6646 22.9976 25.9531 21.9402 26.8596 20.5835C27.7661 19.2267 28.25 17.6317 28.25 16C28.25 14.9166 28.0366 13.8438 27.622 12.8429C27.2074 11.8419 26.5997 10.9325 25.8336 10.1664C25.0675 9.40029 24.1581 8.79259 23.1571 8.37799C22.1562 7.96339 21.0834 7.75 20 7.75ZM20 22.6C18.6946 22.6 17.4186 22.2129 16.3332 21.4877C15.2479 20.7625 14.4019 19.7317 13.9024 18.5257C13.4029 17.3197 13.2722 15.9927 13.5268 14.7124C13.7815 13.4321 14.4101 12.2561 15.3331 11.3331C16.2561 10.4101 17.4321 9.78148 18.7124 9.52682C19.9927 9.27215 21.3197 9.40286 22.5257 9.90239C23.7317 10.4019 24.7625 11.2479 25.4877 12.3332C26.2129 13.4186 26.6 14.6946 26.6 16C26.6 17.7504 25.9046 19.4292 24.6669 20.6669C23.4292 21.9046 21.7504 22.6 20 22.6Z" fill="#333333"/>
<path d="M20.825 15.6617V11.875C20.825 11.6562 20.7381 11.4464 20.5834 11.2916C20.4286 11.1369 20.2188 11.05 20 11.05C19.7812 11.05 19.5714 11.1369 19.4166 11.2916C19.2619 11.4464 19.175 11.6562 19.175 11.875V16C19.1744 16.1086 19.1952 16.2162 19.2362 16.3167C19.2773 16.4172 19.3378 16.5087 19.4143 16.5857L21.8892 19.0607C21.9659 19.1381 22.0572 19.1994 22.1577 19.2413C22.2583 19.2832 22.3661 19.3048 22.475 19.3048C22.5839 19.3048 22.6917 19.2832 22.7923 19.2413C22.8928 19.1994 22.9841 19.1381 23.0608 19.0607C23.1381 18.9841 23.1995 18.8928 23.2413 18.7923C23.2832 18.6917 23.3048 18.5839 23.3048 18.475C23.3048 18.3661 23.2832 18.2583 23.2413 18.1577C23.1995 18.0572 23.1381 17.9659 23.0608 17.8892L20.825 15.6617Z" fill="#333333"/>
</g>
<rect x="1" y="1" width="38" height="30" rx="7" stroke="#333333" stroke-width="2"/>
<defs>
<clipPath id="clip0_10954_38142">
<rect width="18" height="18" fill="white" transform="translate(11 7)"/>
</clipPath>
</defs>
</svg>
