<svg width="24" height="24" viewBox="0 0 24 24" fill="none" xmlns="http://www.w3.org/2000/svg">
<path d="M22.0216 15.8457C19.1818 14.0143 15.9125 13.0376 12.5716 13.0376H12.4523C9.0875 13.0376 5.81818 14.0143 3.00227 15.8457C2.35795 16.2364 2 16.9202 2 17.6771V19.8504C2 21.0469 2.93068 22.0236 4.1 22.0236H20.9C22.0455 22.0236 23 21.0469 23 19.8504V17.6771C23 16.9202 22.642 16.2364 22.0216 15.8457ZM21.0909 19.8504C21.0909 19.9725 20.9955 20.0702 20.9 20.0702H4.1C4.00455 20.0702 3.90909 19.9725 3.90909 19.8504V17.6771C3.90909 17.6039 3.95682 17.5306 4.00455 17.4818C6.53409 15.8457 9.44545 14.9911 12.4284 14.9911H12.5477C15.5307 14.9911 18.4659 15.8457 20.9716 17.5062C21.0193 17.555 21.067 17.6039 21.067 17.7016V19.8504H21.0909Z" fill="#BABAC0"/>
<path d="M8.20508 5.41879V7.86065C8.20508 10.2781 10.138 12.256 12.5005 12.256C14.863 12.256 16.796 10.2781 16.796 7.86065V5.41879C16.796 3.00134 14.863 1.02344 12.5005 1.02344C10.138 1.02344 8.20508 3.00134 8.20508 5.41879ZM14.8869 5.41879V7.86065C14.8869 9.20367 13.813 10.3025 12.5005 10.3025C11.188 10.3025 10.1142 9.20367 10.1142 7.86065V5.41879C10.1142 4.07576 11.188 2.97693 12.5005 2.97693C13.813 2.97693 14.8869 4.07576 14.8869 5.41879Z" fill="#BABAC0"/>
</svg>
