<svg width="21" height="20" viewBox="0 0 21 20" fill="none" xmlns="http://www.w3.org/2000/svg">
<path d="M18.3308 13.9369C15.922 12.4134 13.1426 11.5898 10.2808 11.5898H10.1779C7.31613 11.5898 4.53672 12.3928 2.12789 13.9369C1.67495 14.2251 1.38672 14.7398 1.38672 15.2957V17.5398C1.38672 18.4251 2.10731 19.1663 2.9926 19.1663H17.4867C18.372 19.1663 19.0926 18.4457 19.0926 17.5398V15.2957C19.0926 14.7398 18.8044 14.2251 18.3308 13.9369ZM17.8573 17.5398C17.8573 17.7457 17.6926 17.931 17.4867 17.931H2.9926C2.78672 17.931 2.62201 17.7663 2.62201 17.5398V15.2957C2.62201 15.1722 2.68378 15.0281 2.80731 14.9663C5.01025 13.5663 7.56319 12.8251 10.1779 12.8251H10.2808C12.8955 12.8251 15.4485 13.5663 17.672 14.9663C17.7749 15.0281 17.8573 15.1516 17.8573 15.2957V17.5398Z" fill="#333333"/>
<path d="M10.6108 10.7248C12.3402 10.7248 13.7402 9.32483 13.7402 7.61601V4.77484C13.7402 3.06601 12.3402 1.66602 10.6108 1.66602H9.84906C8.14023 1.66602 6.74023 3.06601 6.74023 4.77484V7.59542C6.74023 9.32483 8.14023 10.7248 9.86965 10.7248H10.6108ZM7.97553 7.61601V4.77484C7.97553 3.74543 8.81965 2.90131 9.86965 2.90131H10.6314C11.6608 2.90131 12.5255 3.74543 12.5255 4.77484V7.59542C12.5255 8.62483 11.6814 9.46895 10.6314 9.46895H9.86965C8.81965 9.48954 7.97553 8.64542 7.97553 7.61601Z" fill="#333333"/>
</svg>
