<svg width="15" height="16" viewBox="0 0 15 16" fill="none" xmlns="http://www.w3.org/2000/svg">
<path fill-rule="evenodd" clip-rule="evenodd" d="M7.33333 2.00002C4.01962 2.00002 1.33333 4.68631 1.33333 8.00002C1.33333 11.3137 4.01962 14 7.33333 14C10.6471 14 13.3334 11.3137 13.3334 8.00002C13.3334 4.68631 10.6471 2.00002 7.33333 2.00002ZM0 8.00002C0 3.94993 3.28324 0.666687 7.33333 0.666687C11.3834 0.666687 14.6667 3.94993 14.6667 8.00002C14.6667 12.0501 11.3834 15.3333 7.33333 15.3333C3.28324 15.3333 0 12.0501 0 8.00002ZM7.33333 6.00002C6.96514 6.00002 6.66666 6.2985 6.66666 6.66669H5.33333C5.33333 5.56212 6.22876 4.66669 7.33333 4.66669C8.4379 4.66669 9.33333 5.56212 9.33333 6.66669C9.33333 7.12199 9.21649 7.49316 9.0261 7.80254C8.84479 8.09717 8.61179 8.30888 8.439 8.46007C8.03717 8.81167 8 8.85944 8 9.00002H6.66666C6.66666 8.2143 7.19283 7.76892 7.48545 7.52123C7.51289 7.498 7.53828 7.47651 7.56099 7.45664C7.72153 7.31617 7.82187 7.21537 7.89056 7.10375C7.95017 7.00688 8 6.87805 8 6.66669C8 6.2985 7.70152 6.00002 7.33333 6.00002ZM6.66666 11.3333V10H8V11.3333H6.66666Z" fill="#BABAC0"/>
</svg>
