<svg width="17" height="16" viewBox="0 0 17 16" fill="none" xmlns="http://www.w3.org/2000/svg">
    <path d="M3.79988 4.40971C3.8236 4.37807 3.84733 4.34644 3.87106 4.31638C3.83468 4.36384 3.79671 4.41287 3.76033 4.46033C4.10992 4.00792 4.51646 3.60297 4.96885 3.25338C4.92139 3.28976 4.87236 3.32772 4.8249 3.36411C5.27572 3.01926 5.76768 2.73137 6.28969 2.50992C6.23274 2.53365 6.1758 2.55738 6.12043 2.5811C6.65667 2.35648 7.21822 2.20305 7.794 2.12394C7.73073 2.13185 7.66746 2.14134 7.60418 2.14925C8.20053 2.07016 8.8048 2.07016 9.39956 2.14925C9.33629 2.14134 9.27301 2.13185 9.20974 2.12394C9.78078 2.20304 10.3392 2.35489 10.8723 2.57792C10.8153 2.55419 10.7584 2.53047 10.703 2.50674C11.2282 2.7282 11.7233 3.01767 12.1773 3.36411C12.1298 3.32772 12.0808 3.28976 12.0333 3.25338C12.4873 3.60456 12.8954 4.01107 13.245 4.46508C13.2087 4.41762 13.1707 4.36858 13.1343 4.32113C13.4823 4.77354 13.7702 5.26865 13.9917 5.79541C13.9679 5.73846 13.9442 5.68151 13.9205 5.62615C14.1435 6.15765 14.2954 6.71761 14.3745 7.28867C14.3666 7.2254 14.3571 7.16212 14.3492 7.09885C14.3887 7.39782 14.4093 7.69838 14.4093 7.99891C14.4093 8.18241 14.4884 8.37222 14.6181 8.50195C14.7415 8.62533 14.9439 8.71866 15.1211 8.71075C15.3046 8.70284 15.496 8.64273 15.6241 8.50195C15.7523 8.36274 15.8329 8.1919 15.8329 7.99891C15.8314 6.8236 15.5451 5.6657 15.0088 4.62163C14.7478 4.11385 14.4188 3.64405 14.0502 3.21064C13.6832 2.77878 13.2593 2.40548 12.8053 2.06856C12.3925 1.76169 11.9432 1.50386 11.4718 1.29979C10.9372 1.07042 10.3914 0.886945 9.81562 0.78886C8.5533 0.572148 7.2388 0.654405 6.03194 1.09732C4.83924 1.53547 3.7525 2.26155 2.93146 3.23597C2.8065 3.38467 2.68786 3.5381 2.57239 3.69313C2.46957 3.83075 2.45691 4.08385 2.50121 4.24204C2.54708 4.40655 2.67363 4.58689 2.82864 4.66756C2.99315 4.75456 3.19405 4.79885 3.37755 4.73874C3.4345 4.71501 3.49144 4.69129 3.54681 4.66756C3.65121 4.6027 3.73663 4.51729 3.7999 4.40972L3.79988 4.40971Z" fill="#333333"/>
    <path d="M5.75239 3.43946H4.81595H3.32269H2.97944L3.69126 4.15128V3.21483V1.72158V1.37832C3.69126 1.19641 3.61216 1.00343 3.48245 0.875287C3.35907 0.751905 3.15658 0.658575 2.97942 0.666483C2.79592 0.674393 2.60452 0.734503 2.47638 0.875287C2.34825 1.01449 2.26758 1.18533 2.26758 1.37832V2.31477V3.80802V4.15128C2.26758 4.53566 2.59345 4.86309 2.97939 4.86309H3.91584H5.4091H5.75235C5.93426 4.86309 6.12725 4.784 6.25538 4.65429C6.37877 4.53091 6.4721 4.32842 6.46419 4.15125C6.45628 3.96776 6.39617 3.77636 6.25538 3.64822C6.11618 3.52009 5.94534 3.43941 5.75235 3.43941L5.75239 3.43946Z" fill="#333333"/>
    <path d="M13.1996 11.5882C13.1758 11.6199 13.1521 11.6515 13.1284 11.6816C13.1648 11.6341 13.2027 11.5851 13.2391 11.5376C12.8895 11.99 12.483 12.395 12.0306 12.7446C12.0781 12.7082 12.1271 12.6702 12.1746 12.6338C11.7237 12.9787 11.2318 13.2666 10.7098 13.488C10.7667 13.4643 10.8237 13.4406 10.879 13.4168C10.3428 13.6415 9.78123 13.7949 9.20545 13.874C9.26872 13.8661 9.33199 13.8566 9.39527 13.8487C8.79892 13.9278 8.19465 13.9278 7.59989 13.8487C7.66316 13.8566 7.72644 13.8661 7.78971 13.874C7.21867 13.7949 6.66028 13.643 6.12719 13.42C6.18413 13.4437 6.24108 13.4675 6.29644 13.4912C5.77128 13.2697 5.27617 12.9803 4.82217 12.6338C4.86962 12.6702 4.91866 12.7082 4.96611 12.7446C4.5137 12.3934 4.10559 11.9853 3.75442 11.5313C3.7908 11.5788 3.82876 11.6278 3.86514 11.6752C3.51715 11.2228 3.22926 10.7277 3.00778 10.201C3.03151 10.2579 3.05523 10.3149 3.07896 10.3702C2.85592 9.83873 2.70406 9.27877 2.62498 8.7077C2.63289 8.77098 2.64238 8.83425 2.65029 8.89752C2.61074 8.59855 2.59018 8.29799 2.59018 7.99746C2.59018 7.81397 2.51109 7.62416 2.38138 7.49443C2.25799 7.37104 2.05551 7.27772 1.87834 7.28562C1.69485 7.29353 1.50345 7.35364 1.37531 7.49443C1.24718 7.63363 1.1665 7.80448 1.1665 7.99746C1.16809 9.17277 1.4544 10.3307 1.99064 11.3747C2.25164 11.8825 2.58065 12.3523 2.94924 12.7857C3.31624 13.2176 3.74016 13.5909 4.19414 13.9278C4.60699 14.2347 5.05625 14.4925 5.52764 14.6966C6.06229 14.9259 6.60805 15.1094 7.18383 15.2075C8.44615 15.4242 9.76064 15.342 10.9675 14.8991C12.1602 14.4609 13.247 13.7348 14.068 12.7604C14.193 12.6117 14.3116 12.4583 14.4271 12.3032C14.5299 12.1656 14.5425 11.9125 14.4982 11.7543C14.4524 11.5898 14.3258 11.4095 14.1708 11.3288C14.0063 11.2418 13.8054 11.1975 13.6219 11.2576C13.565 11.2814 13.508 11.3051 13.4526 11.3288C13.3482 11.3953 13.2628 11.4807 13.1995 11.5882L13.1996 11.5882Z" fill="#333333"/>
    <path d="M11.2474 12.5564H12.1839H13.6771H14.0204L13.3086 11.8446V12.7811V14.2743V14.6176C13.3086 14.7995 13.3876 14.9925 13.5174 15.1206C13.6407 15.244 13.8432 15.3373 14.0204 15.3294C14.2039 15.3215 14.3953 15.2614 14.5234 15.1206C14.6516 14.9814 14.7322 14.8106 14.7322 14.6176V13.6811V12.1879V11.8446C14.7322 11.4602 14.4064 11.1328 14.0204 11.1328H13.084H11.5907H11.2475C11.0656 11.1328 10.8726 11.2119 10.7444 11.3416C10.621 11.465 10.5277 11.6675 10.5356 11.8447C10.5435 12.0281 10.6036 12.2195 10.7444 12.3477C10.8836 12.4758 11.0545 12.5565 11.2475 12.5565L11.2474 12.5564Z" fill="#333333"/>
</svg>
