<svg width="7" height="12" viewBox="0 0 7 12" fill="none" xmlns="http://www.w3.org/2000/svg">
<path d="M0.838165 11.8334C0.728493 11.834 0.619774 11.813 0.518242 11.7716C0.416711 11.7301 0.324365 11.669 0.246499 11.5917C0.168392 11.5143 0.106396 11.4221 0.0640885 11.3206C0.0217813 11.219 0 11.1101 0 11.0001C0 10.8901 0.0217813 10.7811 0.0640885 10.6796C0.106396 10.578 0.168392 10.4859 0.246499 10.4084L4.66316 6.00007L0.246499 1.59174C0.1688 1.51404 0.107166 1.4218 0.0651153 1.32028C0.023065 1.21876 0.00142177 1.10996 0.00142177 1.00007C0.00142177 0.890191 0.023065 0.781384 0.0651153 0.679866C0.107166 0.578347 0.1688 0.486105 0.246499 0.408407C0.324197 0.330708 0.416439 0.269074 0.517957 0.227024C0.619475 0.184973 0.728283 0.16333 0.838165 0.16333C0.948048 0.16333 1.05685 0.184973 1.15837 0.227024C1.25989 0.269074 1.35213 0.330708 1.42983 0.408407L6.42983 5.40841C6.50794 5.48588 6.56993 5.57804 6.61224 5.67959C6.65455 5.78114 6.67633 5.89006 6.67633 6.00007C6.67633 6.11008 6.65455 6.219 6.61224 6.32055C6.56993 6.4221 6.50794 6.51427 6.42983 6.59174L1.42983 11.5917C1.35196 11.669 1.25962 11.7301 1.15809 11.7716C1.05656 11.813 0.947837 11.834 0.838165 11.8334Z" fill="#BABAC0"/>
</svg>
