<svg width="21" height="20" viewBox="0 0 21 20" fill="none" xmlns="http://www.w3.org/2000/svg">
<path d="M15.5071 9.47235H7.00116C6.43718 9.47235 5.89631 9.24832 5.49751 8.84952C5.09872 8.45073 4.87468 7.90985 4.87468 7.34588C4.87468 6.7819 5.09872 6.24102 5.49751 5.84223C5.89631 5.44344 6.43718 5.2194 7.00116 5.2194H16.6306L15.7126 6.13733C15.5796 6.27033 15.5049 6.45073 15.5049 6.63882C15.5049 6.82692 15.5796 7.00731 15.7126 7.14032C15.8456 7.27332 16.026 7.34804 16.2141 7.34804C16.4022 7.34804 16.5826 7.27332 16.7156 7.14032L18.8421 5.01384L18.8811 4.96777C18.8987 4.94861 18.9153 4.92849 18.9307 4.90752C18.9307 4.88979 18.952 4.86853 18.9626 4.85081C18.9756 4.82903 18.9875 4.80655 18.998 4.78347C18.998 4.78347 18.998 4.74803 18.998 4.73385C19.0177 4.70679 19.0355 4.67837 19.0512 4.64879C19.0512 4.64879 19.0512 4.64879 19.0512 4.62399C19.0723 4.51081 19.0641 4.39414 19.0275 4.28499C18.9909 4.17585 18.9271 4.07783 18.8421 4.00022L16.7156 1.87374C16.5826 1.74074 16.4022 1.66602 16.2141 1.66602C16.026 1.66602 15.8456 1.74074 15.7126 1.87374C15.5796 2.00675 15.5049 2.18714 15.5049 2.37524C15.5049 2.56333 15.5796 2.74372 15.7126 2.87673L16.6306 3.80175H7.00116C6.0612 3.80175 5.15974 4.17515 4.49508 4.8398C3.83043 5.50445 3.45703 6.40592 3.45703 7.34588C3.45703 8.28584 3.83043 9.1873 4.49508 9.85195C5.15974 10.5166 6.0612 10.89 7.00116 10.89H15.5071C16.071 10.89 16.6119 11.114 17.0107 11.5128C17.4095 11.9116 17.6335 12.4525 17.6335 13.0165C17.6335 13.5805 17.4095 14.1213 17.0107 14.5201C16.6119 14.9189 16.071 15.143 15.5071 15.143H8.31603C8.14577 14.5719 7.77564 14.0812 7.27332 13.7606C6.77101 13.4399 6.17007 13.3109 5.58039 13.3969C4.99072 13.4829 4.45171 13.7783 4.06194 14.2291C3.67217 14.6799 3.45767 15.2559 3.45767 15.8518C3.45767 16.4477 3.67217 17.0237 4.06194 17.4745C4.45171 17.9252 4.99072 18.2207 5.58039 18.3067C6.17007 18.3927 6.77101 18.2636 7.27332 17.943C7.77564 17.6224 8.14577 17.1317 8.31603 16.5606H15.5071C16.447 16.5606 17.3485 16.1872 18.0131 15.5226C18.6778 14.8579 19.0512 13.9564 19.0512 13.0165C19.0512 12.0765 18.6778 11.1751 18.0131 10.5104C17.3485 9.84575 16.447 9.47235 15.5071 9.47235ZM5.93792 16.915C5.72763 16.915 5.52207 16.8527 5.34722 16.7358C5.17237 16.619 5.03609 16.453 4.95562 16.2587C4.87514 16.0644 4.85409 15.8506 4.89511 15.6444C4.93614 15.4381 5.0374 15.2487 5.1861 15.1C5.3348 14.9513 5.52425 14.85 5.73049 14.809C5.93674 14.768 6.15052 14.789 6.34481 14.8695C6.53909 14.95 6.70514 15.0862 6.82197 15.2611C6.9388 15.4359 7.00116 15.6415 7.00116 15.8518C7.00116 16.1338 6.88914 16.4042 6.68974 16.6036C6.49035 16.803 6.21991 16.915 5.93792 16.915Z" fill="#FBC100"/>
</svg>
