<svg width="24" height="24" viewBox="0 0 24 24" fill="none" xmlns="http://www.w3.org/2000/svg">
<path d="M19.71 18.29L15.71 14.29L15.58 14.21C16.5026 13.0005 17.0015 11.5211 17 10C17 8.61553 16.5895 7.26216 15.8203 6.11101C15.0511 4.95987 13.9579 4.06266 12.6788 3.53285C11.3997 3.00303 9.99224 2.86441 8.63437 3.13451C7.2765 3.4046 6.02922 4.07129 5.05026 5.05026C4.07129 6.02922 3.4046 7.2765 3.13451 8.63437C2.86441 9.99224 3.00303 11.3997 3.53285 12.6788C4.06266 13.9579 4.95987 15.0511 6.11101 15.8203C7.26216 16.5895 8.61553 17 10 17C11.5211 17.0015 13.0005 16.5026 14.21 15.58L14.29 15.71L18.29 19.71C18.383 19.8037 18.4936 19.8781 18.6154 19.9289C18.7373 19.9797 18.868 20.0058 19 20.0058C19.132 20.0058 19.2627 19.9797 19.3846 19.9289C19.5064 19.8781 19.617 19.8037 19.71 19.71C19.8037 19.617 19.8781 19.5064 19.9289 19.3846C19.9797 19.2627 20.0058 19.132 20.0058 19C20.0058 18.868 19.9797 18.7373 19.9289 18.6154C19.8781 18.4936 19.8037 18.383 19.71 18.29ZM10 15C9.0111 15 8.0444 14.7068 7.22215 14.1574C6.39991 13.6079 5.75904 12.8271 5.38061 11.9134C5.00217 10.9998 4.90315 9.99446 5.09608 9.02455C5.289 8.05465 5.76521 7.16373 6.46447 6.46447C7.16373 5.76521 8.05465 5.289 9.02455 5.09608C9.99446 4.90315 10.9998 5.00217 11.9134 5.38061C12.8271 5.75904 13.6079 6.39991 14.1574 7.22215C14.7068 8.0444 15 9.0111 15 10C15 11.3261 14.4732 12.5979 13.5355 13.5355C12.5979 14.4732 11.3261 15 10 15Z" fill="#BABAC0"/>
</svg>
