<svg width="20" height="20" viewBox="0 0 20 20" fill="none" xmlns="http://www.w3.org/2000/svg">
<g id="send" clip-path="url(#clip0_1_43)">
<path id="Icon" fill-rule="evenodd" clip-rule="evenodd" d="M19.2592 10C19.2592 10.3507 19.0611 10.6713 18.7474 10.8282L2.08074 19.1615C1.76126 19.3213 1.37838 19.283 1.09683 19.0632C0.815285 18.8433 0.685293 18.4812 0.762781 18.1325L2.57 10L0.762781 1.86755C0.685293 1.51886 0.815285 1.15669 1.09683 0.936866C1.37838 0.717043 1.76126 0.678769 2.08074 0.838513L18.7474 9.17184C19.0611 9.32869 19.2592 9.6493 19.2592 10ZM4.26126 10.9259L2.99254 16.6352L14.411 10.9259L4.26126 10.9259ZM14.411 9.07409L4.26126 9.07409L2.99254 3.36484L14.411 9.07409Z" fill="#FBC100"/>
</g>
<defs>
<clipPath id="clip0_1_43">
<rect width="20" height="20" fill="white" transform="matrix(0 1 -1 0 20 0)"/>
</clipPath>
</defs>
</svg>
