<svg width="20" height="20" viewBox="0 0 20 20" fill="none" xmlns="http://www.w3.org/2000/svg">
<path d="M12.3677 5.28491C12.1403 4.63729 12.1259 3.94937 12.2957 3.31613C12.7706 1.53445 14.6128 0.469462 16.3944 0.947266C18.1761 1.46249 19.2469 3.23266 18.7633 5.04601C18.2855 6.83058 16.4491 7.89268 14.6646 7.41488C14.0285 7.24794 13.4413 6.88814 12.9923 6.36717L8.24588 9.10734C8.40132 9.67437 8.40707 10.2817 8.2574 10.8487L13.0786 13.6321C13.5276 13.1111 14.1148 12.7542 14.7509 12.5844C16.5355 12.1066 18.3747 13.1687 18.8497 14.9532C19.3275 16.7378 18.2654 18.5771 16.4808 19.052C14.7106 19.5269 12.88 18.4792 12.3907 16.7148C12.2007 16.0729 12.2353 15.3418 12.454 14.7143L7.71627 11.9799C7.0888 12.8377 6.08426 13.35 5.0164 13.35C3.16851 13.35 1.66602 11.8475 1.66602 9.99962C1.66602 8.15461 3.17138 6.64924 5.0164 6.64924C6.06987 6.64924 7.06289 7.14432 7.69324 7.98479L12.3677 5.28491ZM5.0164 7.90707C3.86218 7.90707 2.92385 8.84253 2.92385 9.99962C2.92385 11.1567 3.85931 12.0922 5.0164 12.0922C6.17636 12.0922 7.11182 11.1596 7.11182 9.99962C7.11182 8.84541 6.17348 7.90707 5.0164 7.90707ZM13.5909 16.3607C13.8586 17.4775 15.0675 18.1338 16.1555 17.8431C17.2752 17.5437 17.9372 16.3953 17.6379 15.2756C17.3414 14.1559 16.193 13.4968 15.0733 13.7933C13.9565 14.0926 13.2916 15.2439 13.5909 16.3607ZM13.5046 3.63851C13.2053 4.75818 13.8673 5.90663 14.9869 6.20598C16.1037 6.50533 17.2551 5.84331 17.5515 4.72364C17.848 3.61836 17.1975 2.4699 16.0922 2.16192C14.9351 1.90863 13.8212 2.45839 13.5046 3.63851Z" fill="#333333"/>
</svg>
