<svg width="21" height="21" viewBox="0 0 21 21" fill="none" xmlns="http://www.w3.org/2000/svg">
<path fill-rule="evenodd" clip-rule="evenodd" d="M4.09526 13.3694C2.42586 13.3694 1.06836 11.9755 1.06836 10.2628C1.06836 8.55011 2.42586 7.15625 4.09526 7.15625C5.76466 7.15625 7.12217 8.55011 7.12217 10.2628C7.12217 11.9755 5.76466 13.3694 4.09526 13.3694ZM4.09526 8.3283C3.05641 8.3283 2.21036 9.19599 2.21036 10.2628C2.21036 11.3296 3.05641 12.1973 4.09526 12.1973C5.13411 12.1973 5.98017 11.3296 5.98017 10.2628C5.98017 9.19599 5.13411 8.3283 4.09526 8.3283Z" fill="#333333"/>
<path fill-rule="evenodd" clip-rule="evenodd" d="M16.3746 7.06859C14.7052 7.06859 13.3477 5.67473 13.3477 3.96203C13.3477 2.24932 14.7052 0.855469 16.3746 0.855469C18.044 0.855469 19.4015 2.24932 19.4015 3.96203C19.4015 5.67473 18.044 7.06859 16.3746 7.06859ZM16.3746 2.02752C15.3357 2.02752 14.4897 2.89521 14.4897 3.96203C14.4897 5.02884 15.3357 5.89654 16.3746 5.89654C17.4134 5.89654 18.2595 5.02884 18.2595 3.96203C18.2595 2.89521 17.4134 2.02752 16.3746 2.02752Z" fill="black"/>
<path fill-rule="evenodd" clip-rule="evenodd" d="M16.3746 19.6721C14.7052 19.6721 13.3477 18.2782 13.3477 16.5655C13.3477 14.8528 14.7052 13.459 16.3746 13.459C18.044 13.459 19.4015 14.8528 19.4015 16.5655C19.4015 18.2782 18.044 19.6721 16.3746 19.6721ZM16.3746 14.631C15.3357 14.631 14.4897 15.4987 14.4897 16.5655C14.4897 17.6324 15.3357 18.5001 16.3746 18.5001C17.4134 18.5001 18.2595 17.6324 18.2595 16.5655C18.2595 15.4987 17.4134 14.631 16.3746 14.631Z" fill="black"/>
<path fill-rule="evenodd" clip-rule="evenodd" d="M13.9115 16.0057L6.00781 11.9496L6.55732 10.8223L14.461 14.8784L13.9115 16.0057Z" fill="black"/>
<path fill-rule="evenodd" clip-rule="evenodd" d="M6.55732 9.70496L6.00781 8.57765L13.9115 4.52148L14.461 5.64879L6.55732 9.70496Z" fill="black"/>
</svg>
