<svg width="12" height="12" viewBox="0 0 12 12" fill="none" xmlns="http://www.w3.org/2000/svg">
<path d="M4.01808 11.4991C4.55662 11.4991 4.9932 11.0625 4.9932 10.5239C4.9932 9.9854 4.55662 9.54883 4.01808 9.54883C3.47954 9.54883 3.04297 9.9854 3.04297 10.5239C3.04297 11.0625 3.47954 11.4991 4.01808 11.4991Z" fill="#767676"/>
<path d="M9.36183 11.4991C9.90037 11.4991 10.3369 11.0625 10.3369 10.5239C10.3369 9.9854 9.90037 9.54883 9.36183 9.54883C8.82329 9.54883 8.38672 9.9854 8.38672 10.5239C8.38672 11.0625 8.82329 11.4991 9.36183 11.4991Z" fill="#767676"/>
<path d="M10.6731 2.89952H3.73032C3.71862 2.89952 3.5392 2.26375 3.5314 2.24035C3.20376 1.43295 2.24035 1 1.49536 1C1.22233 1 1 1.22233 1 1.49536C1 1.76839 1.22233 1.99072 1.49536 1.99072C1.94391 1.99072 2.44707 2.26375 2.59919 2.58359L3.93315 8.23535C4.06186 8.78531 4.54942 9.16756 5.11108 9.16756H8.83602C9.10905 9.16756 9.33138 8.94523 9.33138 8.6722C9.33138 8.39917 9.10905 8.17684 8.83602 8.17684H5.11108C5.00967 8.17684 4.91996 8.10663 4.89656 8.00912L4.72494 7.28754H9.27677C9.60051 7.28754 9.89695 7.09252 10.0218 6.79218L11.4142 4.01895C11.6366 3.48849 11.2465 2.89952 10.6731 2.89952Z" fill="#767676"/>
</svg>
