<svg width="20" height="20" viewBox="0 0 20 20" fill="none" xmlns="http://www.w3.org/2000/svg">
<path d="M8.18563 0.833984C6.41437 0.833984 4.92582 2.18283 4.92582 3.89642V4.50127H3.49329C3.47208 4.50016 3.45083 4.50016 3.42962 4.50127C3.29129 4.5164 3.16226 4.57828 3.06386 4.67668C2.96546 4.77508 2.90358 4.90411 2.88844 5.04245L1.67238 16.1653C1.66915 16.1864 1.66702 16.2076 1.66602 16.2289C1.66602 16.9432 2.25699 17.5405 2.97121 17.5405H12.3623C12.7426 17.9677 13.0962 18.3854 13.3555 18.8521C13.4084 18.9476 13.4858 19.0272 13.5799 19.0826C13.6739 19.1381 13.7811 19.1673 13.8903 19.1673C13.9995 19.1673 14.1067 19.1381 14.2007 19.0826C14.2948 19.0272 14.3722 18.9476 14.4251 18.8521C14.8723 18.0472 15.5925 17.3777 16.2651 16.5791C16.9378 15.7805 17.5576 14.7988 17.5576 13.4657C17.5576 11.5655 15.9928 9.86895 14.0049 9.80483L13.4828 5.04245C13.4657 4.89387 13.3946 4.75673 13.2832 4.65699C13.1717 4.55726 13.0275 4.50186 12.878 4.50127H11.4454V3.89642C11.4454 2.18283 9.9569 0.833984 8.18563 0.833984ZM8.18563 2.05641C9.34901 2.05641 10.223 2.89091 10.223 3.89642V4.50127H6.14825V3.89642C6.14825 2.89091 7.02226 2.05641 8.18563 2.05641ZM4.04084 5.7237H4.92582V6.33491C4.92468 6.41591 4.93964 6.49632 4.96985 6.57148C5.00005 6.64664 5.04489 6.71505 5.10176 6.77273C5.15863 6.83041 5.22639 6.87621 5.30112 6.90747C5.37584 6.93873 5.45604 6.95483 5.53704 6.95483C5.61804 6.95483 5.69823 6.93873 5.77296 6.90747C5.84768 6.87621 5.91545 6.83041 5.97232 6.77273C6.02919 6.71505 6.07403 6.64664 6.10423 6.57148C6.13444 6.49632 6.1494 6.41591 6.14825 6.33491V5.7237H10.223V6.33491C10.2219 6.41591 10.2368 6.49632 10.267 6.57148C10.2972 6.64664 10.3421 6.71505 10.3989 6.77273C10.4558 6.83041 10.5236 6.87621 10.5983 6.90747C10.673 6.93873 10.7532 6.95483 10.8342 6.95483C10.9152 6.95483 10.9954 6.93873 11.0701 6.90747C11.1449 6.87621 11.2126 6.83041 11.2695 6.77273C11.3264 6.71505 11.3712 6.64664 11.4014 6.57148C11.4316 6.49632 11.4466 6.41591 11.4454 6.33491V5.7237H12.3304L12.7952 9.97036C11.2973 10.454 10.223 11.8918 10.223 13.4657C10.223 14.657 10.72 15.5679 11.3054 16.3181H2.97121C2.91764 16.3181 2.88844 16.2825 2.88844 16.2289L4.04084 5.7237ZM13.8903 11.0209C15.2231 11.0209 16.3352 12.2318 16.3352 13.4657C16.3352 14.4389 15.9363 15.0828 15.3356 15.796C14.905 16.3071 14.3694 16.8271 13.8903 17.4577C13.4112 16.8271 12.8756 16.3071 12.445 15.796C11.8443 15.0828 11.4454 14.4389 11.4454 13.4657C11.4454 12.2318 12.5575 11.0209 13.8903 11.0209ZM13.8903 11.8358C12.9916 11.8358 12.2477 12.5734 12.2477 13.4721C12.2477 14.3708 12.9916 15.1147 13.8903 15.1147C14.789 15.1147 15.5329 14.3708 15.5329 13.4721C15.5329 12.5734 14.789 11.8358 13.8903 11.8358ZM13.8903 13.0583C14.1283 13.0583 14.3105 13.2341 14.3105 13.4721C14.3105 13.7102 14.1283 13.8923 13.8903 13.8923C13.6523 13.8923 13.4701 13.7102 13.4701 13.4721C13.4701 13.2341 13.6523 13.0583 13.8903 13.0583Z" fill="#333333"/>
</svg>
