<svg width="20" height="22" viewBox="0 0 20 22" fill="none" xmlns="http://www.w3.org/2000/svg">
<path d="M1.66667 8.2296V9.07642C1.66641 9.28989 1.70719 9.50132 1.78667 9.69859C1.86615 9.89586 1.98276 10.0751 2.12984 10.2261C2.27692 10.377 2.45157 10.4967 2.64378 10.5783C2.836 10.6598 3.042 10.7017 3.25 10.7014C3.458 10.7017 3.66401 10.6598 3.85622 10.5783C4.04844 10.4967 4.22308 10.377 4.37016 10.2261C4.51724 10.0751 4.63386 9.89586 4.71333 9.69859C4.79281 9.50132 4.83359 9.28989 4.83333 9.07642C4.83308 9.28989 4.87386 9.50132 4.95333 9.69859C5.03281 9.89586 5.14943 10.0751 5.29651 10.2261C5.44359 10.377 5.61823 10.4967 5.81045 10.5783C6.00266 10.6598 6.20867 10.7017 6.41667 10.7014C6.62467 10.7017 6.83067 10.6598 7.02289 10.5783C7.2151 10.4967 7.38975 10.377 7.53683 10.2261C7.6839 10.0751 7.80052 9.89586 7.88 9.69859C7.95948 9.50132 8.00026 9.28989 8 9.07642C7.99974 9.28989 8.04052 9.50132 8.12 9.69859C8.19948 9.89586 8.3161 10.0751 8.46317 10.2261C8.61025 10.377 8.7849 10.4967 8.97711 10.5783C9.16933 10.6598 9.37534 10.7017 9.58333 10.7014C9.79133 10.7017 9.99734 10.6598 10.1896 10.5783C10.3818 10.4967 10.5564 10.377 10.7035 10.2261C10.8506 10.0751 10.9672 9.89586 11.0467 9.69859C11.1261 9.50132 11.1669 9.28989 11.1667 9.07642C11.1664 9.28989 11.2072 9.50132 11.2867 9.69859C11.3661 9.89586 11.4828 10.0751 11.6298 10.2261C11.7769 10.377 11.9516 10.4967 12.1438 10.5783C12.336 10.6598 12.542 10.7017 12.75 10.7014C12.958 10.7017 13.164 10.6598 13.3562 10.5783C13.5484 10.4967 13.7231 10.377 13.8702 10.2261C14.0172 10.0751 14.1339 9.89586 14.2133 9.69859C14.2928 9.50132 14.3336 9.28989 14.3333 9.07642C14.3331 9.28989 14.3739 9.50132 14.4533 9.69859C14.5328 9.89586 14.6494 10.0751 14.7965 10.2261C14.9436 10.377 15.1182 10.4967 15.3104 10.5783C15.5027 10.6598 15.7087 10.7017 15.9167 10.7014C16.1247 10.7017 16.3307 10.6598 16.5229 10.5783C16.7151 10.4967 16.8897 10.377 17.0368 10.2261C17.1839 10.0751 17.3005 9.89586 17.38 9.69859C17.4595 9.50132 17.5003 9.28989 17.5 9.07642V8.2296H1.66667ZM1.66667 8.2296L3.23291 3.30273H15.8324L17.416 8.2296H1.66667ZM11.7394 12.2921L13.6093 14.211L11.7394 12.2921Z" fill="white"/>
<path d="M1.66667 8.2296V9.07642C1.66641 9.28989 1.70719 9.50132 1.78667 9.69859C1.86615 9.89586 1.98276 10.0751 2.12984 10.2261C2.27692 10.377 2.45157 10.4967 2.64378 10.5783C2.836 10.6598 3.042 10.7017 3.25 10.7014C3.458 10.7017 3.66401 10.6598 3.85622 10.5783C4.04844 10.4967 4.22308 10.377 4.37016 10.2261C4.51724 10.0751 4.63386 9.89586 4.71333 9.69859C4.79281 9.50132 4.83359 9.28989 4.83333 9.07642C4.83308 9.28989 4.87386 9.50132 4.95334 9.69859C5.03281 9.89586 5.14943 10.0751 5.29651 10.2261C5.44359 10.377 5.61823 10.4967 5.81045 10.5783C6.00266 10.6598 6.20867 10.7017 6.41667 10.7014C6.62467 10.7017 6.83067 10.6598 7.02289 10.5783C7.2151 10.4967 7.38975 10.377 7.53683 10.2261C7.6839 10.0751 7.80052 9.89586 7.88 9.69859C7.95948 9.50132 8.00026 9.28989 8 9.07642C7.99974 9.28989 8.04052 9.50132 8.12 9.69859C8.19948 9.89586 8.3161 10.0751 8.46317 10.2261C8.61025 10.377 8.7849 10.4967 8.97711 10.5783C9.16933 10.6598 9.37534 10.7017 9.58333 10.7014C9.79133 10.7017 9.99734 10.6598 10.1896 10.5783C10.3818 10.4967 10.5564 10.377 10.7035 10.2261C10.8506 10.0751 10.9672 9.89586 11.0467 9.69859C11.1261 9.50132 11.1669 9.28989 11.1667 9.07642C11.1664 9.28989 11.2072 9.50132 11.2867 9.69859C11.3661 9.89586 11.4828 10.0751 11.6298 10.2261C11.7769 10.377 11.9516 10.4967 12.1438 10.5783C12.336 10.6598 12.542 10.7017 12.75 10.7014C12.958 10.7017 13.164 10.6598 13.3562 10.5783C13.5484 10.4967 13.7231 10.377 13.8702 10.2261C14.0172 10.0751 14.1339 9.89586 14.2133 9.69859C14.2928 9.50132 14.3336 9.28989 14.3333 9.07642C14.3331 9.28989 14.3739 9.50132 14.4533 9.69859C14.5328 9.89586 14.6494 10.0751 14.7965 10.2261C14.9436 10.377 15.1182 10.4967 15.3104 10.5783C15.5027 10.6598 15.7087 10.7017 15.9167 10.7014C16.1247 10.7017 16.3307 10.6598 16.5229 10.5783C16.7151 10.4967 16.8897 10.377 17.0368 10.2261C17.1839 10.0751 17.3005 9.89586 17.38 9.69859C17.4595 9.50132 17.5003 9.28989 17.5 9.07642V8.2296H1.66667ZM1.66667 8.2296H17.416L15.8324 3.30273H3.23291L1.66667 8.2296ZM13.508 4.28811L14.0807 7.24422M10.8635 4.28811L11.049 7.24422M8.21897 4.28811L8.03369 7.24422M5.57447 4.28811L5.00177 7.24422M1.66667 18.0487H17.416M1.66667 19.1894H17.416M3.23291 10.7014V18.0315M7.96631 11.1509V18.0485M15.8324 10.7014V18.0485M10.0718 12.2921L13.609 15.9224M11.7394 12.2921L13.6093 14.211" stroke="#333333" stroke-miterlimit="10" stroke-linecap="round" stroke-linejoin="round"/>
<path d="M10.0719 12.293L13.6091 15.9233M11.7395 12.293L13.6094 14.2119" stroke="#FBC100" stroke-miterlimit="10" stroke-linecap="round" stroke-linejoin="round"/>
</svg>
