<svg width="20" height="20" viewBox="0 0 20 20" fill="none" xmlns="http://www.w3.org/2000/svg">
<path d="M12.8233 0.833984H6.71233C5.30878 0.833984 4.16602 1.97675 4.16602 3.3803V16.621C4.16602 18.0246 5.30878 19.1673 6.71233 19.1673H12.8233C14.2269 19.1673 15.3696 18.0246 15.3696 16.621V3.3803C15.3696 1.97587 14.2269 0.833984 12.8233 0.833984ZM14.3516 16.6203C14.3516 17.4628 13.6658 18.1485 12.8233 18.1485H6.71233C5.86979 18.1485 5.18409 17.4628 5.18409 16.6203V3.38033C5.18409 2.5378 5.86983 1.8521 6.71233 1.8521H12.8233C13.6659 1.8521 14.3516 2.53784 14.3516 3.38033V16.6203Z" fill="#333333"/>
<path d="M10.7865 16.6198C10.7865 17.1822 10.3306 17.638 9.76823 17.638C9.20584 17.638 8.75 17.1822 8.75 16.6198C8.75 16.0574 9.20584 15.6016 9.76823 15.6016C10.3306 15.6016 10.7865 16.0574 10.7865 16.6198Z" fill="#333333"/>
<path d="M10.7865 2.36133H8.74935C8.46786 2.36133 8.24023 2.58895 8.24023 2.87044C8.24023 3.15193 8.46786 3.37956 8.74935 3.37956H10.7865C11.068 3.37956 11.2957 3.15194 11.2957 2.87044C11.2957 2.58911 11.0679 2.36133 10.7865 2.36133Z" fill="black"/>
</svg>
