<svg width="19" height="17" viewBox="0 0 19 17" fill="none" xmlns="http://www.w3.org/2000/svg">
<path fill-rule="evenodd" clip-rule="evenodd" d="M0.666055 5.04513C0.664415 5.21907 0.714655 5.38955 0.810358 5.5348C0.906062 5.68005 1.04289 5.79348 1.20336 5.8606C1.36383 5.92773 1.54067 5.9455 1.71129 5.91165C1.88191 5.8778 2.03857 5.79386 2.16126 5.67056L4.16911 3.70372L4.16911 15.6124C4.16747 15.7283 4.18889 15.8434 4.23212 15.951C4.27535 16.0586 4.33953 16.1565 4.42094 16.2391C4.50235 16.3217 4.59935 16.3872 4.70631 16.432C4.81328 16.4767 4.92807 16.4998 5.04401 16.4998C5.15996 16.4998 5.27475 16.4767 5.38172 16.432C5.48868 16.3872 5.58568 16.3217 5.66709 16.2391C5.7485 16.1565 5.81268 16.0586 5.85591 15.951C5.89914 15.8434 5.92056 15.7283 5.91892 15.6124L5.91892 3.71227L7.91823 5.67056C8.08423 5.83235 8.30763 5.9217 8.53942 5.91901C8.77122 5.91632 8.99248 5.82181 9.15469 5.65621C9.3169 5.49061 9.40681 5.26743 9.4047 5.03563C9.40259 4.80383 9.30863 4.58233 9.14344 4.41971L5.65235 1.00039C5.48878 0.840005 5.26883 0.750162 5.03974 0.750162C4.81066 0.750162 4.59071 0.840005 4.42714 1.00039L0.937754 4.41971C0.852911 4.50046 0.785145 4.59743 0.738474 4.70486C0.691802 4.81229 0.667176 4.928 0.666055 5.04513ZM9.41514 12.2307C9.42459 12.4577 9.52203 12.6722 9.68684 12.8287L13.1762 16.2498C13.3398 16.4102 13.5597 16.5 13.7888 16.5C14.0179 16.5 14.2379 16.4102 14.4014 16.2498L17.8925 12.8287C17.9769 12.7489 18.0446 12.653 18.0915 12.5466C18.1384 12.4403 18.1637 12.3257 18.1659 12.2095C18.168 12.0933 18.147 11.9779 18.1041 11.8699C18.0611 11.7619 17.9971 11.6635 17.9157 11.5806C17.8343 11.4976 17.7372 11.4317 17.6301 11.3867C17.523 11.3416 17.4079 11.3184 17.2917 11.3183C17.1755 11.3182 17.0604 11.3413 16.9532 11.3861C16.846 11.431 16.7488 11.4968 16.6673 11.5796L14.6595 13.5464L14.6595 1.63777C14.6611 1.52184 14.6397 1.40674 14.5964 1.29916C14.5532 1.19157 14.489 1.09365 14.4076 1.01109C14.3262 0.928532 14.2292 0.862973 14.1223 0.818225C14.0153 0.773478 13.9005 0.750434 13.7846 0.750434C13.6686 0.750434 13.5538 0.773478 13.4469 0.818225C13.3399 0.862973 13.2429 0.928532 13.1615 1.01109C13.0801 1.09365 13.0159 1.19157 12.9727 1.29916C12.9294 1.40674 12.908 1.52184 12.9096 1.63777L12.9096 13.5379L10.9103 11.5796C10.7861 11.4545 10.6271 11.3699 10.454 11.3367C10.2808 11.3036 10.1017 11.3235 9.94014 11.3939C9.77853 11.4643 9.64194 11.5818 9.54826 11.7311C9.45459 11.8804 9.40819 12.0545 9.41514 12.2307Z" fill="black"/>
</svg>
