<svg width="21" height="21" viewBox="0 0 21 21" fill="none" xmlns="http://www.w3.org/2000/svg">
<path d="M5.81966 18.9552C5.4041 18.9552 4.99126 18.8217 4.63818 18.5587C4.01281 18.0932 3.70522 17.3183 3.83536 16.5366L4.43946 12.907C4.4759 12.6885 4.40505 12.4652 4.25001 12.3103L1.67928 9.74182C1.12566 9.18873 0.929884 8.37664 1.16799 7.62215C1.40632 6.8679 2.0292 6.32805 2.79376 6.21353L6.3443 5.68158C6.55819 5.64952 6.74311 5.51154 6.83862 5.31247L8.42434 2.0095C8.76565 1.29822 9.45779 0.856166 10.2303 0.855469C10.2307 0.855469 10.2312 0.855469 10.2316 0.855469C11.0037 0.855469 11.6956 1.29659 12.0378 2.00718L13.6278 5.30805C13.7235 5.5069 13.9087 5.64488 14.1228 5.67647L17.6736 6.20354C18.4381 6.31713 19.0619 6.85582 19.3012 7.60984C19.5404 8.36386 19.3455 9.17642 18.7926 9.73021L16.225 12.3024C16.0702 12.4573 15.9998 12.6806 16.0365 12.8994L16.6453 16.5283C16.7764 17.3097 16.4697 18.0851 15.845 18.5513C15.2205 19.018 14.4073 19.0788 13.7231 18.7102L10.5462 16.9986C10.3552 16.8955 10.1264 16.8957 9.9349 16.9991L6.76031 18.7148C6.46268 18.8758 6.14015 18.9552 5.81966 18.9552ZM8.05654 5.92874C7.76343 6.53921 7.19669 6.96268 6.54031 7.06117L2.98977 7.59312C2.73673 7.63098 2.53868 7.80264 2.45992 8.05236C2.38093 8.30207 2.4434 8.56038 2.6265 8.74343L5.19746 11.3119C5.67276 11.7869 5.88982 12.4713 5.77801 13.1421L5.17392 16.7717C5.13091 17.0302 5.22869 17.2767 5.43579 17.4309C5.64266 17.585 5.90136 17.6045 6.1277 17.4818L9.30207 15.7663C9.88896 15.4488 10.5901 15.4486 11.1775 15.7649L14.3543 17.476C14.5807 17.598 14.8394 17.5787 15.046 17.4242C15.2529 17.2697 15.3505 17.0233 15.307 16.7645L14.6982 13.1356C14.5857 12.4648 14.8018 11.7804 15.2764 11.3047L17.8442 8.73275C18.0271 8.54947 18.0891 8.29092 18.0099 8.04144C17.9307 7.79196 17.7322 7.62053 17.4794 7.5829L13.9286 7.05582C13.272 6.95826 12.7046 6.53572 12.4106 5.92549L10.8206 2.62461C10.7074 2.38953 10.4872 2.24899 10.2316 2.24899C10.2316 2.24899 10.2314 2.24899 10.2312 2.24899C9.97565 2.24922 9.75542 2.38976 9.64225 2.62531L8.05654 5.92874Z" fill="#333333"/>
</svg>
