<svg width="24" height="24" viewBox="0 0 24 24" fill="none" xmlns="http://www.w3.org/2000/svg">
<path d="M18.6189 3.65979C15.0442 0.0942484 9.26841 0.123068 5.69371 3.68861C2.11901 7.25415 2.09387 13.0287 5.66791 16.5938L12.127 23L18.5986 16.5434C22.1735 12.9775 22.1932 7.22577 18.6189 3.65979ZM12.1442 17.8863C7.82071 17.8863 4.31527 14.3901 4.31527 10.077C4.31527 5.76277 7.82093 2.26587 12.1442 2.26587C16.469 2.26587 19.9744 5.76277 19.9744 10.077C19.9729 14.3901 16.469 17.8863 12.1442 17.8863Z" fill="#333333"/>
<path d="M11.7097 4.52177C12.0443 4.23599 12.6316 4.33191 12.8213 4.73957C13.2059 5.69019 13.5837 6.64389 13.9659 7.59517C13.9726 7.62729 14.0028 7.63851 14.0328 7.63851C14.9893 7.70363 15.9454 7.78129 16.9021 7.84971C17.1763 7.85543 17.4484 8.00613 17.5726 8.25473C17.7261 8.53391 17.6745 8.92111 17.4233 9.12769C16.6518 9.76041 15.8874 10.4017 15.1179 11.0364C15.0963 11.0547 15.0749 11.0736 15.0603 11.0978C15.2778 12.0418 15.5213 12.9812 15.7489 13.9233C15.9211 14.3958 15.5173 14.9531 15.01 14.9159C14.8349 14.9137 14.6821 14.8187 14.5425 14.7232C13.7882 14.2478 13.0334 13.7721 12.2783 13.2974C12.2139 13.258 12.1532 13.2087 12.0809 13.1856C11.2249 13.6995 10.3822 14.237 9.52844 14.7555C9.29378 14.8952 8.98192 14.893 8.75144 14.7456C8.50817 14.6013 8.35886 14.3036 8.41598 14.0229C8.6619 13.016 8.93869 12.013 9.17357 11.0041C8.47994 10.4085 7.77594 9.82531 7.079 9.23395C6.9213 9.10613 6.74993 8.97281 6.68156 8.77415C6.51416 8.37485 6.77883 7.85455 7.2175 7.79229C8.26115 7.70429 9.31208 7.66733 10.3531 7.57185C10.7132 6.71363 11.0595 5.84859 11.4157 4.98773C11.4821 4.81547 11.5584 4.63661 11.7097 4.52177Z" fill="#333333"/>
<rect x="4.20508" y="2.09961" width="15.8797" height="15.84" rx="7.92" fill="#FBC100"/>
<path d="M16.336 11.166L15.2884 12.8351L13.1932 11.6896V13.9806H11.0979V11.6896L9.0027 12.8351L7.95508 11.166L10.0852 10.0205L7.99 8.87509L9.0027 7.206L11.0979 8.35146V6.06055H13.1932V8.35146L15.2884 7.206L16.3011 8.87509L14.2059 10.0205L16.336 11.166Z" fill="#333333"/>
</svg>
