<svg width="48" height="48" viewBox="0 0 48 48" fill="none" xmlns="http://www.w3.org/2000/svg">
<rect width="48" height="48" rx="6" fill="#F7F7F7"/>
<path d="M17.6667 33.25H25.9167C26.1598 33.25 26.3929 33.1534 26.5648 32.9815C26.7368 32.8096 26.8333 32.5765 26.8333 32.3333C26.8333 32.0902 26.7368 31.8571 26.5648 31.6852C26.3929 31.5133 26.1598 31.4167 25.9167 31.4167H17.6667C17.1804 31.4167 16.7141 31.2235 16.3703 30.8797C16.0265 30.5359 15.8333 30.0696 15.8333 29.5833V21.3333C15.8333 20.8471 16.0265 20.3808 16.3703 20.037C16.7141 19.6932 17.1804 19.5 17.6667 19.5H19.5C19.6703 19.5001 19.8373 19.4528 19.9822 19.3634C20.1271 19.2739 20.2442 19.1458 20.3204 18.9936L21.6473 16.3398C21.7233 16.1879 21.8401 16.06 21.9846 15.9706C22.129 15.8812 22.2955 15.8336 22.4654 15.8333H25.7012C25.8712 15.8336 26.0376 15.8812 26.1821 15.9706C26.3266 16.06 26.4433 16.1879 26.5194 16.3398L27.8462 18.9936C27.9225 19.1458 28.0396 19.2739 28.1845 19.3634C28.3294 19.4528 28.4964 19.5001 28.6667 19.5H30.5C30.9862 19.5 31.4525 19.6932 31.7964 20.037C32.1402 20.3808 32.3333 20.8471 32.3333 21.3333V25.9167C32.3333 26.1598 32.4299 26.393 32.6018 26.5649C32.7737 26.7368 33.0069 26.8333 33.25 26.8333C33.4931 26.8333 33.7263 26.7368 33.8982 26.5649C34.0701 26.393 34.1667 26.1598 34.1667 25.9167V21.3333C34.1667 20.3609 33.7804 19.4283 33.0927 18.7406C32.4051 18.053 31.4725 17.6667 30.5 17.6667H29.2327L28.1602 15.5194C27.933 15.0618 27.5823 14.677 27.1477 14.4085C26.7132 14.14 26.2121 13.9985 25.7012 14H22.4654C21.9546 13.9985 21.4535 14.14 21.0189 14.4085C20.5844 14.677 20.2336 15.0618 20.0065 15.5194L18.934 17.6667H17.6667C16.6942 17.6667 15.7616 18.053 15.0739 18.7406C14.3863 19.4283 14 20.3609 14 21.3333V29.5833C14 30.5558 14.3863 31.4884 15.0739 32.1761C15.7616 32.8637 16.6942 33.25 17.6667 33.25Z" fill="#333333"/>
<path d="M24.0833 20.417C23.1768 20.417 22.2907 20.6858 21.537 21.1894C20.7832 21.693 20.1958 22.4089 19.8489 23.2464C19.502 24.0839 19.4112 25.0054 19.5881 25.8945C19.7649 26.7836 20.2014 27.6002 20.8424 28.2412C21.4834 28.8822 22.3001 29.3187 23.1892 29.4956C24.0783 29.6724 24.9998 29.5817 25.8373 29.2348C26.6748 28.8879 27.3906 28.3004 27.8942 27.5467C28.3979 26.793 28.6667 25.9068 28.6667 25.0003C28.6667 23.7847 28.1838 22.619 27.3242 21.7594C26.4647 20.8999 25.2989 20.417 24.0833 20.417V20.417ZM24.0833 27.7503C23.5394 27.7503 23.0078 27.589 22.5555 27.2869C22.1033 26.9847 21.7508 26.5552 21.5427 26.0527C21.3345 25.5502 21.2801 24.9973 21.3862 24.4638C21.4923 23.9304 21.7542 23.4404 22.1388 23.0558C22.5234 22.6712 23.0134 22.4093 23.5468 22.3032C24.0803 22.1971 24.6332 22.2515 25.1357 22.4597C25.6382 22.6678 26.0677 23.0203 26.3699 23.4725C26.6721 23.9247 26.8333 24.4564 26.8333 25.0003C26.8333 25.7297 26.5436 26.4291 26.0279 26.9449C25.5122 27.4606 24.8127 27.7503 24.0833 27.7503V27.7503Z" fill="#333333"/>
<path d="M35.0827 31.417H33.2493V29.5837C33.2493 29.3405 33.1528 29.1074 32.9809 28.9355C32.809 28.7636 32.5758 28.667 32.3327 28.667C32.0896 28.667 31.8564 28.7636 31.6845 28.9355C31.5126 29.1074 31.416 29.3405 31.416 29.5837V31.417H29.5827C29.3396 31.417 29.1064 31.5136 28.9345 31.6855C28.7626 31.8574 28.666 32.0905 28.666 32.3337C28.666 32.5768 28.7626 32.8099 28.9345 32.9818C29.1064 33.1537 29.3396 33.2503 29.5827 33.2503H31.416V35.0837C31.416 35.3268 31.5126 35.5599 31.6845 35.7318C31.8564 35.9037 32.0896 36.0003 32.3327 36.0003C32.5758 36.0003 32.809 35.9037 32.9809 35.7318C33.1528 35.5599 33.2493 35.3268 33.2493 35.0837V33.2503H35.0827C35.3258 33.2503 35.559 33.1537 35.7309 32.9818C35.9028 32.8099 35.9993 32.5768 35.9993 32.3337C35.9993 32.0905 35.9028 31.8574 35.7309 31.6855C35.559 31.5136 35.3258 31.417 35.0827 31.417Z" fill="#333333"/>
</svg>
