<svg width="40" height="32" viewBox="0 0 40 32" fill="none" xmlns="http://www.w3.org/2000/svg">
<g clip-path="url(#clip0_10920_37910)">
<path fill-rule="evenodd" clip-rule="evenodd" d="M10.75 8.57501C10.75 8.11937 11.1194 7.75 11.575 7.75H13.792C14.1827 7.75 14.5198 8.02399 14.5996 8.4064L15.1516 11.0501H25.6002C26.5115 11.0501 27.2503 11.7888 27.2503 12.7001V16.2683C27.2503 17.0494 26.7026 17.7234 25.938 17.8834L16.9728 19.7585C16.0808 19.945 15.2064 19.3731 15.0199 18.481L13.1215 9.40003H11.575C11.1194 9.40003 10.75 9.03065 10.75 8.57501ZM16.464 17.3362C16.5571 17.7822 16.9944 18.0684 17.4404 17.9751L24.9441 16.4062C25.3263 16.3263 25.6002 15.9892 25.6002 15.5986V13.5251C25.6002 13.0695 25.2309 12.7001 24.7752 12.7001H15.4961L16.464 17.3362Z" fill="#333333"/>
<path d="M16 24.25C16.8285 24.25 17.5 23.5785 17.5 22.75C17.5 21.9216 16.8285 21.25 16 21.25C15.1716 21.25 14.5 21.9216 14.5 22.75C14.5 23.5785 15.1716 24.25 16 24.25Z" fill="#333333"/>
<path d="M23.5 24.25C24.3285 24.25 25 23.5785 25 22.75C25 21.9216 24.3285 21.25 23.5 21.25C22.6716 21.25 22 21.9216 22 22.75C22 23.5785 22.6716 24.25 23.5 24.25Z" fill="#333333"/>
</g>
<rect x="1" y="1" width="38" height="30" rx="7" stroke="#FBC100" stroke-width="2"/>
<defs>
<clipPath id="clip0_10920_37910">
<rect width="18" height="18" fill="white" transform="translate(10 7)"/>
</clipPath>
</defs>
</svg>
