<svg width="21" height="22" viewBox="0 0 21 22" fill="none" xmlns="http://www.w3.org/2000/svg">
<path d="M10.6393 16.7716C4.64184 16.7716 1.6684 11.4056 1.54484 11.1774C1.44859 10.9996 1.44859 10.7839 1.54484 10.6061C1.6684 10.3777 4.64184 5.01172 10.6393 5.01172C16.6368 5.01172 19.6102 10.3777 19.7338 10.6059C19.8301 10.7837 19.8301 10.9995 19.7338 11.1772C19.6102 11.4056 16.6368 16.7716 10.6393 16.7716ZM2.7197 10.8909C3.40128 11.9508 6.077 15.5956 10.6393 15.5956C15.2162 15.5956 17.88 11.9536 18.5589 10.8924C17.8774 9.83248 15.2016 6.18771 10.6393 6.18771C6.06248 6.18771 3.39861 9.82974 2.7197 10.8909ZM10.6393 14.4196C8.74373 14.4196 7.20182 12.8371 7.20182 10.8917C7.20182 8.94618 8.74373 7.36369 10.6393 7.36369C12.5349 7.36369 14.0768 8.94618 14.0768 10.8917C14.0768 12.8371 12.5349 14.4196 10.6393 14.4196ZM10.6393 8.53968C9.37566 8.53968 8.34766 9.59474 8.34766 10.8917C8.34766 12.1886 9.37566 13.2436 10.6393 13.2436C11.903 13.2436 12.931 12.1886 12.931 10.8917C12.931 9.59474 11.903 8.53968 10.6393 8.53968Z" fill="#333333"/>
</svg>
