<svg width="44" height="26" viewBox="0 0 44 26" fill="none" xmlns="http://www.w3.org/2000/svg">
<g clip-path="url(#clip0_13587_49321)">
<path d="M42 0H2C0.89543 0 0 0.89543 0 2V24C0 25.1046 0.89543 26 2 26H42C43.1046 26 44 25.1046 44 24V2C44 0.89543 43.1046 0 42 0Z" fill="white"/>
<path d="M19.0307 18.8247H16.0371L17.9072 7.20898H20.9076L19.0307 18.8247Z" fill="#00579F"/>
<path d="M29.9101 7.4981C29.0514 7.16791 28.1389 7.00101 27.2192 7.00597C24.2592 7.00597 22.1737 8.59024 22.1603 10.8487C22.1603 12.5139 23.6537 13.4442 24.7839 13.997C25.9141 14.5498 26.3379 14.9341 26.3379 15.4464C26.3245 16.2217 25.3961 16.5925 24.5283 16.5925C23.5545 16.6189 22.589 16.406 21.7163 15.9723L21.3194 15.7835L20.9023 18.3925C21.9744 18.8099 23.1157 19.0204 24.2659 19.0127C27.4075 19.0127 29.4594 17.4554 29.4795 15.0487C29.4795 13.7004 28.6925 12.7161 26.9635 11.8869C25.9141 11.3543 25.275 10.997 25.275 10.4509C25.275 9.90485 25.8199 9.45316 27.0039 9.45316C27.7688 9.41578 28.5322 9.55174 29.2374 9.85091L29.5065 9.97226L29.9101 7.4981Z" fill="#00579F"/>
<path d="M33.8849 14.7113L35.0823 11.4618C35.0823 11.4618 35.3312 10.7877 35.4792 10.3495L35.6878 11.3472C35.6878 11.3472 36.2529 14.1248 36.3605 14.718L33.8849 14.7113ZM37.5849 7.20793H35.2909C34.9594 7.16788 34.6241 7.24133 34.3396 7.41635C34.055 7.59136 33.8379 7.85766 33.7234 8.17197L29.2363 18.8304H32.378L33.0103 17.0911H36.8583C36.9458 17.4955 37.2149 18.8304 37.2149 18.8304H40L37.5849 7.20793Z" fill="#00579F"/>
<path d="M13.5348 7.20898L10.595 15.1303L10.2721 13.5258C9.54287 11.4454 8.06837 9.71072 6.13477 8.65842L8.82568 18.818H11.9943L16.7034 7.21573H13.5348V7.20898Z" fill="#00579F"/>
<path d="M7.87055 7.20849H3.04709L3 7.44444C6.76055 8.40849 9.24964 10.7343 10.2789 13.5118L9.22945 8.18601C9.16617 7.88484 8.99341 7.618 8.74476 7.43734C8.49611 7.25669 8.18932 7.17512 7.884 7.20849H7.87055Z" fill="#FAA61A"/>
</g>
<defs>
<clipPath id="clip0_13587_49321">
<rect width="44" height="26" fill="white"/>
</clipPath>
</defs>
</svg>
