<svg width="20" height="20" viewBox="0 0 20 20" fill="none" xmlns="http://www.w3.org/2000/svg">
<path d="M9.16667 11.6667L8.95833 6.66669H11.0417L10.8333 11.6667H9.16667ZM11.25 14.1667C11.25 14.4982 11.1183 14.8161 10.8839 15.0506C10.6495 15.285 10.3315 15.4167 10 15.4167C9.66848 15.4167 9.35054 15.285 9.11612 15.0506C8.8817 14.8161 8.75 14.4982 8.75 14.1667C8.75 13.8352 8.8817 13.5172 9.11612 13.2828C9.35054 13.0484 9.66848 12.9167 10 12.9167C10.3315 12.9167 10.6495 13.0484 10.8839 13.2828C11.1183 13.5172 11.25 13.8352 11.25 14.1667Z" fill="#FF7A00"/>
<path fill-rule="evenodd" clip-rule="evenodd" d="M8.94789 1.83155C9.63235 1.61182 10.3684 1.61182 11.0529 1.83155C11.7812 2.06488 12.3171 2.61238 12.8029 3.27488C13.2846 3.93321 13.8112 4.84071 14.4679 5.97155L17.2429 10.754C17.8904 11.869 18.4096 12.7649 18.7371 13.4999C19.0671 14.2415 19.2712 14.9649 19.1121 15.6965C18.9597 16.3869 18.5917 17.0109 18.0612 17.4782C17.4954 17.9782 16.7562 18.1624 15.9387 18.2482C15.1287 18.3332 14.0804 18.3332 12.7762 18.3332H7.22455C5.92039 18.3332 4.87205 18.3332 4.06205 18.2482C3.24539 18.1624 2.50539 17.9782 1.93955 17.4782C1.40938 17.0108 1.04165 16.3868 0.889554 15.6965C0.729554 14.9649 0.933721 14.2407 1.26372 13.4999C1.59039 12.7649 2.11039 11.869 2.75789 10.754L5.53289 5.97071C6.18955 4.84155 6.71705 3.93321 7.19789 3.27488C7.68455 2.61238 8.21955 2.06571 8.94789 1.83155ZM10.5271 3.41988C10.1846 3.30984 9.81621 3.30984 9.47372 3.41988C9.26872 3.48571 8.99872 3.67238 8.57372 4.25321C8.15122 4.82988 7.66789 5.65905 6.98039 6.84405L4.25622 11.539C3.57789 12.7082 3.10372 13.5274 2.81705 14.1707C2.52955 14.8157 2.50289 15.1374 2.54789 15.344C2.62289 15.6882 2.80622 15.9999 3.07289 16.2357C3.23289 16.3774 3.52955 16.5124 4.24205 16.5874C4.95039 16.6615 5.90872 16.6624 7.27539 16.6624H12.7254C14.0921 16.6624 15.0504 16.6615 15.7587 16.5874C16.4712 16.5124 16.7671 16.3765 16.9279 16.2357C17.1946 15.9999 17.3779 15.6882 17.4529 15.344C17.4979 15.1374 17.4712 14.8157 17.1837 14.1699C16.8971 13.5274 16.4229 12.7082 15.7446 11.539L13.0196 6.84405C12.3329 5.65905 11.8496 4.82988 11.4271 4.25238C11.0021 3.67238 10.7321 3.48655 10.5271 3.41988Z" fill="#FF7A00"/>
</svg>
