<svg width="24" height="24" viewBox="0 0 24 24" fill="none" xmlns="http://www.w3.org/2000/svg">
<path d="M21.5866 6.83926V6.82051C21.5772 6.60488 21.5725 6.3752 21.5678 6.11738C21.5491 4.8752 20.56 3.84395 19.3178 3.77363C16.721 3.62832 14.7147 2.78457 12.9991 1.11113L12.985 1.09707C12.4272 0.586133 11.5835 0.586133 11.021 1.09707L11.0069 1.11113C9.29128 2.78926 7.28503 3.63301 4.68815 3.77832C3.44596 3.84863 2.4569 4.8752 2.43815 6.12207C2.43346 6.3752 2.42878 6.60488 2.4194 6.82519V6.86738C2.36784 9.51113 2.3069 12.8064 3.40846 15.7924C4.01315 17.4377 4.9319 18.8627 6.13659 20.0393C7.50534 21.3752 9.30065 22.4393 11.471 23.1939C11.5413 23.2174 11.6163 23.2408 11.6913 23.2549C11.7944 23.2736 11.9022 23.2877 12.01 23.2877C12.1178 23.2877 12.221 23.2783 12.3288 23.2549C12.4038 23.2408 12.4788 23.2221 12.5491 23.1939C14.7147 22.4346 16.51 21.3752 17.8788 20.0346C19.0835 18.858 19.9975 17.433 20.6069 15.7877C21.6991 12.7877 21.6382 9.49238 21.5866 6.83926ZM19.3788 15.3424C18.2116 18.5064 15.8303 20.6768 12.0991 21.9799C12.085 21.9846 12.071 21.9893 12.0569 21.9893C12.0194 21.9986 11.9772 21.9986 11.9397 21.9893C11.9257 21.9846 11.9116 21.9846 11.8975 21.9799C8.16159 20.6768 5.78034 18.5064 4.61315 15.3471C3.59596 12.5814 3.65221 9.54863 3.70378 6.87207V6.85801C3.71315 6.62832 3.72253 6.38926 3.72253 6.12207C3.7319 5.56895 4.17253 5.10957 4.73034 5.07676C6.20221 4.99238 7.50065 4.71113 8.68659 4.20488C9.87253 3.70332 10.9319 2.99082 11.9116 2.03926C11.9632 1.99707 12.0241 1.99707 12.0757 2.03926C13.06 2.99551 14.1147 3.70332 15.3007 4.20488C16.4913 4.70644 17.785 4.99238 19.2569 5.07676C19.8147 5.10957 20.2553 5.56426 20.2647 6.12207C20.2694 6.38926 20.2741 6.62832 20.2882 6.85801C20.3444 9.53457 20.4007 12.5721 19.3788 15.3424Z" fill="#333333"/>
<path d="M11.9996 6.06152C8.71836 6.06152 6.06055 8.71933 6.06055 12.0006C6.06055 15.2818 8.71836 17.9396 11.9996 17.9396C15.2809 17.9396 17.9387 15.2818 17.9387 12.0006C17.9387 8.71933 15.2809 6.06152 11.9996 6.06152ZM11.9996 16.6459C9.43554 16.6459 7.35898 14.5646 7.35898 12.0006C7.35898 9.43652 9.43554 7.35527 11.9996 7.35527C14.5637 7.35527 16.6402 9.43183 16.6402 12.0006C16.6402 14.5646 14.5637 16.6459 11.9996 16.6459Z" fill="#333333"/>
<path d="M10.9887 14.1473C10.7355 13.8941 10.7355 13.4863 10.9887 13.2379L14.1246 10.102C14.3777 9.84883 14.7855 9.84883 15.034 10.102C15.2871 10.3551 15.2871 10.7629 15.034 11.0113L11.898 14.1473C11.6496 14.4004 11.2418 14.4004 10.9887 14.1473Z" fill="#333333"/>
<path d="M9.63828 12.0191C9.85391 11.8035 10.2008 11.8035 10.4164 12.0191L11.7477 13.3504C11.9633 13.566 11.9633 13.9129 11.7477 14.1285C11.532 14.3441 11.1852 14.3441 10.9695 14.1285L9.63828 12.7973C9.42266 12.5816 9.42266 12.2348 9.63828 12.0191Z" fill="#333333"/>
</svg>
