<svg width="24" height="24" viewBox="0 0 24 24" fill="none" xmlns="http://www.w3.org/2000/svg">
    <path d="M13.4099 11.9999L18.7099 6.70994C18.8982 6.52164 19.004 6.26624 19.004 5.99994C19.004 5.73364 18.8982 5.47825 18.7099 5.28994C18.5216 5.10164 18.2662 4.99585 17.9999 4.99585C17.7336 4.99585 17.4782 5.10164 17.2899 5.28994L11.9999 10.5899L6.70994 5.28994C6.52164 5.10164 6.26624 4.99585 5.99994 4.99585C5.73364 4.99585 5.47824 5.10164 5.28994 5.28994C5.10164 5.47825 4.99585 5.73364 4.99585 5.99994C4.99585 6.26624 5.10164 6.52164 5.28994 6.70994L10.5899 11.9999L5.28994 17.2899C5.19621 17.3829 5.12182 17.4935 5.07105 17.6154C5.02028 17.7372 4.99414 17.8679 4.99414 17.9999C4.99414 18.132 5.02028 18.2627 5.07105 18.3845C5.12182 18.5064 5.19621 18.617 5.28994 18.7099C5.3829 18.8037 5.4935 18.8781 5.61536 18.9288C5.73722 18.9796 5.86793 19.0057 5.99994 19.0057C6.13195 19.0057 6.26266 18.9796 6.38452 18.9288C6.50638 18.8781 6.61698 18.8037 6.70994 18.7099L11.9999 13.4099L17.2899 18.7099C17.3829 18.8037 17.4935 18.8781 17.6154 18.9288C17.7372 18.9796 17.8679 19.0057 17.9999 19.0057C18.132 19.0057 18.2627 18.9796 18.3845 18.9288C18.5064 18.8781 18.617 18.8037 18.7099 18.7099C18.8037 18.617 18.8781 18.5064 18.9288 18.3845C18.9796 18.2627 19.0057 18.132 19.0057 17.9999C19.0057 17.8679 18.9796 17.7372 18.9288 17.6154C18.8781 17.4935 18.8037 17.3829 18.7099 17.2899L13.4099 11.9999Z" fill="#333333"/>
</svg>
