<svg width="24" height="24" viewBox="0 0 24 24" fill="none" xmlns="http://www.w3.org/2000/svg">
<rect x="0.5" y="0.5" width="23" height="23" rx="11.5" fill="white"/>
<rect x="0.5" y="0.5" width="23" height="23" rx="11.5" stroke="#767676"/>
<path d="M12.94 12L16.4733 8.47333C16.5989 8.3478 16.6694 8.17753 16.6694 8C16.6694 7.82247 16.5989 7.6522 16.4733 7.52667C16.3478 7.40113 16.1775 7.33061 16 7.33061C15.8225 7.33061 15.6522 7.40113 15.5267 7.52667L12 11.06L8.47333 7.52667C8.3478 7.40113 8.17753 7.33061 8 7.33061C7.82247 7.33061 7.6522 7.40113 7.52667 7.52667C7.40113 7.6522 7.33061 7.82247 7.33061 8C7.33061 8.17753 7.40113 8.3478 7.52667 8.47333L11.06 12L7.52667 15.5267C7.46418 15.5886 7.41459 15.6624 7.38074 15.7436C7.34689 15.8249 7.32947 15.912 7.32947 16C7.32947 16.088 7.34689 16.1751 7.38074 16.2564C7.41459 16.3376 7.46418 16.4114 7.52667 16.4733C7.58864 16.5358 7.66238 16.5854 7.74362 16.6193C7.82485 16.6531 7.91199 16.6705 8 16.6705C8.08801 16.6705 8.17515 16.6531 8.25638 16.6193C8.33762 16.5854 8.41136 16.5358 8.47333 16.4733L12 12.94L15.5267 16.4733C15.5886 16.5358 15.6624 16.5854 15.7436 16.6193C15.8249 16.6531 15.912 16.6705 16 16.6705C16.088 16.6705 16.1751 16.6531 16.2564 16.6193C16.3376 16.5854 16.4114 16.5358 16.4733 16.4733C16.5358 16.4114 16.5854 16.3376 16.6193 16.2564C16.6531 16.1751 16.6705 16.088 16.6705 16C16.6705 15.912 16.6531 15.8249 16.6193 15.7436C16.5854 15.6624 16.5358 15.5886 16.4733 15.5267L12.94 12Z" fill="#767676"/>
</svg>
