<svg width="28" height="28" viewBox="0 0 28 28" fill="none" xmlns="http://www.w3.org/2000/svg">
<rect width="28" height="28" rx="14" fill="white" fill-opacity="0.8"/>
<path d="M20.0922 9.63061C19.2839 8.83018 18.1904 8.38405 17.0527 8.39043C15.9151 8.39681 14.8266 8.8551 14.0273 9.66462C13.2383 8.83216 12.1474 8.35261 11.0006 8.33406C9.85393 8.31538 8.74799 8.75939 7.93237 9.56576C7.11689 10.3723 6.66043 11.473 6.66607 12.62C6.67169 13.7668 7.13894 14.8632 7.96245 15.6614L13.6669 21.3624C13.7621 21.4588 13.892 21.513 14.0274 21.513C14.1629 21.513 14.2927 21.4588 14.3879 21.3624L20.0924 15.6614C20.8869 14.8589 21.3327 13.7753 21.3327 12.6459C21.3327 11.5168 20.8868 10.4331 20.0924 9.63061H20.0922ZM19.371 14.9471L14.0273 20.2807L9.07823 15.3316L8.68373 14.9472C8.07768 14.3374 7.73768 13.5125 7.73768 12.6528C7.73768 11.7932 8.07768 10.9685 8.68373 10.3585C10.1702 8.89581 12.3777 9.19511 13.6702 10.7565C13.7702 10.8447 13.8975 10.8963 14.0307 10.9027C14.1643 10.8945 14.2912 10.8418 14.3913 10.7531C17.4289 7.15769 22.4531 11.4639 19.3711 14.9473L19.371 14.9471Z" fill="#333333"/>
<rect x="0.5" y="0.5" width="27" height="27" rx="13.5" stroke="#ECECEC" stroke-opacity="0.5"/>
</svg>
